<svg><defs><font id="PantonW01-Regular" horiz-adv-x="549" ><font-face font-family="PantonW01-Regular" font-weight="400" font-stretch="normal" units-per-em="1e3" panose-1="1 0 0 0 0 0 0 0 0 0" ascent="800" descent="-200" x-height="514" cap-height="710" bbox="-92 -247 1148 914.1" underline-thickness="50" underline-position="-125" unicode-range="U+0020-2122"
  /><missing-glyph horiz-adv-x="686" d="M605 20q0-20-20-20H106Q86 0 86 20v670q0 20 20 20h479q20 0 20-20V20zM158 68h375v574H158V68z" /><glyph glyph-name=".notdef" horiz-adv-x="686" d="M605 20q0-20-20-20H106Q86 0 86 20v670q0 20 20 20h479q20 0 20-20V20zM158 68h375v574H158V68z" /><glyph glyph-name=".null" horiz-adv-x="0" 
 /><glyph glyph-name="nonmarkingreturn" horiz-adv-x="333" 
 /><glyph glyph-name="glyph181" horiz-adv-x="262" 
 /><glyph glyph-name="glyph181" horiz-adv-x="262" 
 /><glyph glyph-name="space" horiz-adv-x="236" 
 /><glyph glyph-name="exclam" unicode="!" horiz-adv-x="207" d="M121 740q10 0 14-3.5t4-14.5l-9-536q0-10-3.5-14t-14.5-4H94q-17 0-18 18l-8 536q0 11 4 14.5t14 3.5h35zM106 80q23 0 31.5-8.5T146 40v-6q0-23-8.5-31.5T106-6h-6Q77-6 69 2.5T61 34v6q0 23 8 31.5t31 8.5h6z" /><glyph glyph-name="quotedbl" unicode='"' horiz-adv-x="295" d="M117 490q-1-11-4-13.5T99 474H81q-11 0-14 2.5T64 490v204q0 10 3 13t14 3h28q11 0 14.5-3t2.5-13zm110 0q-1-11-4-13.5t-13-2.5h-19q-10 0-13 2.5t-3 13.5v204q0 10 3 13t13 3h29q10 0 14-3t3-13z" /><glyph glyph-name="numbersign" unicode="#" horiz-adv-x="680" d="M631 480q11 0 14-3.5t0-14.5l-8-28q-3-10-8-13t-16-3H508l-49-165h105q11 0 14-3.5t0-14.5l-9-28q-3-10-8-13t-15-3H441L389 18q-4-10-8-14t-15-4h-30q-19 0-13 18l51 173H217L165 18q-2-10-6.5-14T143 0h-30q-19 0-13 18l51 173H48q-10 0-13 3.5t0 14.5l8 27q5 17 25 17h102l49 165H116q-11 0-14 3.5t0 14.5l9 27q4 17 24 17h102l47 156q3 10 7.5 14t15.5 4h30q19 0 13-18l-47-156h157l47 156q3 10 7.5 14t15.5 4h30q19 0 13-18l-46-156h104zM236 253h157l49 165H285z" /><glyph glyph-name="dollar" unicode="$" horiz-adv-x="590" d="M308 783q18 0 18-18v-63q42-4 73.5-15.5t56-31 43-46T534 549q11-19-11-28l-28-13q-10-4-16-2.5T468 518q-14 28-30 50t-37 37-49 22.5-66 7.5q-82 0-121-32.5T126 507q0-36 15-57t39.5-33 57-17 67.5-8q42-4 85-11.5t77.5-26.5 56-54 21.5-94q0-88-55-138T326 10v-65q0-18-18-18h-31q-11 0-14.5 4T259-55V9q-88 8-138.5 51.5T42 176q-8 20 13 28l28 10q11 4 16.5 1.5T110 202q13-30 28.5-54t37.5-40 50.5-24.5T293 75q179 0 179 129 0 37-15 59t-40 34-57.5 17-67.5 9q-43 4-85.5 12t-77 27-56 53T52 506q0 87 51 138t156 58v63q0 10 3.5 14t14.5 4h31v0z" /><glyph glyph-name="percent" unicode="%" horiz-adv-x="812" d="M36 578q0 69 40 108t118 39 118.5-39T353 578v-73q0-69-40.5-107.5T194 359 76 397.5 36 505v73zM681 710q11 0 13-5.5t-4-13.5L195 18q-8-12-14.5-15T156 0h-23q-11 0-13.5 6t2.5 14l496 673q8 11 14 14t22 3h27zM296 576q0 45-26 69.5T194 670q-49 0-75-24.5T93 576v-68q0-45 26-69.5t75-24.5q50 0 76 24.5t26 69.5v68zM459 204q0 69 40 108t118 39 118.5-39T776 204v-74q0-68-40.5-106.5T617-15 499 23.5 459 130v74zm259-3q0 45-25.5 70T617 296q-49 0-75-25t-26-70v-67q0-45 26-70t75-25q50 0 75.5 25t25.5 70v67z" /><glyph glyph-name="ampersand" unicode="&#x26;" horiz-adv-x="661" d="M106 553q0 33 12 64t35.5 55 57 38 76.5 14q38 0 70.5-13.5t56-36 37-53T464 557q0-35-10-62.5T424.5 445 375 405t-70-36l-9-4 179-175 69 67q12 12 24 0l23-24q10-10-1-21l-71-69L645 18q18-18-8-18h-42q-11 0-16.5 2T567 11l-92 90q-40-36-71.5-58.5T345 7.5t-52.5-17T239-14q-42 0-78 14.5T98.5 41 57 103t-15 78q0 41 12.5 72.5T88 309t48.5 41.5T194 383q-35 35-61.5 76T106 553zm295 4q0 21-8.5 40.5T369 632t-36 24-46 9q-27 0-49-9.5t-37-25-23-36-8-42.5q0-43 24-75t58-66l25 13q27 12 49.5 23.5t39 26.5 26 34.5T401 557zM238 337q-60-27-93.5-62T111 180q0-28 10-52t28-41 42-27 51-10q23 0 44 4.5t42.5 16 46.5 30 56 47.5z" /><glyph glyph-name="quotesingle" unicode="'" horiz-adv-x="184" d="M117 490q-1-11-4-13.5T99 474H81q-11 0-14 2.5T64 490v204q0 10 3 13t14 3h28q11 0 14.5-3t2.5-13l-9-204v0z" /><glyph glyph-name="parenleft" unicode="(" horiz-adv-x="256" d="M60 611q0 94 36 146.5T2e2 841q10 5 14.5 2t9.5-12l13-26q4-9 2-13.5T227 781q-49-23-75-60t-26-106V95q0-69 26-106t75-60q10-6 12.5-10.5T237-95l-13-26q-5-9-9.5-12t-14.5 2q-68 31-104 83.5T60 99v512 0z" /><glyph glyph-name="parenright" unicode=")" horiz-adv-x="256" d="M32 831q5 9 9.5 12t14.5-2q68-31 104-83.5T196 611V99q0-94-36-146.5T56-131q-10-5-14.5-2T32-121L19-95q-4 9-1.5 13.5T29-71q49 23 75 60t26 106v520q0 69-26 106t-75 60q-9 6-11.5 10.5T19 805l13 26v0z" /><glyph glyph-name="asterisk" unicode="*" horiz-adv-x="379" d="M2e2 673q14 0 11-12l-8-105 98 39q7 4 10.5 2.5t6.5-8.5l6-20q3-12-9-15l-103-24 68-82q10-8-1-16l-18-12q-10-9-16 3l-55 89-56-88q-5-12-17-5l-17 13q-11 8-2 17l69 81-101 25q-14 1-9 14l6 21q6 11 16 6l97-40-7 105q-3 12 10 12h21v0z" /><glyph glyph-name="plus" unicode="+" horiz-adv-x="567" d="M5e2 359q19 0 19-20v-24q0-11-4-15t-15-4H315V111q0-20-20-20h-24q-20 0-20 20v185H67q-11 0-15.5 4T47 315v24q0 20 20 20h184v184q0 20 20 20h24q20 0 20-20V359h185v0z" /><glyph glyph-name="comma" unicode="," horiz-adv-x="181" d="M71-103q-3-11-7.5-14.5T49-121H36q-15 0-12 14L58 59q2 13 7 17.5T83 81h26q28 0 19-22L71-103v0z" /><glyph glyph-name="hyphen" unicode="-" horiz-adv-x="422" d="M340 298q20 0 20-20v-25q0-20-20-20H81q-19 0-19 20v25q0 20 19 20h259v0z" /><glyph glyph-name="period" unicode="." horiz-adv-x="186" d="M96 80q23 0 31-8.5t8-31.5v-6q0-23-8-31.5T96-6h-6Q67-6 58.5 2.5T50 34v6q0 23 8.5 31.5T90 80h6v0z" /><glyph glyph-name="slash" unicode="/" horiz-adv-x="408" d="M102-43q-4-10-8.5-13.5T78-60H45q-11 0-13 4t1 13l273 737q4 10 9 13t16 3h33q18 0 12-16L102-43v0z" /><glyph glyph-name="zero" unicode="0" horiz-adv-x="626" d="M58 492q0 108 66.5 170T313 724t188.5-62T568 492V218q0-108-66.5-170T313-14 124.5 48 58 218v274zm437 0q0 78-47 121.5T313 657t-135.5-43.5T130 492V218q0-78 47.5-121.5T313 53t135 43.5T495 218v274z" /><glyph glyph-name="one" unicode="1" horiz-adv-x="444" d="M336 710q20 0 20-20V20q0-20-20-20h-32q-12 0-16.5 4.5T283 20v602L72 505q-19-11-29 7l-15 27q-9 16 9 26l244 137q8 5 13 6.5t15 1.5h27v0z" /><glyph glyph-name="two" unicode="2" horiz-adv-x="590" d="M54 562q33 77 94 119.5T311 724q52 0 94.5-17t72.5-46.5 46-68.5 16-82q0-57-18-96.5t-52-69-82-52.5-109-47q-28-11-55.5-22t-49-27-35-37.5T126 107V68h388q20 0 20-20V20q0-20-20-20H71Q50 0 50 20v73q0 50 17.5 85t47 59.5 67 42T258 312t76 30.5 66 37 46.5 52T464 507q0 31-11 58.5T421.5 613t-49 32-63.5 12q-72 0-116-30t-71-90q-5-11-9.5-13.5T97 525l-31 12q-11 4-14 9t2 16z" /><glyph glyph-name="three" unicode="3" horiz-adv-x="599" d="M529 526q0-52-21-94.5T439 369q57-20 84.5-66T551 196q0-48-14.5-86.5t-44.5-66T416.5 1 308-14q-58 0-101 11.5t-74 34T81.5 86 48 160q-4 11-1 16.5t13 9.5l31 11q19 7 26-13 10-32 24.5-56.5t36.5-41 53.5-25T308 53q88 0 128 38.5T476 197q0 62-34 97.5T342 330H197q-20 0-20 19v27q0 20 20 20h136q62 0 93 36t31 87q0 67-38 102.5T306 657q-42 0-72.5-8T182 625.5 147 586t-24-57q-4-11-9.5-13T97 517l-31 11q-10 4-13 9t1 16q13 42 33.5 74t50.5 53.5 72 32.5 98 11q109 0 165-52t56-146z" /><glyph glyph-name="four" unicode="4" horiz-adv-x="610" d="M562 258q20 0 20-20v-25q0-20-20-20h-92V20q0-20-20-20h-29q-20 0-20 20v173H45q-20 0-20 20v21q0 10 1 14t6 10l358 446q7 8 12 11t16 3h31q12 0 16.5-4.5T470 698V258h92zm-451 0h290v360z" /><glyph glyph-name="five" unicode="5" horiz-adv-x="585" d="M497 710q20 0 20-20v-28q0-20-20-20H168l-21-213h165q59 0 103-17t72.5-46.5 42.5-69 14-84.5q0-46-16.5-87.5T480 52 404 3 302-15q-108 0-170 41T42 143q-4 11-1.5 16t12.5 9l33 12q17 7 25-13 20-56 65-85t126-29q38 0 68.5 12t52 33 33 50 11.5 64q0 32-10 59.5T426.5 319t-50 31.5T308 362H92q-14 0-19 5.5T70 386l30 293q2 18 9 24.5t25 6.5h363v0z" /><glyph glyph-name="six" unicode="6" horiz-adv-x="621" d="M129 389q19 6 69 18.5T325 420q128 0 188-54t60-163q0-103-68-160T315-14q-127 0-192.5 67.5T57 238v234q0 122 65.5 187T315 724q1e2.0 159.5-39T563 571q4-11 1-16t-14-9l-30-11q-11-4-15.5-1t-9.5 14q-22 53-65 81t-115 28q-91 0-138.5-46.5T129 472v-83zm0-151q0-88 47-136.5T315 53q90 0 138 39t48 111q0 75-43 112t-138 37q-40 0-72.5-4.5t-57-10-40-11T129 318v-80z" /><glyph glyph-name="seven" unicode="7" horiz-adv-x="519" d="M487 710q19 0 19-20v-20q0-8-1-13.5t-4-14.5L224 18q-5-12-11.5-15T187 0h-32q-11 0-12.5 5.5T145 20l278 622H46q-11 0-15 4.5T27 662v28q0 11 4 15.5t15 4.5h441v0z" /><glyph glyph-name="eight" unicode="8" horiz-adv-x="616" d="M69 538q0 91 63.5 138.5T307 724q119 0 179.5-46T547 543q0-43-15-73.5T495.5 418 450 384.5 407 365q32-11 61.5-25.5t51.5-36 35-51.5 13-72q0-43-14.5-79T508 39.5 427 0 307-14q-71 0-120 13t-80 36.5T62 93t-14 76q0 46 17.5 79t43 55.5 53 36T210 361q-29 12-54.5 27t-45 36T80 472.5 69 538zm407-1q0 61-43 92.5T308 661q-79 0-122.5-31.5T142 537q0-35 14-58.5t37.5-39 54-25.5 64.5-19l23-7q12 3 35.5 11t47 24.5 41 44T476 537zm16-358q0 40-17 65.5T428.5 286t-68 26.5T279 335q-11-3-37-11.5t-53-26-47.5-47T121 176q0-30 10-53.5t32-40 58-25 87-8.5 86 9 57 26 31.5 41 9.5 54z" /><glyph glyph-name="nine" unicode="9" horiz-adv-x="621" d="M491 321q-18-6-68-18.5T296 290q-128 0-188 54T48 507q0 103 68 160t190 57q127 0 192.5-67.5T564 472V238q0-122-65.5-187T306-14q-1e2.0-159.5 39T58 139q-4 11-1 16t14 9l30 11q11 4 15.5 1t9.5-14q22-53 65-81t115-28q91 0 138 46.5T491 238v83zm0 151q0 88-46.5 136.5T306 657q-90 0-138-39t-48-111q0-75 43-112t138-37q40 0 72.5 4.5t56.5 10 39.5 11T491 392v80z" /><glyph glyph-name="colon" unicode=":" horiz-adv-x="209" d="M107 486q23 0 31.5-8t8.5-31v-7q0-23-8.5-31t-31.5-8h-6q-23 0-31 8t-8 31v7q0 23 8 31t31 8h6zm0-406q23 0 31.5-8.5T147 40v-6q0-23-8.5-31.5T107-6h-6Q78-6 70 2.5T62 34v6q0 23 8 31.5t31 8.5h6z" /><glyph glyph-name="semicolon" unicode=";" horiz-adv-x="237" d="M131 486q23 0 31.5-8t8.5-31v-7q0-23-8.5-31t-31.5-8h-6q-23 0-31 8t-8 31v7q0 23 8 31t31 8h6zM101-103q-4-11-8-14.5T78-121H66q-9 0-11.5 3T53-107L87 59q2 13 7.5 17.5T113 81h26q26 0 19-22z" /><glyph glyph-name="less" unicode="&#x3c;" horiz-adv-x="497" d="M414 557q22 11 22-15v-26q0-16-4-21.5T416 483L122 329v-3l294-155q12-6 16-11t4-22v-28q0-26-22-15L52 291q-9 5-12.5 10T36 317v18q0 11 3.5 16T52 361l362 196v0z" /><glyph glyph-name="equal" unicode="=" horiz-adv-x="598" d="M515 458q20 0 20-19v-26q0-20-20-20H82q-19 0-19 20v26q0 19 19 19h433zm0-197q20 0 20-20v-26q0-20-20-20H82q-19 0-19 20v26q0 20 19 20h433z" /><glyph glyph-name="greater" unicode="&#x3e;" horiz-adv-x="497" d="M61 542q0 27 22 15l361-196q10-5 13.5-9.5T461 336v-19q0-11-3.5-16T444 291L83 96q-22-12-22 14v26q0 17 4 22t15 11l295 155v3L81 481q-12 6-16 11t-4 22v28 0z" /><glyph glyph-name="question" unicode="?" horiz-adv-x="558" d="M32 575q14 36 36 66.5t52.5 52 71.5 34 94 12.5q57 0 101-16.5t74.5-44.5 46.5-65.5 16-79.5q0-53-14-89.5t-36-62-48.5-43T374 306q-17-12-33-24.5t-28.5-28-20-35T285 174q0-11-4-15t-15-4h-23q-11 0-15 4t-4 15q0 38 9 65.5t24.5 48 35 36T333 353q22 15 43.5 30t38.5 35.5 27.5 47.5 10.5 65q0 30-11 56.5t-32.5 46-53 30.5-72.5 11q-78 0-121-34t-65-89q-5-11-9.5-13.5T73 540l-29 9q-19 7-12 26zM258 80q23 0 31-8.5t8-31.5v-6q0-23-8-31.5T258-6h-6q-23 0-31.5 8.5T212 34v6q0 23 8.5 31.5T252 80h6z" /><glyph glyph-name="at" unicode="@" horiz-adv-x="901" d="M48 328q0 91 26.5 164T152 616.5 277.5 696 448 724q98 0 173-28.5T746.5 615 823 490t26-162v-72q0-53-14-92.5t-38-66T741.5 58 676 45q-31 0-45.5 10.5T605 86q-23-10-69.5-23T422 50q-89 0-131 43.5T249 215v153q0 78 42 121.5T422 533q61 0 107-9.5t71-20.5q20-8 27-17.5t7-29.5V136q0-23 12.5-31.5T676 96q22 0 43.5 8.5T758 132t27 49.5 10 73.5v73q0 79-22.5 143.5t-66 110-108.5 70T448 676q-82 0-146.5-24T193 583t-67.5-109.5T102 328v-73q0-165 90.5-251.5T448-83q37 0 72.5 3.5t65 8.5 50 9 27.5 6q11 3 11-7v-27q0-8-2.5-10.5T663-105q-5-2-23-6t-46-9-65-8.5-81-3.5q-96 0-170.5 26T152-30.5t-77.5 122T48 256v72zM559 461q-20 7-54 13t-76 6q-64 0-93-29.5T307 366V216q0-55 29-83.5t93-28.5q60 0 97.5 12.5T576 135v302q0 10-3.5 14.5T559 461z" /><glyph glyph-name="A" unicode="A" horiz-adv-x="641" d="M629 19q8-19-14-19h-29q-18 0-25.5 3.5T550 18l-75 190H162L87 18Q84 7 77 3.5T52 0H25Q4 0 12 19l268 677q4 11 9 14t16 3h30q11 0 16.5-3t9.5-13zM335 575q-9 26-11.5 46.5T321 644h-5q0-2-2-22.5T304 575L183 268h272z" /><glyph glyph-name="B" unicode="B" horiz-adv-x="643" d="M380 710q92 0 142.5-46.5T573 528q0-119-94-160v-2q57-15 88-59t31-116q0-93-56.5-142T391 0H98Q78 0 78 20v670q0 20 20 20h282zM499 519q0 62-32.5 92.5T371 642H150V394h221q62 0 95 31t33 94zm23-321q0 64-34.5 97.5T388 329H150V68h238q65 0 99.5 32.5T522 198z" /><glyph glyph-name="C" unicode="C" horiz-adv-x="636" d="M57 473q0 118 69.5 184.5T331 724q115 0 177.5-43.5T597 553q4-11 1.5-16.5T585 527l-31-11q-11-3-16-1t-10 13q-20 65-65.5 97T331 657q-1e2.0-150.5-48T130 474V236q0-86 51-134.5T331 53q88 0 133.5 33.5T530 185q5 11 10 13.5t16-.5l31-12q10-4 13-9t-1-16q-26-84-88.5-129.5T331-14q-133 0-203.5 66.5T57 237v236 0z" /><glyph glyph-name="D" unicode="D" horiz-adv-x="653" d="M309 710q70 0 124-18.5t91-52.5 56-83 19-110V264q0-61-19-110t-56-83-91-52.5T309 0H98Q78 0 78 20v670q0 20 20 20h211zM526 446q0 94-55.5 145T309 642H150V68h159q106 0 161.5 51T526 264v182z" /><glyph glyph-name="E" unicode="E" horiz-adv-x="573" d="M503 710q19 0 19-20v-28q0-20-19-20H150V394h308q19 0 19-20v-28q0-20-19-20H150V68h366q19 0 19-20V20q0-20-19-20H98Q78 0 78 20v670q0 20 20 20h405v0z" /><glyph glyph-name="F" unicode="F" horiz-adv-x="555" d="M503 710q19 0 19-20v-28q0-20-19-20H150V383h304q11 0 15-4t4-15v-28q0-20-19-20H150V20q0-11-4-15.5T131 0H98Q78 0 78 20v670q0 20 20 20h405v0z" /><glyph glyph-name="G" unicode="G" horiz-adv-x="655" d="M586 368q20 0 20-20V225q0-54-18-98t-52.5-75.5T450 3 332-14q-135 0-205 67T57 238v235q0 118 69.5 184.5T331 724q115 0 177.5-43.5T597 553q4-11 1.5-16.5T585 527l-31-11q-11-3-16-1t-10 13q-20 65-65.5 97T331 657q-1e2.0-151-48t-51-135V238q0-88 51.5-136.5T332 53q99 0 151 47t52 125v75H342q-20 0-20 20v28q0 20 20 20h244v0z" /><glyph glyph-name="H" unicode="H" horiz-adv-x="681" d="M584 710q19 0 19-20V20q0-20-19-20h-33q-20 0-20 20v306H150V20q0-11-4-15.5T131 0H98Q78 0 78 20v670q0 20 20 20h33q11 0 15-4.5t4-15.5V394h381v296q0 20 20 20h33v0z" /><glyph glyph-name="I" unicode="I" horiz-adv-x="228" d="M78 690q0 20 20 20h33q11 0 15-4.5t4-15.5V20q0-11-4-15.5T131 0H98Q78 0 78 20v670 0z" /><glyph glyph-name="J" unicode="J" horiz-adv-x="570" d="M478 710q20 0 20-19V223q0-111-62-174.5T256-15Q154-15 97.5 34.5T20 172q-7 19 12 26l32 11q18 7 25-13 15-69 53.5-106T256 53q84 0 126.5 44.5T425 222v469q0 11 4 15t15 4h34v0z" /><glyph glyph-name="K" unicode="K" horiz-adv-x="609" d="M589 20q5-8 2.5-14T578 0h-32q-19 0-26.5 3.5T506 18L395 240q-23 46-53.5 66.5T252 327H150V20q0-11-4-15.5T131 0H98Q78 0 78 20v670q0 20 20 20h33q11 0 15-4.5t4-15.5V393h96 22l224 3e2q8 11 15.5 14t24.5 3h36q11 0 13.5-5.5T578 691L341 379q43-12 70.5-39.5T462 267L589 20v0z" /><glyph glyph-name="L" unicode="L" horiz-adv-x="521" d="M131 710q11 0 15-4.5t4-15.5V68h339q19 0 19-20V20q0-20-19-20H98Q78 0 78 20v670q0 20 20 20h33v0z" /><glyph glyph-name="M" unicode="M" horiz-adv-x="800" d="M703 710q20 0 20-20V20q0-20-20-20h-30q-20 0-20 20l1 408q0 41 2.5 85t9.5 92h-4q-19-45-37.5-81.5T585 449L433 181q-5-9-9.5-12t-13.5-3h-20q-9 0-14 2.5T366 181L212 452q-22 37-38.5 72.5T139 606h-4q6-50 8.5-93t2.5-86V20q0-20-20-20H98Q78 0 78 20v670q0 20 20 20h26q12 0 17.5-3.5T152 694l248-439 246 438q6 11 11 14t17 3h29v0z" /><glyph glyph-name="N" unicode="N" horiz-adv-x="691" d="M593 710q20 0 20-20V20q0-20-20-20h-32q-8 0-12.5 2t-8.5 9L221 469q-14 21-26 42.5t-22 41-18 35.5-14 24h-4q0-11 1.5-29.5t4-42 4-50.5 1.5-55V20q0-20-19-20H98Q78 0 78 20v670q0 20 20 20h32q9 0 13.5-2.5t7.5-7.5l311-449q15-23 28.5-46t24.5-43 20-36.5 16-25.5h3q0 12-2 31.5t-4 44-4 52.5-2 58v405q0 19 20 19h31v0z" /><glyph glyph-name="O" unicode="O" horiz-adv-x="663" d="M57 473q0 118 70 184.5T332 724q134 0 204-66.5T606 473V237q0-118-70-184.5T332-14q-135 0-205 66.5T57 237v236zm477 0q0 88-51.5 136T332 657q-1e2.0-151.5-48T129 473V237q0-88 51.5-136T332 53q99 0 150.5 48T534 237v236z" /><glyph glyph-name="P" unicode="P" horiz-adv-x="622" d="M365 710q105 0 165.5-58.5T591 488t-60.5-163T365 267H150V20q0-11-4-15.5T131 0H98Q78 0 78 20v670q0 20 20 20h267zm-6-376q73 0 115 40.5T516 488t-42 113.5T359 642H150V334h209z" /><glyph glyph-name="Q" unicode="Q" horiz-adv-x="675" d="M617-15q7-8 6.5-14T615-43l-22-18q-15-14-28 2l-72 85q-61-40-161-40-135 0-205 66.5T57 237v236q0 118 70 184.5T332 724q134 0 204-66.5T606 473V237q0-105-58-171zM129 237q0-88 51.5-136T332 53q99 0 150.5 48T534 237v236q0 88-51.5 136T332 657q-1e2.0-151.5-48T129 473V237z" /><glyph glyph-name="R" unicode="R" horiz-adv-x="644" d="M381 710q99 0 154.5-54T591 503q0-84-43-134t-118-62q23-11 37.5-27.5T495 238L607 20q5-8 3-14t-13-6h-33q-18 0-26 3.5T525 18l-97 193q-23 46-53.5 66.5T285 298H150V20q0-11-4-15.5T131 0H98Q78 0 78 20v670q0 20 20 20h283zM516 503q0 67-36.5 103T374 642H150V366h224q67 0 104.5 35.5T516 503z" /><glyph glyph-name="S" unicode="S" horiz-adv-x="626" d="M52 519q0 46 17 84t50 65 81 41.5T310 724q103 0 164-37.5T573 570q5-10 2.5-15.5T562 544l-31-14q-10-5-15-3t-11 12q-29 58-74 87t-121 29q-89 0-136.5-34T126 523q0-39 17.5-62.5t46.5-37 66-20.5 77-11q45-5 90-14t80.5-29.5 58-56.5 22.5-96q0-99-69-154.5T312-14q-109 0-173 42.5T41 158q-4 11-1.5 16.5T53 185l31 11q11 4 16 1.5t10-13.5q28-66 77.5-98T312 54q199 0 199 140 0 38-16.5 61.5t-43.5 37-62 19.5-73 10q-47 5-94 14t-84.5 29T76 421.5 52 519z" /><glyph glyph-name="T" unicode="T" horiz-adv-x="543" d="M510 710q20 0 20-20v-28q0-20-20-20H308V20q0-20-20-20h-33q-20 0-20 20v622H33q-20 0-20 20v28q0 20 20 20h477v0z" /><glyph glyph-name="U" unicode="U" horiz-adv-x="682" d="M145 241q0-87 48.5-137.5T341 53t147.5 50.5T537 241v449q0 20 20 20h33q20 0 20-20V242q0-59-17-106t-50.5-81-84-52T341-15 223.5 3t-84 52T89 136 72 242v448q0 20 20 20h33q20 0 20-20V241v0z" /><glyph glyph-name="V" unicode="V" horiz-adv-x="622" d="M597 710q19 0 13-19L352 17q-7-17-26-17h-30q-19 0-26 16L13 691q-8 19 13 19h29q18 0 25-3.5T91 692l196-525q8-24 14.5-48t9.5-32h3q3 8 9 31.5t14 48.5l196 525q3 11 10.5 14.5T568 710h29v0z" /><glyph glyph-name="W" unicode="W" horiz-adv-x="881" d="M844 710q11 0 13.5-4.5T857 691L679 17q-3-11-9-14t-17-3h-31q-11 0-17.5 3T596 16L463 5e2q-6 23-11 48.5t-9 49.5h-4q-3-24-8.5-49T419 501L284 17q-3-11-8.5-14T259 0h-32q-11 0-17 3t-8 13L23 691q-2 10 0 14.5t13 4.5h40q13 0 18.5-3.5T103 692l122-483q3-11 5.5-26.5T235 152t4-28.5 4-21.5h4q1 9 3.5 22t5 28 6 30 6.5 27l133 472q3 11 9.5 14.5T428 699h31q11 0 17.5-3.5T486 681l131-473q8-26 13.5-57.5T639 102h4q1 7 3 20t4.5 28l5 30t5.5 27l122 485q2 11 8 14.5t18 3.5h35v0z" /><glyph glyph-name="X" unicode="X" horiz-adv-x="617" d="M6e2 21q6-8 4-14.5T590 0h-40q-17 0-24 2.5T512 18L306 305 103 18Q95 6 88.5 3T65 0H27Q16 0 14 6.5T18 21l244 340L25 691q-5 8-2.5 13.5T35 710h40q17 0 23.5-3t14.5-14l196-275 197 275q8 11 14 14t22 3h40q10 0 12.5-5.5T592 691L354 361 6e2 21v0z" /><glyph glyph-name="Y" unicode="Y" horiz-adv-x="627" d="M601 710q11 0 13-6t-3-14L350 288V20q0-20-20-20h-33q-20 0-20 20v269L16 690q-5 8-3 14t13 6h41q17 0 24-2.5t14-15.5l209-329 211 329q7 13 14 15.5t24 2.5h38v0z" /><glyph glyph-name="Z" unicode="Z" horiz-adv-x="566" d="M506 710q20 0 20-20v-27q0-8-1.5-12.5T519 641L123 68h393q20 0 20-19V20q0-20-20-20H52Q33 0 33 20v27q0 8 1 13t6 10l395 572H57q-20 0-20 20v28q0 20 20 20h449v0z" /><glyph glyph-name="bracketleft" unicode="[" horiz-adv-x="272" d="M239 856q11 0 14-3.5t3-14.5v-25q0-11-3-14.5t-14-3.5H132V-85h107q11 0 14-3t3-14v-26q0-11-3-14.5t-14-3.5H85q-11 0-14.5 3.5T67-128v966q0 11 3.5 14.5T85 856h154v0z" /><glyph glyph-name="backslash" unicode="\" horiz-adv-x="408" d="M32 693q-6 17 12 17h34q11 0 15.5-3.5T102 693L376-43q3-9 1-13t-13-4h-34q-11 0-15.5 3.5T306-43L32 693v0z" /><glyph glyph-name="bracketright" unicode="]" horiz-adv-x="272" d="M187 856q11 0 14.5-3.5T205 838v-966q0-11-3.5-14.5T187-146H34q-11 0-14.5 3.5T16-128v26q0 11 3.5 14T34-85h106v880H34q-11 0-14.5 3.5T16 813v25q0 11 3.5 14.5T34 856h153v0z" /><glyph glyph-name="asciicircum" unicode="^" horiz-adv-x="592" d="M304 810q11 0 14.5-4l10.5-12 208-252q19-22-10-22h-30q-17 0-22.5 2.5T461 536L296 741h-4L128 536q-8-11-14-13.5T92 520H64q-27 0-10 22l206 252q7 8 12 12t13 4h19v0z" /><glyph glyph-name="underscore" unicode="_" horiz-adv-x="506" d="M459 0q20 0 20-20v-25q0-20-20-20H46q-19 0-19 20v25Q27 0 46 0h413v0z" /><glyph glyph-name="grave" unicode="`" horiz-adv-x="257" d="M40 724q8 9 16 7.5t17-6.5l162-1e2q8-5 8-8.5t-6-11.5l-10-12q-7-8-23-1L28 685q-10 4-10 8.5t7 12.5l15 18v0z" /><glyph glyph-name="a" unicode="a" horiz-adv-x="512" d="M54 424q26 50 75.5 77.5T255 529q60 0 98.5-16t61-43 31.5-63 9-76V69q0-26-7.5-37T419 12Q391 0 350.5-7T253-14q-65 0-107 10T80 26 46.5 74.5 37 141q0 43 12.5 72.5t39 48 68 26.5 100.5 8q45 0 81-4t50-6v46q0 29-6 54t-21 43.5-41 29-67 10.5q-53 0-86.5-19T113 396q-6-8-10.5-10.5T88 388l-24 10q-19 7-10 26zM388 231q-8 1-22 2.5t-32.5 3-40 2.5-43.5 1q-81 0-112.5-23.5T106 142q0-24 5.5-42.5t21.5-31T176.5 49t71.5-7q42 0 71 4t50 12q11 5 15 10t4 19v144z" /><glyph glyph-name="b" unicode="b" horiz-adv-x="537" d="M114 740q10 0 14-3.5t4-14.5V498q20 7 61.5 19t96.5 12q103 0 150-51.5T487 333V191q0-1e2-52.5-152.5T272-14q-57 0-1e2 9t-69 21Q79 27 71.5 36.5T64 71v651q0 11 4 14.5t14 3.5h32zM420 331q0 66-34 101t-105 35q-51 0-91-12t-58-20V93q0-12 2.5-16.5T150 67q20-8 50-14t67-6q79 0 116 36.5T420 192v139z" /><glyph glyph-name="c" unicode="c" horiz-adv-x="515" d="M49 332q0 91 53.5 144T267 529q92 0 141-36.5t68-98.5q4-11 1-16.5t-13-9.5l-26-9q-11-4-16-1t-9 13q-16 50-49.5 74T265 469q-75 0-112-36t-37-99V181q0-63 37.5-99.5T265 45q63 0 98 26t51 77q5 11 10 13t16-1l26-8q10-4 13.5-9.5T478 126q-23-69-74-104.5T263-14q-108 0-161 52.5T49 183v149 0z" /><glyph glyph-name="d" unicode="d" horiz-adv-x="537" d="M50 329q0 95 48 147.5T247 529q56 0 97-11t61-18v222q0 11 4 14.5t14 3.5h31q11 0 14.5-3.5T472 722V70q0-24-7.5-34T433 16Q404 4 362-5t-102-9q-109 0-159.5 51.5T50 186v143zM405 437q-17 7-55 18.5T259 467q-74 0-108-35.5T117 327V187q0-140 149-140 38 0 68.5 5.5T386 66q13 5 16 10t3 16v345z" /><glyph glyph-name="e" unicode="e" horiz-adv-x="530" d="M47 318q0 1e2 56 155.5T268 529q56 0 98-15.5t69.5-43 41-65.5 13.5-83v-55q0-13-6.5-20.5T460 239H114v-58q0-64 37.5-100.5T264 44q62 0 99 22.5t58 60.5q7 9 13 10.5t16-3.5l21-11q19-10 7-29-26-47-77-77.5T264-14q-56 0-97 14.5T99.5 42 60 106t-13 82v130zm376 8q0 67-38.5 106T268 471q-77 0-115.5-39T114 326v-35h309v35z" /><glyph glyph-name="f" unicode="f" horiz-adv-x="353" d="M325 740q11 0 14.5-3.5T343 722v-26q0-11-3.5-15t-14.5-4q-41 0-68-6.5T213 648t-24-42.5-7-66.5v-25h145q11 0 14.5-3.5T345 496v-26q0-10-3.5-14t-14.5-4H182V18q0-11-3.5-14.5T164 0h-31q-10 0-14 3.5T115 18v434H26q-11 0-14.5 4T8 470v26q0 11 3.5 14.5T26 514h89v25q0 54 11.5 91.5T162 692t62.5 35.5T317 740h8v0z" /><glyph glyph-name="g" unicode="g" horiz-adv-x="536" d="M49 324q0 1e2 52.5 152.5T265 529q56 0 99-9.5t70-20.5q12-5 19.5-9.5T465 479t5.5-14.5T472 444V-31q0-49-11.5-88.5t-37-68-65.5-44-97-15.5q-80 0-126.5 30T63-140q-13 19 7 30l22 11q11 6 17 4t12-11q20-36 50.5-58t87.5-22q78 0 112 40t34 112v62q-20-8-62-19T247-2Q144-2 96.5 49.5T49 193v131zM386 448q-20 8-50 13.5t-67 5.5q-78 0-115-36t-37-108V195q0-66 33.5-100.5T255 60q54 0 93 11t57 18v333q0 12-3 16.5t-16 9.5z" /><glyph glyph-name="h" unicode="h" horiz-adv-x="551" d="M116 740q11 0 14.5-3.5T134 722V501q23 11 63.5 19.5T291 529q103 0 151-51t48-145V18q0-11-4-14.5T472 0h-32q-10 0-14 3.5T422 18v313q0 66-34 101t-106 35q-47 0-85.5-8.5T134 438V18q0-11-3.5-14.5T116 0H85Q74 0 70.5 3.5T67 18v704q0 11 3.5 14.5T85 740h31v0z" /><glyph glyph-name="i" unicode="i" horiz-adv-x="200" d="M103 698q21 0 29-8t8-29v-7q0-21-8-29t-29-8h-6q-21 0-29 8t-8 29v7q0 21 8 29t29 8h6zm13-184q10 0 14-3.5t4-14.5V18q0-11-4-14.5T116 0H84Q74 0 70 3.5T66 18v478q0 11 4 14.5t14 3.5h32z" /><glyph glyph-name="j" unicode="j" horiz-adv-x="201" d="M103 698q22 0 30-8t8-29v-7q0-21-8-29t-30-8h-5q-22 0-30 8t-8 29v7q0 21 8 29t30 8h5zm13-184q11 0 14.5-3.5T134 496V-9q0-53-11-94t-36-69-64.5-43-96.5-15q-11 0-14.5 3.5T-92-212v26q0 11 3.5 15t14.5 4q41 0 68 11t43.5 31 23 49.5T67-8v504q0 11 3.5 14.5T85 514h31z" /><glyph glyph-name="k" unicode="k" horiz-adv-x="507" d="M483 21q5-11 3.5-16T472 0h-30q-15 0-20.5 3T411 16l-76 156q-15 32-37 46.5T238 233H134V19q0-11-4-15t-15-4H86Q75 0 71 4t-4 15v703q0 11 4 14.5t15 3.5h29q11 0 15-3.5t4-14.5V295h96 9l161 205q8 11 14 12.5t21 1.5h28q27 0 12-21L306 282q31-8 50.5-28t36.5-53l90-180v0z" /><glyph glyph-name="l" unicode="l" horiz-adv-x="207" d="M137 18q0-11-3.5-14.5T119 0H88Q77 0 73.5 3.5T70 18v704q0 11 3.5 14.5T88 740h31q11 0 14.5-3.5T137 722V18v0z" /><glyph glyph-name="m" unicode="m" horiz-adv-x="817" d="M391 486q8 4 24 11t38.5 14 52.5 12.5 66 5.5q96 0 139.5-48.5T755 339V18q0-11-3.5-14.5T737 0h-31q-11 0-14.5 3.5T688 18v318q0 131-124 131-51 0-86.5-13T428 433q19-37 19-94V18q0-11-3.5-14.5T429 0h-31q-11 0-14.5 3.5T380 18v318q0 131-127 131-34 0-58-5t-47-15q-11-5-13.5-12t-2.5-15V18q0-11-4-14.5T114 0H82Q72 0 68 3.5T64 18v422q0 23 7.5 35t30.5 22q27 12 65 22t95 10q84 0 129-43z" /><glyph glyph-name="n" unicode="n" d="M102 495q29 12 73.5 23T288 529q104 0 151.5-51.5T487 333V18q0-11-4-14.5T469 0h-31q-11 0-14.5 3.5T420 18v313q0 68-34 102t-106 34q-43 0-76.5-7T147 445q-10-5-12.5-11t-2.5-14V18q0-11-4-14.5T114 0H82Q72 0 68 3.5T64 18v422q0 23 7.5 34t30.5 21z" /><glyph glyph-name="o" unicode="o" horiz-adv-x="539" d="M50 345q0 86 58 135t161 49q104 0 162.5-49T490 345V169q0-86-58.5-134.5T269-14q-103 0-161 48.5T50 169v176zm372 0q0 58-41 90.5T269 468q-69 0-110.5-32.5T117 345V169q0-57 41.5-89.5T269 47q71 0 112 32.5t41 89.5v176z" /><glyph glyph-name="p" unicode="p" horiz-adv-x="537" d="M104 5e2q29 11 71.5 20t103.5 9q108 0 158-51.5T487 329V185q0-96-49.5-147.5T282-14q-52 0-91.5 13T132 20v-222q0-11-4-14.5t-14-3.5H82q-10 0-14 3.5T64-202v646q0 25 8 35.5t32 20.5zM420 327q0 140-149 140-39 0-69-5.5T151 448q-13-5-16-10t-3-17V82q9-4 23.5-10t33-11.5 41-9.5 47.5-4q75 0 109 35.5T420 187v140z" /><glyph glyph-name="q" unicode="q" horiz-adv-x="537" d="M265 529q57 0 1e2-9.5t69-20.5q12-5 19.5-9.5T465 479t5.5-14.5T472 444v-646q0-11-3.5-14.5T454-220h-31q-10 0-14 3.5t-4 14.5V21q-10-4-26-10T343-.5 298.5-10 247-14Q145-14 97.5 37.5T50 181v143q0 1e2 52.5 152.5T265 529zM117 182q0-65 34-1e2t105-35q25 0 48.5 4t42.5 9.5T381 72t24 10v339q0 12-3 17t-17 10q-20 8-49 13.5t-67 5.5q-78 0-115-36t-37-108V182z" /><glyph glyph-name="r" unicode="r" horiz-adv-x="342" d="M314 529q11 0 14.5-4t3.5-14v-26q0-10-3.5-14t-14.5-4h-33q-43 0-76-6.5T149 446q-12-5-14.5-11.5T132 420V18q0-11-4-14.5T114 0H82Q72 0 68 3.5T64 18v424q0 23 7.5 34.5T102 498q28 11 71.5 20T283 529h31z" /><glyph glyph-name="s" unicode="s" horiz-adv-x="496" d="M46 379q0 69 49 109.5T243 529q86 0 134-30t70-79q10-18-9-26l-25-11q-11-5-15.5-2.5T388 392q-8 17-19 31t-28 24-40.5 15.5T244 468q-131 0-131-87 0-30 11-47t31.5-26.5 48-13.5 60.5-7q41-4 76.5-11.5t62-23.5 41.5-43 15-70q0-70-50.5-111.5T254-14q-83 0-137 29.5T38 110q-8 18 11 24l26 9q9 3 14 1t10-12q18-48 56-67.5T252 45q72 0 106.5 23.5T393 136q0 27-10.5 43T353 205t-45.5 15-59.5 8q-38 4-74 10t-64.5 21.5-46 43.5T46 379z" /><glyph glyph-name="t" unicode="t" horiz-adv-x="359" d="M167 634q11 0 14.5-3.5T185 616V514h145q10 0 14-3.5t4-14.5v-26q0-18-18-18H185V192q0-45 7-72.5t24-43 44-21 68-5.5q11 0 14.5-4t3.5-15V4q0-11-3.5-14.5T328-14q-58-1-98 8t-65 32.5T129 90t-11 1e2v262H23q-18 0-18 18v26q0 11 4 14.5t14 3.5h95v102q0 11 4 14.5t14 3.5h31v0z" /><glyph glyph-name="u" unicode="u" d="M467 514q9 0 13.5-3.5T485 496V74q0-23-7.5-34T447 19Q418 7 373.5-3.5T260-14q-103 0-150.5 51T62 181v315q0 11 3.5 14.5T80 514h31q11 0 14.5-3.5T129 496V184q0-68 33.5-102.5T269 47q43 0 75 6.5T399 69q12 5 15 11.5t3 16.5v399q0 11 4 14.5t14 3.5h32v0z" /><glyph glyph-name="v" unicode="v" horiz-adv-x="504" d="M473 514q13 0 16-4t-2-16L287 14Q282 4 277.5.5T262-3h-19q-19 0-26 17L17 493q-5 13-2 17t17 4h23q16 0 21.5-3.5T86 496l137-330q10-26 17-51.5T251 79h3q4 9 10.5 34.5T281 165l136 331q4 11 9.5 14.5T449 514h24v0z" /><glyph glyph-name="w" unicode="w" horiz-adv-x="731" d="M692 514q14 0 16.5-4.5T707 493L559 13q-4-16-24-16h-21q-20 0-25 16L386 340q-8 27-12.5 51t-7.5 34h-3q-3-10-7.5-34T343 340L240 13q-3-10-8-13t-16-3h-21q-10 0-15.5 3T171 13L24 493q-4 12-1.5 16.5T39 514h23q16 0 22.5-3.5T93 496l91-310q4-14 7-29.5t6-30 5-26.5 4-18h3q2 6 4.5 18t5.5 26.5 7 30.5 8 30l96 298q3 11 8 14.5t21 3.5h15q15 0 20-3.5t9-14.5l95-295q10-32 15.5-63.5T524 82h3q4 12 9 43t14 63l90 308q3 12 9 15t23 3h20v0z" /><glyph glyph-name="x" unicode="x" horiz-adv-x="487" d="M445 514q26 0 12-20L286 264 468 20q14-20-13-20h-30q-14 0-19.5 2.5T393 15L243 216 94 15Q88 5 82 2.5T62 0H34Q18 0 15.5 5T21 20l182 244L29 494q-6 9-4 14.5t18 5.5h28q14 0 20-2.5t13-12.5l140-186 140 186q7 10 12 12.5t19 2.5h30v0z" /><glyph glyph-name="y" unicode="y" horiz-adv-x="551" d="M467 514q10 0 14-3.5t4-14.5V-31q0-49-12-88.5t-37.5-68-66-44T272-247q-80 0-127 30t-72 77q-12 20 7 30l22 11q11 6 17 4t12-11q20-36 51.5-58t88.5-22q77 0 111.5 40T417-34v59q-26-8-63-17t-94-9Q157-1 109.5 50T62 194v302q0 11 3.5 14.5T80 514h31q11 0 14.5-3.5T129 496V197q0-68 33.5-102.5T269 60q51 0 88 9.5T417 87v409q0 11 4 14.5t14 3.5h32v0z" /><glyph glyph-name="z" unicode="z" horiz-adv-x="455" d="M407 61q10 0 14-3.5t4-14.5V18q0-11-4-14.5T407 0H49Q38 0 34.5 3.5T31 18v25q0 8 .5 11t5.5 9l297 390H52q-17 0-17 18v25q0 11 3.5 14.5T52 514h350q11 0 14.5-3.5T420 496v-25q0-7-1-11t-6-10L116 61h291v0z" /><glyph glyph-name="braceleft" unicode="{" horiz-adv-x="320" d="M288 856q10 0 14-3.5t4-14.5v-26q0-18-18-18h-45q-35 0-50-17.5T178 724V475q0-92-68-121 37-14 52.5-44t15.5-78V-15q0-35 15-52.5T243-85h45q18 0 18-18v-26q0-11-4-14.5t-14-3.5h-46q-71 0-1e2 31t-29 97v242q0 45-17.5 70.5T31 319H21q-15 0-15 18v33q0 18 15 18h10q47 0 64.5 25.5T113 484v243q0 66 28.5 97.5T241 856h47v0z" /><glyph glyph-name="bar" unicode="|" horiz-adv-x="199" d="M113 856q11 0 14.5-3.5T131 838v-967q0-11-3.5-14.5T113-147H85q-10 0-14 3.5T67-129v967q0 11 4 14.5t14 3.5h28v0z" /><glyph glyph-name="braceright" unicode="}" horiz-adv-x="320" d="M79 856q71 0 99.5-31.5T207 727V484q0-45 17.5-70.5T289 388h10q15 0 15-18v-33q0-18-15-18h-10q-47 0-64.5-25.5T207 223V-19q0-66-29-97T78-147H32q-10 0-14 3.5T14-129v26q0 18 18 18h45q35 0 50 17.5T142-15v247q0 48 15.5 78t52.5 44q-68 29-68 121v249q0 35-15 52.5T77 794H32q-18 0-18 18v26q0 11 4 14.5t14 3.5h47v0z" /><glyph glyph-name="asciitilde" unicode="~" horiz-adv-x="560" d="M69 325q26 23 54 36t65 13q30 0 52.5-6.5t42.5-14 39.5-14T366 333q26 0 45.5 9.5T448 367q8 8 13 7.5t13-8.5l19-17q15-15 0-28-26-23-54.5-36T373 272q-30 0-52 6.5t-42 14-39.5 14T196 313q-26 0-45-9t-37-25q-8-8-13-7.5T88 280l-19 17q-8 8-8 14t8 14z" /><glyph glyph-name="exclamdown" unicode="&#xa1;" horiz-adv-x="196" d="M95 432q-23 0-31 8.5T56 472v6q0 23 8 31.5t31 8.5h6q23 0 31.5-8.5T141 478v-6q0-23-8.5-31.5T101 432h-6zM81-228q-18 0-18 18l8 536q1 18 18 18h18q11 0 14.5-4t3.5-14l9-536q0-18-18-18H81z" /><glyph glyph-name="cent" unicode="&#xa2;" horiz-adv-x="534" d="M472 152q10-4 13.5-9.5T484 126q-20-62-63-96.5T305-11v-55q0-11-4-14.5T287-84h-32q-10 0-14 3.5T237-66v54q-91 7-137 58.5T54 183v149q0 83 45 134.5T237 526v66q0 11 4 14.5t14 3.5h32q10 0 14-3.5t4-14.5v-66q77-6 118.5-41t58.5-91q4-11 1-16.5t-13-9.5l-26-9q-11-4-16-1t-10 13q-15 50-49 74t-99 24q-75 0-111.5-36T122 334V181q0-63 37.5-99.5T270 45q63 0 98.5 26t51.5 77q4 11 9 13t16-1l27-8v0z" /><glyph glyph-name="sterling" unicode="&#xa3;" horiz-adv-x="635" d="M138 533q0 39 13 73.5t39.5 61 67 41.5 96.5 15q89 0 144.5-36.5T583 570q4-11 1-16t-14-9l-30-11q-11-5-16-1.5T514 546q-24 62-61.5 86.5T356 657q-37 0-64-10t-44-27-25.5-40-8.5-50V370h257q20 0 20-20v-24q0-19-20-19H214V171q0-34-12-61.5T164 64v-3q23 2 56 4.5t73 2.5h268q20 0 20-20V20q0-20-20-20H58Q47 0 43 4.5T39 20v29q0 16 12 16h17q20 2 33.5 12t21.5 24.5 11.5 32.5 3.5 36v137H67q-11 0-15 4t-4 15v24q0 11 4 15.5t15 4.5h71v163 0z" /><glyph glyph-name="currency" unicode="&#xa4;" horiz-adv-x="601" d="M536 150q12-12 0-26l-22-21q-14-14-26 0l-54 53q-27-22-61.5-34.5T3e2 109q-37 0-71 12t-62 34l-53-54q-14-14-26 0l-22 22q-13 12 0 25l54 55q-22 27-34.5 61T73 336t12 72 34 61l-54 54q-12 14 0 26l22 22q12 12 25 0l54-54q28 22 62 34t72 12q76 0 133-45l53 54q14 12 26 0l22-22q12-13 0-25l-53-54q22-28 34-62.5t12-72.5q0-76-45-133zM3e2 501q-34 0-64-12.5t-52.5-35T148 401t-13-64q0-35 13-65t35.5-52.5T236 184t64-13q35 0 65 13t52.5 35.5 35 52.5 12.5 65q0 34-12.5 64t-35 52.5-52.5 35-65 12.5z" /><glyph glyph-name="yen" unicode="&#xa5;" horiz-adv-x="638" d="M597 710q11 0 13-6t-3-14L383 350h123q17 0 17-18v-18q0-18-17-18H355v-91h151q17 0 17-18v-18q0-18-17-18H355V20q0-20-19-20h-33q-20 0-20 20v131H131q-17 0-17 18v18q0 18 17 18h152v91H131q-17 0-17 18v18q0 18 17 18h126L32 690q-5 8-3 14t13 6h36q17 0 24-2.5t14-15.5l205-318 204 318q7 13 14 15.5t24 2.5h34v0z" /><glyph glyph-name="brokenbar" unicode="&#xa6;" horiz-adv-x="208" d="M118 856q10 0 14-3.5t4-14.5V449q0-11-4-14.5t-14-3.5H90q-11 0-14.5 3.5T72 449v389q0 11 3.5 14.5T90 856h28zm0-577q10 0 14-3.5t4-14.5v-389q0-11-4-14.5t-14-3.5H90q-11 0-14.5 3.5T72-128v389q0 11 3.5 14.5T90 279h28z" /><glyph glyph-name="section" unicode="&#xa7;" horiz-adv-x="596" d="M60 545q0 40 14 73.5t43 58 73 38.5 105 14q92 0 151-39.5T536 569q5-11 2.5-17T525 541l-28-13q-19-8-28 11-45 121-174 121-86 0-123.5-31T134 545q0-35 14.5-55.5t39-32 56-17T308 431q40-5 81-13t74-26.5 54-50.5 21-84q0-29-8.5-52T508 164t-29-31-30-22q21-8 38.5-20.5t30-30 20-42T545-38q0-40-15-74t-45.5-58.5-76.5-38T3e2-222q-94 0-157 41.5T51-56q-7 19 13 26l29 10q11 5 16.5 2t9.5-15q22-63 67.5-92T3e2-154q90 0 131.5 31T473-39q0 35-15 55.5t-39.5 32T362 65t-66 8q-42 4-85.5 11T132 108.5 75 158t-22 87q0 32 10 56.5T88 344t33.5 31 35.5 21q-42 17-69.5 51T60 545zM293 363q-18 2-35.5 4t-34.5 6q-9-3-25-11t-32-21.5-27.5-35T127 254q0-35 15-55.5t39.5-32.5 57-17 67.5-8q19-2 37.5-4t36.5-5q8 4 22 12.5t28 23 24.5 35T465 251q0 32-14.5 52T412 335t-55 18-64 10z" /><glyph glyph-name="dieresis" unicode="&#xa8;" horiz-adv-x="439" d="M122 687q20 0 26.5-7t6.5-25v-8q0-19-6.5-26t-26.5-7h-6q-19 0-25.5 7T84 647v8q0 18 6.5 25t25.5 7h6zm194 0q19 0 26-7t7-25v-8q0-19-7-26t-26-7h-6q-19 0-26 7t-7 26v8q0 18 7 25t26 7h6z" /><glyph glyph-name="copyright" unicode="&#xa9;" horiz-adv-x="807" d="M45 351q0 76 28 141.5t76.5 114 114 76T405 710q75 0 140-27.5t113.5-76 76-114T762 351t-27.5-141.5-76-114-113.5-76T405-8q-76 0-141.5 28t-114 76.5-76.5 114T45 351zm669 0q0 66-24 123t-65.5 98.5-98 65.5T405 662q-66 0-123-24t-98.5-65.5T118 474 94 351t24-122.5 65.5-98.5T282 64t123-24q65 0 121.5 24t98 66 65.5 98.5T714 351zM246 405q0 66 39.5 104T401 547q66 0 101-25t49-73q5-15-8-19l-18-6q-14-6-18 9-11 37-34.5 53T401 502q-54 0-80.5-25T294 405V290q0-46 26.5-71.5T401 193q46 0 71 17.5t36 55.5q5 14 20 9l15-6q15-5 10-19-16-49-51.5-75.5T401 148q-75 0-115 38t-40 104v115z" /><glyph glyph-name="ordfeminine" unicode="&#xaa;" horiz-adv-x="368" d="M64 612q20 29 51.5 43.5T185 670q36 0 60-9t38.5-25.5 20.5-39 6-50.5V421q0-23-7-33t-25-18q-33-15-97-15-37 0-61.5 6T80 378.5 59 406t-6 37q0 22 6.5 39T81 511t40 18 62 6q27 0 46-1t28-3v19q0 36-15.5 55.5T184 625q-26 0-45-10.5T106 585q-8-7-19-3l-15 8q-11 5-12 10t4 12zM257 491q-10 2-29.5 3.5T180 496q-44 0-59.5-14T105 445q0-24 17-36t56-12q26 0 40.5 2.5T241 406q10 4 13 8.5t3 15.5v61z" /><glyph glyph-name="guillemotleft" unicode="&#xab;" horiz-adv-x="564" d="M282 97q11-11 0-23l-21-21q-12-11-24 0L39 251q-6 7-6 11.5t6 11.5l201 201q7 6 12 6.5t11-6.5l20-20q6-7 6.5-11.5T283 432L115 264zm229 0q11-11 0-23l-21-21q-12-11-24 0L268 251q-6 7-6 11.5t6 11.5l201 201q6 6 11 6.5t12-6.5l19-20q7-7 7-11.5t-7-11.5L344 264z" /><glyph glyph-name="logicalnot" unicode="&#xac;" horiz-adv-x="580" d="M498 389q10 0 14-3.5t4-14.5V158q0-11-4-14.5t-14-3.5h-32q-10 0-14 3.5t-4 14.5v168H81q-10 0-14 3.5T63 344v27q0 11 4 14.5t14 3.5h417v0z" /><glyph glyph-name="registered" unicode="&#xae;" horiz-adv-x="481" d="M47 516q0 40 15.5 75t42 61.5 62 42T242 710t75-15.5 61-42 41.5-61.5 15.5-75-15.5-75.5T378 379t-61-41.5-75-15.5-75.5 15.5-62 41.5-42 61.5T47 516zm33 0q0-34 12.5-63.5T127 401t52-35 64-13q33 0 62 13t51 35 34.5 51.5T403 516t-12.5 63.5T356 631t-51 34.5-62 12.5q-34 0-64-12.5T127 631t-34.5-51.5T80 516zM262 617q32 0 51-17t19-49q0-25-12-40.5T287 490l38-64q7-11-7-11h-14q-7 0-9 1.5t-4 5.5l-37 65h-61v-65q0-7-8-7h-14q-8 0-8 7v185q0 10 11 10h88zm-1-103q40 0 40 37t-40 37h-68v-74h68z" /><glyph glyph-name="macron" unicode="&#xaf;" horiz-adv-x="352" d="M293 676q10 0 13.5-3t3.5-14v-15q0-11-3.5-14t-13.5-3H57q-10 0-13.5 3T40 644v15q0 11 4 14t13 3h236v0z" /><glyph glyph-name="degree" unicode="&#xb0;" horiz-adv-x="387" d="M345 555q0-31-12-58.5T300.5 448t-48-33-58.5-12q-32 0-59.5 12t-48 32.5-32.5 48T42 555t12 59.5 32.5 48 48 32T194 706q31 0 59-11.5t48-32 32-48 12-59.5zM97 555q0-20 7.5-38t21-31 31-20.5T194 458t37.5 7.5 31 21 21 31T291 555t-7.5 37.5-21 30.5-31 20.5T194 651t-37.5-7.5-31-20.5-21-30.5T97 555z" /><glyph glyph-name="plusminus" unicode="&#xb1;" horiz-adv-x="638" d="M535 425q20 0 20-20v-19q0-20-20-20H350V254q0-20-20-20h-22q-20 0-20 20v112H103q-20 0-20 20v19q0 20 20 20h185v116q0 20 20 20h22q20 0 20-20V425h185zm0-244q20 0 20-20v-19q0-20-20-20H103q-20 0-20 20v19q0 20 20 20h432z" /><glyph glyph-name="uni00B2" unicode="&#xb2;" horiz-adv-x="355" d="M39 711l12 27t24 36 42 31 65 13q68 0 102-34.5t34-86.5q0-29-8.5-48.5t-24-33.5-37-23.5T201 573l-59-19q-24-9-37-24t-13-38v-25h204q11 0 14.5-4t3.5-14v-18q0-9-3.5-13t-14.5-4H56q-19 0-19 19v39q0 48 17.5 76.5T117 594l58 23q17 6 32 12t26.5 14 18.5 20.5 7 31.5q0 30-19.5 49.5T181 764q-27 0-43-10t-25.5-22.5T99 708t-5-14q-5-11-9.5-14T69 681l-17 5q-20 8-13 25z" /><glyph glyph-name="uni00B3" unicode="&#xb3;" horiz-adv-x="363" d="M36 712q17 54 53 80t99 26q61 0 94.5-30.5T316 706q0-29-10-51t-38-36q32-14 45.5-41t13.5-59q0-51-34.5-82T187 406q-66 0-101 27t-52 78q-4 11-1.5 16.5T44 536l18 6q10 3 15 .5T87 529q11-37 33-54t67-17q42 0 62.5 18.5T270 525q0 27-15.5 45.5T210 589h-60q-11 0-14 3.5t-3 14.5v15q0 13 3 16t15 3h55q29 0 42.5 17t13.5 42q0 31-19.5 49T188 767q-42 0-64.5-17T90 696q-5-13-11-16.5T60 681l-12 5q-9 4-12.5 9.5T36 712z" /><glyph glyph-name="acute" unicode="&#xb4;" horiz-adv-x="257" d="M190 725q10 5 18 6.5t16-7.5l15-18q7-8 7-12.5t-10-8.5L60 592q-16-7-24 1l-9 12q-6 8-6 11.5t8 8.5l161 1e2v0z" /><glyph glyph-name="mu" unicode="&#xb5;" horiz-adv-x="548" d="M468 514q10 0 14-3.5t4-14.5V74q0-23-7.5-34.5T448 18Q416 5 373.5-5T276-15q-106 0-146 69v-256q0-11-3.5-14.5T112-220H81q-10 0-14 3.5T63-202v698q0 11 4 14.5t14 3.5h31q11 0 14.5-3.5T130 496V183q0-137 140-137 43 0 75.5 7T401 68q12 5 15 12t3 16v4e2q0 11 3.5 14.5T437 514h31v0z" /><glyph glyph-name="paragraph" unicode="&#xb6;" horiz-adv-x="430" d="M339 710q11 0 14.5-3.5T357 692V-71q0-11-3.5-14.5T339-89h-27q-11 0-14.5 3.5T294-71v713h-54V-71q0-11-4-14.5T222-89h-27q-10 0-14 3.5T177-71v508q-60 2-96.5 39T44 573q0 62 38 99.5T182 710h157v0z" /><glyph glyph-name="periodcentered" unicode="&#xb7;" horiz-adv-x="212" d="M109 316q23 0 31-8.5t8-31.5v-7q0-23-8-31t-31-8h-6q-23 0-31.5 8T63 269v7q0 23 8.5 31.5T103 316h6v0z" /><glyph glyph-name="cedilla" unicode="&#xb8;" horiz-adv-x="251" d="M127-74q10 3 25 3 40 0 63.5-22t21.5-58q-3-51-37-73t-82-22q-24 0-45.5 5.5T38-227q-7 4-9.5 8T26-207v19q0 5 2.5 7.5t7.5-.5q13-9 29-16t45-7q34 0 51.5 15t17.5 41q0 42-60 42-20 0-33-4-18-2-11 17l36 93h42l-26-74v0z" /><glyph glyph-name="uni00B9" unicode="&#xb9;" horiz-adv-x="281" d="M204 810q11 0 15.5-4t4.5-15V434q0-20-20-20h-18q-20 0-20 20v304L56 677q-18-9-28 7l-8 14q-5 11-2.5 16.5T29 725l140 80q9 5 24 5h11v0z" /><glyph glyph-name="ordmasculine" unicode="&#xba;" horiz-adv-x="373" d="M53 550q0 56 33.5 88t99.5 32 1e2-32 34-88v-75q0-56-34-87.5T186 356t-99.5 31.5T53 475v75zm212 3q0 32-20 50t-59 18q-38 0-58-18t-20-50v-80q0-32 20-50t58-18q39 0 59 18t20 50v80z" /><glyph glyph-name="guillemotright" unicode="&#xbb;" horiz-adv-x="564" d="M281 432q-7 7-6.5 11.5T281 455l20 20q11 13 23 0l201-201q6-7 6-11.5t-6-11.5L327 53q-12-11-24 0l-21 21q-12 12 0 23l167 167zM52 432q-11 12 0 23l20 20q7 7 12 6.5t11-6.5l201-201q6-7 6-11.5t-6-11.5L98 53q-12-11-24 0L53 74q-11 12 0 23l167 167z" /><glyph glyph-name="onequarter" unicode="&#xbc;" horiz-adv-x="786" d="M217 714q20 0 20-20V337q0-19-20-19h-18q-20 0-20 19v305L69 581q-18-11-27 6l-8 15q-6 10-3.5 16T42 629l140 79q6 3 11 4.5t13 1.5h11zm456-4q11 0 13.5-5.5T683 691L189 18q-9-12-15.5-15T149 0h-23q-11 0-14 6t4 14l495 673q8 11 14 14t22 3h26zm5-314q11 0 14-3.5t3-14.5V151h40q11 0 14-3t3-13v-17q0-10-3-13t-14-3h-40V17q0-10-3-13.5T679 0h-23q-10 0-12.5 3.5T641 17v85H450q-10 0-13.5 3.5T433 120v13q0 8 1 12t5 9l189 231q5 8 10 9.5t15 1.5h25zM641 151v173L499 151h142z" /><glyph glyph-name="onehalf" unicode="&#xbd;" horiz-adv-x="841" d="M217 717q20 0 20-19V341q0-20-20-20h-18q-20 0-20 20v304L69 584q-18-10-28 7l-8 14q-5 11-2.5 16.5T41 632l141 79q5 4 10.5 5t13.5 1h11zm453-7q11 0 13.5-5.5T680 691L186 18q-9-12-15.5-15T146 0h-24q-11 0-13.5 6t4.5 14l494 673q8 11 14.5 14t22.5 3h26zM520 297q3 9 11 27t24 36 42 31 66 13q67 0 101.5-35t34.5-86q0-29-8.5-48.5t-24-33.5-37-23.5T682 159l-59-20q-24-8-37-23t-13-39V53h204q18 0 18-18V17q0-17-18-17H537q-20 0-20 19v39q0 48 17.5 76.5T597 180l59 23q17 6 32 12t26.5 14 18.5 20.5 7 31.5q0 29-19.5 49T662 350q-27 0-43.5-10T593 317.5t-13-24-5-14.5q-5-11-9.5-14t-15.5 1l-18 6q-20 6-12 25z" /><glyph glyph-name="threequarters" unicode="&#xbe;" horiz-adv-x="823" d="M43 619q17 54 52.5 80.5T194 726q62 0 95.5-31t33.5-82q0-29-10-50.5T275 527q32-15 45.5-42t13.5-59q0-51-34.5-81.5T194 314q-66 0-101 26.5T41 418q-4 11-1.5 16.5T51 443l18 6q10 3 15 .5T94 436q11-36 32.5-53.5T194 365q42 0 62.5 18.5T277 432q0 27-15.5 46T217 497h-60q-11 0-14.5 3t-3.5 14v16q0 12 3.5 15t15.5 3h55q29 0 42 17t13 43q0 30-19 48t-54 18q-42 0-65-17t-34-54q-5-13-10.5-16T67 589l-13 4q-18 7-11 26zm670 91q11 0 13.5-5.5T723 691L229 18q-9-12-15.5-15T189 0h-23q-11 0-14 6t4 14l495 673q8 11 14 14t22 3h26zm3-314q12 0 15-3.5t3-14.5V151h40q11 0 14-3t3-13v-17q0-10-3-13t-14-3h-40V17q0-10-3-13.5T718 0h-23q-10 0-13 3.5T679 17v85H489q-10 0-13.5 3.5T472 120v13q0 8 .5 12t5.5 9l188 231q6 8 11 9.5t15 1.5h24zm-37-72-141-173h141v173z" /><glyph glyph-name="questiondown" unicode="&#xbf;" horiz-adv-x="553" d="M298 432q-23 0-31 8.5t-8 31.5v6q0 23 8 31.5t31 8.5h6q23 0 31.5-8.5T344 478v-6q0-23-8.5-31.5T304 432h-6zM524-62q-14-36-36-66.5T435.5-181 364-215t-94-12q-57 0-101 16t-75 44-47 65.5T31-21q0 52 14.5 88.5t36.5 62 48.5 43T182 206q17 12 33 24.5t28.5 28 20 34.5 7.5 45q0 11 4 15t15 4h23q11 0 15-4t4-15q0-38-9-65.5t-24.5-48-35-36T223 159q-22-15-43.5-30T141 94t-27.5-47T103-18q0-30 11-56.5t32.5-46 53-31T272-163q39 0 68.5 9t52 25T431-90t27 50q5 11 9.5 14t15.5-1l28-10q11-4 14-9t-1-16z" /><glyph glyph-name="Agrave" unicode="&#xc0;" horiz-adv-x="641" d="M229 891q8 9 16.5 7.5T263 892l164-97q13-7 1-20l-9-11q-6-9-23-1l-179 89q-9 4-9.5 8.5T214 873zM629 19q8-19-14-19h-29q-18 0-25.5 3.5T550 18l-75 190H162L87 18Q84 7 77 3.5T52 0H25Q4 0 12 19l268 677q4 11 9 14t16 3h30q11 0 16.5-3t9.5-13zM335 575q-9 26-11.5 46.5T321 644h-5q0-2-2-22.5T304 575L183 268h272z" /><glyph glyph-name="Aacute" unicode="&#xc1;" horiz-adv-x="641" d="M378 898q9 5 17.5 6t16.5-8l15-18q7-8 6.5-12.5T424 857l-176-93q-9-3-14.5-3t-9.5 5l-9 11q-12 13 1 20zM629 19q8-19-14-19h-29q-18 0-25.5 3.5T550 18l-75 190H162L87 18Q84 7 77 3.5T52 0H25Q4 0 12 19l268 677q4 11 9 14t16 3h30q11 0 16.5-3t9.5-13zM335 575q-9 26-11.5 46.5T321 644h-5q0-2-2-22.5T304 575L183 268h272z" /><glyph glyph-name="Acircumflex" unicode="&#xc2;" horiz-adv-x="641" d="M326 901q11 0 16.5-2t17.5-14l122-108q5-5 4-9.5t-13-4.5h-27q-12 0-18 1.5t-12 8.5l-96 82-97-82q-8-7-13-8.5t-16-1.5h-26q-12 0-13 4.5t4 9.5l123 108q12 11 17.5 13.5T318 901h8zM629 19q8-19-14-19h-29q-18 0-25.5 3.5T550 18l-75 190H162L87 18Q84 7 77 3.5T52 0H25Q4 0 12 19l268 677q4 11 9 14t16 3h30q11 0 16.5-3t9.5-13zM335 575q-9 26-11.5 46.5T321 644h-5q0-2-2-22.5T304 575L183 268h272z" /><glyph glyph-name="Atilde" unicode="&#xc3;" horiz-adv-x="641" d="M460 882q12 0 12-12 0-1e2-78-1e2-26 0-44.5 10.5t-34.5 23-32 23-36 10.5-30-14.5-10-40.5q0-12-12-12h-20q-12 0-12 12 0 51 20 75.5t58 24.5q27 0 46-10.5t35-23 31.5-23T389 815t30 14.5 10 40.5q0 12 11 12h20zM629 19q8-19-14-19h-29q-18 0-25.5 3.5T550 18l-75 190H162L87 18Q84 7 77 3.5T52 0H25Q4 0 12 19l268 677q4 11 9 14t16 3h30q11 0 16.5-3t9.5-13zM335 575q-9 26-11.5 46.5T321 644h-5q0-2-2-22.5T304 575L183 268h272z" /><glyph glyph-name="Adieresis" unicode="&#xc4;" horiz-adv-x="641" d="M226 864q20 0 26.5-7t6.5-25v-8q0-19-6.5-25.5T226 792h-6q-19 0-26 6.5t-7 25.5v8q0 18 7 25t26 7h6zm194 0q19 0 26-7t7-25v-8q0-19-7-25.5t-26-6.5h-6q-19 0-26 6.5t-7 25.5v8q0 18 7 25t26 7h6zM629 19q8-19-14-19h-29q-18 0-25.5 3.5T550 18l-75 190H162L87 18Q84 7 77 3.5T52 0H25Q4 0 12 19l268 677q4 11 9 14t16 3h30q11 0 16.5-3t9.5-13zM335 575q-9 26-11.5 46.5T321 644h-5q0-2-2-22.5T304 575L183 268h272z" /><glyph glyph-name="Aring" unicode="&#xc5;" horiz-adv-x="641" d="M212 779q0 48 30 77t80 29q48 0 77.5-29t29.5-77q0-35-17-59.5T365 686L629 19q8-19-14-19h-29q-18 0-25.5 3.5T550 18l-75 190H162L87 18Q84 7 77 3.5T52 0H25Q4 0 12 19l264 668q-30 10-47 33.5T212 779zm175 0q0 29-18 47t-47 18q-32 0-50-18t-18-47 18-47 50-18q29 0 47 18t18 47zM335 575q-9 26-11.5 46.5T321 644h-5q0-2-2-22.5T304 575L183 268h272z" /><glyph glyph-name="AE" unicode="&#xc6;" horiz-adv-x="831" d="M774 68q19 0 19-20V20q0-20-19-20H442q-20 0-20 20v155H173L78 18Q73 8 66.5 4T42 0H11Q-10 0-2 19l414 674q7 10 11 13.5t15 3.5h323q20 0 20-20v-28q0-20-20-20H493V393h223q11 0 15-4.5t4-15.5v-28q0-11-4-15.5t-15-4.5H493V68h281zM209 235h213v354z" /><glyph glyph-name="Ccedilla" unicode="&#xc7;" horiz-adv-x="636" d="M587 186q10-4 13-9t-1-16q-13-41-33-72.5t-50.5-54T443-.5 345-14l-22-60q10 3 25 3 40 0 63.5-22t21.5-58q-3-51-37-73t-82-22q-24 0-45.5 5.5T234-227q-7 4-9.5 8t-2.5 12v19q0 5 2.5 7.5t7.5-.5q13-9 29-16t45-7q34 0 51.5 15t17.5 41q0 42-60 42-20 0-33-4-18-2-11 17l32 79Q183-6 120 60T57 237v236q0 118 69.5 184.5T331 724q115 0 177.5-43.5T597 553q4-11 1.5-16.5T585 527l-31-11q-11-3-16-1t-10 13q-20 65-65.5 97T331 657q-1e2.0-150.5-48T130 474V236q0-86 51-134.5T331 53q88 0 133.5 33.5T530 185q5 11 10 13.5t16-.5l31-12v0z" /><glyph glyph-name="Egrave" unicode="&#xc8;" horiz-adv-x="573" d="M209 891q8 9 16.5 7.5T243 892l164-97q13-6 2-20l-9-11q-5-5-10-5t-14 4l-179 89q-9 4-9 8.5t7 12.5zM503 710q19 0 19-20v-28q0-20-19-20H150V394h308q19 0 19-20v-28q0-20-19-20H150V68h366q19 0 19-20V20q0-20-19-20H98Q78 0 78 20v670q0 20 20 20h405z" /><glyph glyph-name="Eacute" unicode="&#xc9;" horiz-adv-x="573" d="M358 898q10 5 18 6t16-8l15-18q7-8 7-12.5t-10-8.5l-176-93q-9-3-14-3t-10 5l-9 11q-11 14 2 20zM503 710q19 0 19-20v-28q0-20-19-20H150V394h308q19 0 19-20v-28q0-20-19-20H150V68h366q19 0 19-20V20q0-20-19-20H98Q78 0 78 20v670q0 20 20 20h405z" /><glyph glyph-name="Ecircumflex" unicode="&#xca;" horiz-adv-x="573" d="M306 901q11 0 16.5-2t17.5-14l122-108q6-5 4.5-9.5T453 763h-27q-11 0-17 1.5t-13 8.5l-95 82-98-82q-7-7-12-8.5t-16-1.5h-26q-12 0-13.5 4.5t4.5 9.5l122 108q12 11 17.5 13.5T298 901h8zM503 710q19 0 19-20v-28q0-20-19-20H150V394h308q19 0 19-20v-28q0-20-19-20H150V68h366q19 0 19-20V20q0-20-19-20H98Q78 0 78 20v670q0 20 20 20h405z" /><glyph glyph-name="Edieresis" unicode="&#xcb;" horiz-adv-x="573" d="M207 864q19 0 25.5-7t6.5-25v-8q0-19-6.5-25.5T207 792h-7q-18 0-25 6.5t-7 25.5v8q0 18 7 25t25 7h7zm194 0q18 0 25-7t7-25v-8q0-19-7-25.5t-25-6.5h-6q-20 0-27 6.5t-7 25.5v8q0 18 7 25t27 7h6zM503 710q19 0 19-20v-28q0-20-19-20H150V394h308q19 0 19-20v-28q0-20-19-20H150V68h366q19 0 19-20V20q0-20-19-20H98Q78 0 78 20v670q0 20 20 20h405z" /><glyph glyph-name="Igrave" unicode="&#xcc;" horiz-adv-x="228" d="M23 891q8 9 16.5 7.5T57 892l164-97q13-6 2-20l-9-11q-5-5-10-5t-14 4L11 852q-9 4-9 8.5T9 873zM78 690q0 20 20 20h33q20 0 20-20V20q0-20-20-20H98Q78 0 78 20v670z" /><glyph glyph-name="Iacute" unicode="&#xcd;" horiz-adv-x="228" d="M172 898q9 5 17.5 6t16.5-8l15-18q7-8 6.5-12.5T218 857L41 764q-8-3-13.5-3t-9.5 5l-9 11q-12 13 1 20zM78 690q0 20 20 20h33q11 0 15-4.5t4-15.5V20q0-11-4-15.5T131 0H98Q78 0 78 20v670z" /><glyph glyph-name="Icircumflex" unicode="&#xce;" horiz-adv-x="228" d="M119 901q11 0 17-2t18-14l122-108q5-5 4-9.5t-13-4.5h-27q-12 0-18 1.5t-12 8.5l-96 82-97-82q-8-7-13-8.5t-16-1.5h-26q-12 0-13 4.5t4 9.5L76 885q11 11 17 13.5t19 2.5h7zM78 690q0 20 20 20h33q11 0 15-4.5t4-15.5V20q0-11-4-15.5T131 0H98Q78 0 78 20v670z" /><glyph glyph-name="Idieresis" unicode="&#xcf;" horiz-adv-x="228" d="M20 864q20 0 26.5-7t6.5-25v-8q0-19-6.5-25.5T20 792h-6q-19 0-26 6.5t-7 25.5v8q0 18 7 25t26 7h6zm194 0q19 0 26-7t7-25v-8q0-19-7-25.5t-26-6.5h-6q-20 0-26.5 6.5T175 824v8q0 18 6.5 25t26.5 7h6zM78 690q0 20 20 20h33q11 0 15-4.5t4-15.5V20q0-11-4-15.5T131 0H98Q78 0 78 20v670z" /><glyph glyph-name="Eth" unicode="&#xd0;" horiz-adv-x="664" d="M320 710q70 0 124-18.5t91-52.5 56-83 19-110V264q0-61-19-110t-56-83-91-52.5T320 0H109Q89 0 89 20v316H16q-14 0-14 14v21q0 14 14 14h73v305q0 20 20 20h211zM538 446q0 94-55.5 145T321 642H162V385h172q13 0 13-14v-21q0-14-13-14H162V68h159q105 0 161 51t56 145v182z" /><glyph glyph-name="Ntilde" unicode="&#xd1;" horiz-adv-x="691" d="M486 882q11 0 11-12 0-51-18.5-75.5T419 770q-26 0-44.5 10.5t-34.5 23-31.5 23T273 837t-30-14.5-10-40.5q0-12-12-12h-20q-12 0-12 12 0 1e2 78 1e2 27 0 46-10.5t35-23 31.5-23T415 815t30 14.5 10 40.5q0 12 11 12h20zM593 710q20 0 20-20V20q0-20-20-20h-32q-8 0-12.5 2t-8.5 9L221 469q-14 21-26 42.5t-22 41-18 35.5-14 24h-4q0-11 1.5-29.5t4-42 4-50.5 1.5-55V20q0-20-19-20H98Q78 0 78 20v670q0 20 20 20h32q9 0 13.5-2.5t7.5-7.5l311-449q15-23 28.5-46t24.5-43 20-36.5 16-25.5h3q0 12-2 31.5t-4 44-4 52.5-2 58v405q0 19 20 19h31z" /><glyph glyph-name="Ograve" unicode="&#xd2;" horiz-adv-x="663" d="M241 901q8 9 16 7.5t18-6.5l164-97q13-7 1-20l-9-11q-4-5-9.5-5t-14.5 4l-178 89q-9 4-9.5 8.5T226 883zM57 473q0 118 70 184.5T332 724q134 0 204-66.5T606 473V237q0-118-70-184.5T332-14q-135 0-205 66.5T57 237v236zm477 0q0 88-51.5 136T332 657q-1e2.0-151.5-48T129 473V237q0-88 51.5-136T332 53q99 0 150.5 48T534 237v236z" /><glyph glyph-name="Oacute" unicode="&#xd3;" horiz-adv-x="663" d="M390 908q9 5 17.5 6t16.5-8l15-18q7-8 6.5-12.5T436 867l-177-93q-8-3-13.5-3t-9.5 5l-9 11q-12 13 1 20zM57 473q0 118 70 184.5T332 724q134 0 204-66.5T606 473V237q0-118-70-184.5T332-14q-135 0-205 66.5T57 237v236zm477 0q0 88-51.5 136T332 657q-1e2.0-151.5-48T129 473V237q0-88 51.5-136T332 53q99 0 150.5 48T534 237v236z" /><glyph glyph-name="Ocircumflex" unicode="&#xd4;" horiz-adv-x="663" d="M337 911q11 0 17-2t18-14l122-108q5-5 4-9.5t-13-4.5h-27q-12 0-18 1.5t-12 8.5l-96 82-97-82q-8-7-13-8.5t-16-1.5h-26q-12 0-13 4.5t4 9.5l123 108q11 11 17 13.5t19 2.5h7zM57 473q0 118 70 184.5T332 724q134 0 204-66.5T606 473V237q0-118-70-184.5T332-14q-135 0-205 66.5T57 237v236zm477 0q0 88-51.5 136T332 657q-1e2.0-151.5-48T129 473V237q0-88 51.5-136T332 53q99 0 150.5 48T534 237v236z" /><glyph glyph-name="Otilde" unicode="&#xd5;" horiz-adv-x="663" d="M472 892q11 0 11-12 0-51-18.5-75.5T405 780q-26 0-44.5 10.5t-34.5 23-31.5 23T259 847t-30-14.5-10-40.5q0-12-12-12h-20q-12 0-12 12 0 1e2 78 1e2 27 0 46-10.5t35-23 31.5-23T401 825t30 14.5 10 40.5q0 12 11 12h20zM57 473q0 118 70 184.5T332 724q134 0 204-66.5T606 473V237q0-118-70-184.5T332-14q-135 0-205 66.5T57 237v236zm477 0q0 88-51.5 136T332 657q-1e2.0-151.5-48T129 473V237q0-88 51.5-136T332 53q99 0 150.5 48T534 237v236z" /><glyph glyph-name="Odieresis" unicode="&#xd6;" horiz-adv-x="663" d="M238 874q20 0 26.5-7t6.5-25v-8q0-19-6.5-25.5T238 802h-6q-19 0-26 6.5t-7 25.5v8q0 18 7 25t26 7h6zm194 0q19 0 26-7t7-25v-8q0-19-7-25.5t-26-6.5h-6q-20 0-26.5 6.5T393 834v8q0 18 6.5 25t26.5 7h6zM57 473q0 118 70 184.5T332 724q134 0 204-66.5T606 473V237q0-118-70-184.5T332-14q-135 0-205 66.5T57 237v236zm477 0q0 88-51.5 136T332 657q-1e2.0-151.5-48T129 473V237q0-88 51.5-136T332 53q99 0 150.5 48T534 237v236z" /><glyph glyph-name="multiply" unicode="&#xd7;" horiz-adv-x="507" d="M442 180q8-8 8-14t-8-14l-16-16q-13-13-28 0L253 281 109 137q-8-8-14-8t-14 8l-15 16q-8 8-8 13.5t8 13.5l144 144L66 469q-15 15 0 28l15 16q8 8 14 8t14-8l144-145 145 145q8 8 14 8t14-8l16-16q8-8 8-13.5t-8-13.5L296 324l146-144v0z" /><glyph glyph-name="Oslash" unicode="&#xd8;" horiz-adv-x="663" d="M610 751q7 0 4-7l-65-101q57-63 57-170V237q0-118-70-184T332-14q-54-1-97.5 10.5T158 30l-42-65q-3-5-5-6t-10-1H63q-9 0-4 7l60 96q-62 64-62 176v236q0 118 70 184.5T332 724q113 0 180-50l44 70q4 5 6 6t8 1h40zM473 614q-51 43-141 43-1e2.0-151.5-48T129 473V237q0-65 36-106zM197 91q50-38 135-38 99 0 150.5 48T534 237v236q0 62-30 98z" /><glyph glyph-name="Ugrave" unicode="&#xd9;" horiz-adv-x="682" d="M250 891q8 9 16 7.5t18-6.5l164-97q13-7 1-20l-9-11q-4-5-9.5-5t-14.5 4l-178 89q-9 4-9.5 8.5T235 873zM145 241q0-87 48.5-137.5T341 53t147.5 50.5T537 241v449q0 20 20 20h33q20 0 20-20V242q0-59-17-106t-50.5-81-84-52T341-15 223.5 3t-84 52T89 136 72 242v448q0 20 20 20h33q20 0 20-20V241z" /><glyph glyph-name="Uacute" unicode="&#xda;" horiz-adv-x="682" d="M399 898q9 5 17.5 6t16.5-8l15-18q7-8 6.5-12.5T445 857l-177-93q-8-3-13.5-3t-9.5 5l-9 11q-12 13 1 20zM145 241q0-87 48.5-137.5T341 53t147.5 50.5T537 241v449q0 20 20 20h33q20 0 20-20V242q0-59-17-106t-50.5-81-84-52T341-15 223.5 3t-84 52T89 136 72 242v448q0 20 20 20h33q20 0 20-20V241z" /><glyph glyph-name="Ucircumflex" unicode="&#xdb;" horiz-adv-x="682" d="M346 901q11 0 17-2t18-14l122-108q5-5 4-9.5t-13-4.5h-27q-12 0-18 1.5t-12 8.5l-96 82-97-82q-8-7-13-8.5t-16-1.5h-26q-12 0-13 4.5t4 9.5l123 108q11 11 17 13.5t19 2.5h7zM145 241q0-87 48.5-137.5T341 53t147.5 50.5T537 241v449q0 20 20 20h33q20 0 20-20V242q0-59-17-106t-50.5-81-84-52T341-15 223.5 3t-84 52T89 136 72 242v448q0 20 20 20h33q20 0 20-20V241z" /><glyph glyph-name="Udieresis" unicode="&#xdc;" horiz-adv-x="682" d="M247 864q20 0 26.5-7t6.5-25v-8q0-19-6.5-25.5T247 792h-6q-19 0-26 6.5t-7 25.5v8q0 18 7 25t26 7h6zm194 0q19 0 26-7t7-25v-8q0-19-7-25.5t-26-6.5h-6q-20 0-26.5 6.5T402 824v8q0 18 6.5 25t26.5 7h6zM145 241q0-87 48.5-137.5T341 53t147.5 50.5T537 241v449q0 20 20 20h33q20 0 20-20V242q0-59-17-106t-50.5-81-84-52T341-15 223.5 3t-84 52T89 136 72 242v448q0 20 20 20h33q20 0 20-20V241z" /><glyph glyph-name="Yacute" unicode="&#xdd;" horiz-adv-x="627" d="M373 898q9 5 17.5 6t16.5-8l15-18q7-8 6.5-12.5T419 857l-177-93q-8-3-13.5-3t-9.5 5l-9 11q-12 13 1 20zM601 710q11 0 13-6t-3-14L350 288V20q0-20-20-20h-33q-20 0-20 20v269L16 690q-5 8-3 14t13 6h41q17 0 24-2.5t14-15.5l209-329 211 329q7 13 14 15.5t24 2.5h38z" /><glyph glyph-name="Thorn" unicode="&#xde;" horiz-adv-x="620" d="M355 591q54 0 97.5-16t74.5-46 47.5-73 16.5-97-16.5-97-47.5-72.5-74.5-45.5-97.5-16H150V20q0-11-4-15.5T131 0H98Q78 0 78 20v670q0 20 20 20h33q11 0 15-4.5t4-15.5v-99h205zm-6-395q77 0 122 44t45 119-45 120-122 45H150V196h199z" /><glyph glyph-name="germandbls" unicode="&#xdf;" d="M67 528q0 49 13 90t39 70.5 64.5 45.5 88.5 16q106 0 158-52.5T482 549q0-23-5-46.5t-15.5-45-28-39T391 390v-3q54-17 85.5-61.5T508 205q0-102-53.5-153.5T302 0h-81q-20 0-20 20v27q0 20 20 20h74q68 0 104 36.5T435 212q0 63-35 100.5T301 350h-78q-19 0-19 20v26q0 20 19 20h73q31 0 52.5 11.5T384 457t20.5 40.5T411 543q0 68-34.5 104T272 683q-68 0-103-42t-35-113V20q0-20-20-20H87Q67 0 67 20v508 0z" /><glyph glyph-name="agrave" unicode="&#xe0;" horiz-adv-x="512" d="M162 718q8 9 16.5 8t17.5-6l162-101q13-6 2-20l-10-11q-4-5-9-5t-14 3l-177 93q-9 4-9 8.5t7 12.5zM54 424q26 50 75.5 77.5T255 529q60 0 98.5-16t61-43 31.5-63 9-76V69q0-26-7.5-37T419 12Q391 0 350.5-7T253-14q-65 0-107 10T80 26 46.5 74.5 37 141q0 43 12.5 72.5t39 48 68 26.5 100.5 8q45 0 81-4t50-6v46q0 29-6 54t-21 43.5-41 29-67 10.5q-53 0-86.5-19T113 396q-6-8-10.5-10.5T88 388l-24 10q-19 7-10 26zM388 231q-8 1-22 2.5t-32.5 3-40 2.5-43.5 1q-81 0-112.5-23.5T106 142q0-24 5.5-42.5t21.5-31T176.5 49t71.5-7q42 0 71 4t50 12q11 5 15 10t4 19v144z" /><glyph glyph-name="aacute" unicode="&#xe1;" horiz-adv-x="512" d="M310 720q10 5 18 6t16-8l15-18q7-8 7-12.5t-10-8.5l-176-93q-9-3-14-3t-10 5l-9 11q-11 13 1 20zM54 424q26 50 75.5 77.5T255 529q60 0 98.5-16t61-43 31.5-63 9-76V69q0-26-7.5-37T419 12Q391 0 350.5-7T253-14q-65 0-107 10T80 26 46.5 74.5 37 141q0 43 12.5 72.5t39 48 68 26.5 100.5 8q45 0 81-4t50-6v46q0 29-6 54t-21 43.5-41 29-67 10.5q-53 0-86.5-19T113 396q-6-8-10.5-10.5T88 388l-24 10q-19 7-10 26zM388 231q-8 1-22 2.5t-32.5 3-40 2.5-43.5 1q-81 0-112.5-23.5T106 142q0-24 5.5-42.5t21.5-31T176.5 49t71.5-7q42 0 71 4t50 12q11 5 15 10t4 19v144z" /><glyph glyph-name="acircumflex" unicode="&#xe2;" horiz-adv-x="512" d="M258 719q11 0 16.5-2.5T292 702l122-107q6-6 4.5-10.5T405 580h-27q-11 0-17 1.5t-13 8.5l-96 83-97-83q-7-7-12-8.5t-16-1.5h-26q-12 0-13.5 4.5T91 595l123 107q12 12 17.5 14.5T250 719h8zM54 424q26 50 75.5 77.5T255 529q60 0 98.5-16t61-43 31.5-63 9-76V69q0-26-7.5-37T419 12Q391 0 350.5-7T253-14q-65 0-107 10T80 26 46.5 74.5 37 141q0 43 12.5 72.5t39 48 68 26.5 100.5 8q45 0 81-4t50-6v46q0 29-6 54t-21 43.5-41 29-67 10.5q-53 0-86.5-19T113 396q-6-8-10.5-10.5T88 388l-24 10q-19 7-10 26zM388 231q-8 1-22 2.5t-32.5 3-40 2.5-43.5 1q-81 0-112.5-23.5T106 142q0-24 5.5-42.5t21.5-31T176.5 49t71.5-7q42 0 71 4t50 12q11 5 15 10t4 19v144z" /><glyph glyph-name="atilde" unicode="&#xe3;" horiz-adv-x="512" d="M392 706q12 0 12-12 0-51-18.5-75.5T326 594q-26 0-44.5 10.5t-34.5 23-32 23-36 10.5-30-14.5-10-40.5q0-12-11-12h-20q-12 0-12 12 0 1e2 77 1e2 27 0 46-10.5t35.5-23 32-23T322 639t29.5 14.5T361 694q0 12 11 12h20zM54 424q26 50 75.5 77.5T255 529q60 0 98.5-16t61-43 31.5-63 9-76V69q0-26-7.5-37T419 12Q391 0 350.5-7T253-14q-65 0-107 10T80 26 46.5 74.5 37 141q0 43 12.5 72.5t39 48 68 26.5 100.5 8q45 0 81-4t50-6v46q0 29-6 54t-21 43.5-41 29-67 10.5q-53 0-86.5-19T113 396q-6-8-10.5-10.5T88 388l-24 10q-19 7-10 26zM388 231q-8 1-22 2.5t-32.5 3-40 2.5-43.5 1q-81 0-112.5-23.5T106 142q0-24 5.5-42.5t21.5-31T176.5 49t71.5-7q42 0 71 4t50 12q11 5 15 10t4 19v144z" /><glyph glyph-name="adieresis" unicode="&#xe4;" horiz-adv-x="512" d="M158 687q20 0 26.5-7t6.5-25v-8q0-19-6.5-26t-26.5-7h-6q-19 0-25.5 7t-6.5 26v8q0 18 6.5 25t25.5 7h6zm194 0q19 0 26-7t7-25v-8q0-19-7-26t-26-7h-5q-20 0-27 7t-7 26v8q0 18 7 25t27 7h5zM54 424q26 50 75.5 77.5T255 529q60 0 98.5-16t61-43 31.5-63 9-76V69q0-26-7.5-37T419 12Q391 0 350.5-7T253-14q-65 0-107 10T80 26 46.5 74.5 37 141q0 43 12.5 72.5t39 48 68 26.5 100.5 8q45 0 81-4t50-6v46q0 29-6 54t-21 43.5-41 29-67 10.5q-53 0-86.5-19T113 396q-6-8-10.5-10.5T88 388l-24 10q-19 7-10 26zM388 231q-8 1-22 2.5t-32.5 3-40 2.5-43.5 1q-81 0-112.5-23.5T106 142q0-24 5.5-42.5t21.5-31T176.5 49t71.5-7q42 0 71 4t50 12q11 5 15 10t4 19v144z" /><glyph glyph-name="aring" unicode="&#xe5;" horiz-adv-x="512" d="M154 681q0 45 27.5 71.5T256 779q45 0 72-26.5t27-71.5-27-71.5-72-26.5q-47 0-74.5 26.5T154 681zm165 0q0 29-17 46t-46 17q-31 0-48.5-17T190 681t17.5-46 48.5-17q29 0 46 17t17 46zM54 424q26 50 75.5 77.5T255 529q60 0 98.5-16t61-43 31.5-63 9-76V69q0-26-7.5-37T419 12Q391 0 350.5-7T253-14q-65 0-107 10T80 26 46.5 74.5 37 141q0 43 12.5 72.5t39 48 68 26.5 100.5 8q45 0 81-4t50-6v46q0 29-6 54t-21 43.5-41 29-67 10.5q-53 0-86.5-19T113 396q-6-8-10.5-10.5T88 388l-24 10q-19 7-10 26zM388 231q-8 1-22 2.5t-32.5 3-40 2.5-43.5 1q-81 0-112.5-23.5T106 142q0-24 5.5-42.5t21.5-31T176.5 49t71.5-7q42 0 71 4t50 12q11 5 15 10t4 19v144z" /><glyph glyph-name="ae" unicode="&#xe6;" horiz-adv-x="788" d="M55 424q26 50 69.5 77.5T237 529q66 0 100.5-24.5T388 442q20 42 59 64.5T549 529q53 0 90.5-15.5T701 471t35-65 11-83v-56q0-13-6.5-20.5T717 239H418v-59q0-64 29.5-1e2T546 44q28 0 48.5 6T630 66.5 656 92t22 34q7 9 13 10.5t17-3.5l20-12q20-9 7-28-13-24-29-43.5T668 16 616-6t-70-8q-52 0-87.5 15.5T402 46q-20-23-57.5-41.5T236-14q-59 0-97.5 10t-61 29-31 47.5T38 139q0 43 11 72.5t35 48 62.5 26.5 93.5 8q34 0 65-3.5t45-5.5v55q0 27-4 50.5t-16.5 41-35 27.5-59.5 10q-45 0-73-18.5T114 397q-6-9-10.5-11T89 388l-24 10q-10 5-12.5 10t2.5 16zm625-97q0 67-30 105.5T549 471t-101-38.5T418 327v-36h262v36zM350 229q-8 1-21 3t-29 3.5-33.5 2.5-34.5 1q-36 0-60.5-6t-39-18-20.5-30.5-6-44.5q0-24 5-42t19-30.5 38-19 62-6.5q37 0 61 7t38 16 20 18 8 14q-7 28-7 66v66z" /><glyph glyph-name="ccedilla" unicode="&#xe7;" horiz-adv-x="514" d="M466 152q10-4 13.5-9.5T478 126q-20-64-66-99T288-13l-23-61q10 3 26 3 40 0 63.5-22t21.5-58q-3-51-37-73t-82-22q-24 0-45.5 5.5T177-227q-7 4-9.5 8t-2.5 12v19q0 5 2.5 7.5t7.5-.5q13-9 29-16t45-7q34 0 51.5 15t17.5 41q0 42-60 42-20 0-33-4-18-1-11 17l32 79Q146-9 97.5 43T49 183v149q0 91 53.5 144T267 529q92 0 141-36.5t68-98.5q4-11 1-16.5t-13-9.5l-26-9q-11-4-16-1t-9 13q-16 50-49.5 74T265 469q-75 0-112-36t-37-99V181q0-63 37.5-99.5T265 45q63 0 98 26t51 77q5 11 10 13t16-1l26-8v0z" /><glyph glyph-name="egrave" unicode="&#xe8;" horiz-adv-x="530" d="M178 719q8 8 16.5 7t17.5-6l162-1e2q8-5 8-8.5t-6-11.5l-10-12q-7-8-23-1l-177 92q-9 5-9 9.5t7 12.5zM47 318q0 1e2 56 155.5T268 529q56 0 98-15.5t69.5-43 41-65.5 13.5-83v-55q0-13-6.5-20.5T460 239H114v-58q0-64 37.5-100.5T264 44q62 0 99 22.5t58 60.5q7 9 13 10.5t16-3.5l21-11q19-10 7-29-26-47-77-77.5T264-14q-56 0-97 14.5T99.5 42 60 106t-13 82v130zm376 8q0 67-38.5 106T268 471q-77 0-115.5-39T114 326v-35h309v35z" /><glyph glyph-name="eacute" unicode="&#xe9;" horiz-adv-x="530" d="M326 720q10 5 18 6t16-7l15-18q7-8 7-12.5t-10-9.5l-176-92q-16-7-24 1l-9 12q-6 8-6 11.5t7 8.5zM47 318q0 1e2 56 155.5T268 529q56 0 98-15.5t69.5-43 41-65.5 13.5-83v-55q0-13-6.5-20.5T460 239H114v-58q0-64 37.5-100.5T264 44q62 0 99 22.5t58 60.5q7 9 13 10.5t16-3.5l21-11q19-10 7-29-26-47-77-77.5T264-14q-56 0-97 14.5T99.5 42 60 106t-13 82v130zm376 8q0 67-38.5 106T268 471q-77 0-115.5-39T114 326v-35h309v35z" /><glyph glyph-name="ecircumflex" unicode="&#xea;" horiz-adv-x="530" d="M274 715q11 0 16-2.5t17-13.5l120-105q5-6 3.5-10.5T418 579h-27q-11 0-17 2t-12 8l-94 81-95-81q-7-7-12-8.5t-16-1.5h-25q-12 0-13 4.5t4 10.5l120 105q11 11 16.5 13.5T266 715h8zM47 318q0 1e2 56 155.5T268 529q56 0 98-15.5t69.5-43 41-65.5 13.5-83v-55q0-13-6.5-20.5T460 239H114v-58q0-64 37.5-100.5T264 44q62 0 99 22.5t58 60.5q7 9 13 10.5t16-3.5l21-11q19-10 7-29-26-47-77-77.5T264-14q-56 0-97 14.5T99.5 42 60 106t-13 82v130zm376 8q0 67-38.5 106T268 471q-77 0-115.5-39T114 326v-35h309v35z" /><glyph glyph-name="edieresis" unicode="&#xeb;" horiz-adv-x="530" d="M174 688q20 0 26.5-7.5T207 655v-8q0-18-6.5-25t-26.5-7h-6q-19 0-25.5 7t-6.5 25v8q0 18 6.5 25.5T168 688h6zm194 0q19 0 26-7.5t7-25.5v-8q0-18-7-25t-26-7h-5q-20 0-27 7t-7 25v8q0 18 7 25.5t27 7.5h5zM47 318q0 1e2 56 155.5T268 529q56 0 98-15.5t69.5-43 41-65.5 13.5-83v-55q0-13-6.5-20.5T460 239H114v-58q0-64 37.5-100.5T264 44q62 0 99 22.5t58 60.5q7 9 13 10.5t16-3.5l21-11q19-10 7-29-26-47-77-77.5T264-14q-56 0-97 14.5T99.5 42 60 106t-13 82v130zm376 8q0 67-38.5 106T268 471q-77 0-115.5-39T114 326v-35h309v35z" /><glyph glyph-name="igrave" unicode="&#xec;" horiz-adv-x="199" d="M28 715q7 9 15.5 8t17.5-6l130-98q7-5 7.5-8.5T193 599l-9-11q-5-9-23-1L16 676q-9 4-9.5 8.5T13 697zm88-201q10 0 14-3.5t4-14.5V18q0-11-4-14.5T116 0H84Q74 0 70 3.5T66 18v478q0 11 4 14.5t14 3.5h32z" /><glyph glyph-name="iacute" unicode="&#xed;" horiz-adv-x="199" d="M141 717q9 5 17.5 6t15.5-8l15-18q7-8 6.5-12.5T185 676L41 586q-18-8-24 1l-8 11q-7 8-6 12t8 9zM115 514q11 0 14.5-3.5T133 496V18q0-11-3.5-14.5T115 0H84Q73 0 69.5 3.5T66 18v478q0 11 3.5 14.5T84 514h31z" /><glyph glyph-name="icircumflex" unicode="&#xee;" horiz-adv-x="199" d="M229 599q12-14-9-14h-24q-12 0-18.5 1t-11.5 9l-67 77-69-77q-5-8-11-9t-17-1h-23q-11 0-13 4t3 10l93 101q11 12 16.5 14t18.5 2h7q11 0 16.5-2t16.5-14zM115 514q11 0 14.5-3.5T133 496V18q0-11-3.5-14.5T115 0H84Q73 0 69.5 3.5T66 18v478q0 11 3.5 14.5T84 514h31z" /><glyph glyph-name="idieresis" unicode="&#xef;" horiz-adv-x="199" d="M27 698q20 0 26.5-7t6.5-25v-8q0-19-6.5-25.5T27 626h-6q-19 0-26 6.5t-7 25.5v8q0 18 7 25t26 7h6zm151 0q18 0 25.5-7t7.5-25v-8q0-19-7.5-25.5T178 626h-6q-20 0-27 6.5t-7 25.5v8q0 18 7 25t27 7h6zM115 514q11 0 14.5-3.5T133 496V18q0-11-3.5-14.5T115 0H84Q73 0 69.5 3.5T66 18v478q0 11 3.5 14.5T84 514h31z" /><glyph glyph-name="eth" unicode="&#xf0;" horiz-adv-x="551" d="M416 747q6 7 15 0l18-13q5-5 5-7.5t-4-7.5l-48-51q47-42 67.5-108.5T490 399V179q0-91-55.5-142T270-14q-111 0-166.5 51T48 179v131q0 91 54.5 143T257 505q67 0 108-20.5t61-58.5q-2 66-17.5 113.5T358 619l-66-70q-7-7-15-1l-17 13q-5 4-5.5 7t4.5 8l62 66q-62 38-175 38-11 0-15 3.5t-4 13.5l-1 26q0 11 3.5 15t14.5 4q72 0 126.5-12.5T365 693zm7-436q0 63-39 98t-114 35q-77 0-115.5-35T116 310V180q0-63 38.5-98T270 47q75 0 114 35t39 98v131z" /><glyph glyph-name="ntilde" unicode="&#xf1;" d="M413 706q12 0 12-12 0-50-18.5-74.5T347 595q-26 0-44.5 10.5t-34.5 23-32 23-36 10.5q-19 0-29.5-14.5T160 607q0-12-11-12h-20q-12 0-12 12 0 99 78 99 27 0 46-10.5t35-23 31.5-23T343 639t29.5 15 9.5 40q0 12 12 12h19zM102 495q29 12 73.5 23T288 529q104 0 151.5-51.5T487 333V18q0-11-4-14.5T469 0h-31q-11 0-14.5 3.5T420 18v313q0 68-34 102t-106 34q-43 0-76.5-7T147 445q-10-5-12.5-11t-2.5-14V18q0-11-4-14.5T114 0H82Q72 0 68 3.5T64 18v422q0 23 7.5 34t30.5 21z" /><glyph glyph-name="ograve" unicode="&#xf2;" horiz-adv-x="539" d="M179 718q8 9 16.5 8t17.5-6l162-101q13-7 1-20l-9-11q-4-5-9.5-5t-14.5 3l-176 93q-9 4-9.5 8.5T164 7e2zM50 345q0 86 58 135t161 49q104 0 162.5-49T490 345V169q0-86-58.5-134.5T269-14q-103 0-161 48.5T50 169v176zm372 0q0 58-41 90.5T269 468q-69 0-110.5-32.5T117 345V169q0-57 41.5-89.5T269 47q71 0 112 32.5t41 89.5v176z" /><glyph glyph-name="oacute" unicode="&#xf3;" horiz-adv-x="539" d="M327 720q9 5 17.5 6t16.5-8l15-18q7-8 6.5-12.5T373 679l-176-93q-9-3-14.5-3t-9.5 5l-9 11q-12 13 1 20zM50 345q0 86 58 135t161 49q104 0 162.5-49T490 345V169q0-86-58.5-134.5T269-14q-103 0-161 48.5T50 169v176zm372 0q0 58-41 90.5T269 468q-69 0-110.5-32.5T117 345V169q0-57 41.5-89.5T269 47q71 0 112 32.5t41 89.5v176z" /><glyph glyph-name="ocircumflex" unicode="&#xf4;" horiz-adv-x="539" d="M274 714q11 0 16.5-2t17.5-14l119-105q5-5 4-9.5t-13-4.5h-26q-11 0-17 1.5t-12 8.5l-94 80-95-80q-8-7-12.5-8.5T146 579h-26q-11 0-12.5 4.5t4.5 9.5l120 105q11 11 16.5 13.5T267 714h7zM50 345q0 86 58 135t161 49q104 0 162.5-49T490 345V169q0-86-58.5-134.5T269-14q-103 0-161 48.5T50 169v176zm372 0q0 58-41 90.5T269 468q-69 0-110.5-32.5T117 345V169q0-57 41.5-89.5T269 47q71 0 112 32.5t41 89.5v176z" /><glyph glyph-name="otilde" unicode="&#xf5;" horiz-adv-x="539" d="M409 706q12 0 12-12 0-1e2-78-1e2-26 0-44.5 10.5t-34.5 23-32 23-36 10.5-30-14.5-10-40.5q0-12-12-12h-20q-12 0-12 12 0 51 20 75.5t58 24.5q27 0 46-10.5t35-23 31.5-23T338 639t30 14.5 10 40.5q0 12 11 12h20zM50 345q0 86 58 135t161 49q104 0 162.5-49T490 345V169q0-86-58.5-134.5T269-14q-103 0-161 48.5T50 169v176zm372 0q0 58-41 90.5T269 468q-69 0-110.5-32.5T117 345V169q0-57 41.5-89.5T269 47q71 0 112 32.5t41 89.5v176z" /><glyph glyph-name="odieresis" unicode="&#xf6;" horiz-adv-x="539" d="M175 687q20 0 26.5-7t6.5-25v-8q0-19-6.5-26t-26.5-7h-6q-19 0-26 7t-7 26v8q0 18 7 25t26 7h6zm194 0q19 0 26-7t7-25v-8q0-19-7-26t-26-7h-6q-19 0-26 7t-7 26v8q0 18 7 25t26 7h6zM50 345q0 86 58 135t161 49q104 0 162.5-49T490 345V169q0-86-58.5-134.5T269-14q-103 0-161 48.5T50 169v176zm372 0q0 58-41 90.5T269 468q-69 0-110.5-32.5T117 345V169q0-57 41.5-89.5T269 47q71 0 112 32.5t41 89.5v176z" /><glyph glyph-name="divide" unicode="&#xf7;" horiz-adv-x="578" d="M292 564q23 0 31.5-8.5T332 524v-7q0-23-8.5-31t-31.5-8h-6q-23 0-31 8t-8 31v7q0 23 8 31.5t31 8.5h6zM505 357q11 0 15-4.5t4-15.5v-25q0-11-4-15.5t-15-4.5H73q-19 0-19 20v25q0 20 19 20h432zM292 173q23 0 31.5-8t8.5-31v-7q0-23-8.5-31.5T292 87h-6q-23 0-31 8.5t-8 31.5v7q0 23 8 31t31 8h6z" /><glyph glyph-name="oslash" unicode="&#xf8;" horiz-adv-x="539" d="M472 552q8 0 3-7l-42-67q27-23 42-57t15-76V169q0-86-58.5-134.5T269-14q-77 0-130 29l-27-44q-3-4-5-5t-9-1H70q-4 0-4.5 2.5T67-28l40 64Q50 85 50 169v176q0 86 58 135t161 49q39 0 72-8t59-22l30 47q4 5 6 5.5t7 .5h29zM366 445q-19 11-43.5 17t-53.5 6q-69 0-110.5-32.5T117 345V169q0-43 30-70zM174 70q38-23 95-23 71 0 112 32.5t41 89.5v176q0 43-29 70z" /><glyph glyph-name="ugrave" unicode="&#xf9;" d="M183 718q8 9 16.5 8t17.5-6l162-101q13-7 1-20l-9-11q-4-5-9.5-5t-14.5 3l-176 93q-9 4-9.5 8.5T168 7e2zM467 514q9 0 13.5-3.5T485 496V74q0-23-7.5-34T447 19Q418 7 373.5-3.5T260-14q-103 0-150.5 51T62 181v315q0 11 3.5 14.5T80 514h31q11 0 14.5-3.5T129 496V184q0-68 33.5-102.5T269 47q43 0 75 6.5T399 69q12 5 15 11.5t3 16.5v399q0 11 4 14.5t14 3.5h32z" /><glyph glyph-name="uacute" unicode="&#xfa;" d="M331 720q9 5 17.5 6t16.5-8l15-18q7-8 6.5-12.5T377 679l-176-93q-9-3-14.5-3t-9.5 5l-9 11q-12 13 1 20zM467 514q9 0 13.5-3.5T485 496V74q0-23-7.5-34T447 19Q418 7 373.5-3.5T260-14q-103 0-150.5 51T62 181v315q0 11 3.5 14.5T80 514h31q11 0 14.5-3.5T129 496V184q0-68 33.5-102.5T269 47q43 0 75 6.5T399 69q12 5 15 11.5t3 16.5v399q0 11 4 14.5t14 3.5h32z" /><glyph glyph-name="ucircumflex" unicode="&#xfb;" d="M279 719q11 0 16.5-2.5T313 702l122-107q5-6 4-10.5t-13-4.5h-27q-12 0-18 1.5t-12 8.5l-96 83-97-83q-8-7-13-8.5t-16-1.5h-26q-12 0-13 4.5t4 10.5l123 107q12 12 17.5 14.5T271 719h8zM467 514q9 0 13.5-3.5T485 496V74q0-23-7.5-34T447 19Q418 7 373.5-3.5T260-14q-103 0-150.5 51T62 181v315q0 11 3.5 14.5T80 514h31q11 0 14.5-3.5T129 496V184q0-68 33.5-102.5T269 47q43 0 75 6.5T399 69q12 5 15 11.5t3 16.5v399q0 11 4 14.5t14 3.5h32z" /><glyph glyph-name="udieresis" unicode="&#xfc;" d="M179 687q20 0 26.5-7t6.5-25v-8q0-19-6.5-26t-26.5-7h-6q-19 0-26 7t-7 26v8q0 18 7 25t26 7h6zm194 0q19 0 26-7t7-25v-8q0-19-7-26t-26-7h-6q-19 0-26 7t-7 26v8q0 18 7 25t26 7h6zm94-173q9 0 13.5-3.5T485 496V74q0-23-7.5-34T447 19Q418 7 373.5-3.5T260-14q-103 0-150.5 51T62 181v315q0 11 3.5 14.5T80 514h31q11 0 14.5-3.5T129 496V184q0-68 33.5-102.5T269 47q43 0 75 6.5T399 69q12 5 15 11.5t3 16.5v399q0 11 4 14.5t14 3.5h32z" /><glyph glyph-name="yacute" unicode="&#xfd;" horiz-adv-x="551" d="M331 720q9 5 17.5 6t16.5-8l15-18q7-8 6.5-12.5T377 679l-176-93q-9-3-14.5-3t-9.5 5l-9 11q-12 13 1 20zM467 514q10 0 14-3.5t4-14.5V-31q0-49-12-88.5t-37.5-68-66-44T272-247q-80 0-127 30t-72 77q-12 20 7 30l22 11q11 6 17 4t12-11q20-36 51.5-58t88.5-22q77 0 111.5 40T417-34v59q-26-8-63-17t-94-9Q157-1 109.5 50T62 194v302q0 11 3.5 14.5T80 514h31q11 0 14.5-3.5T129 496V197q0-68 33.5-102.5T269 60q51 0 88 9.5T417 87v409q0 11 4 14.5t14 3.5h32z" /><glyph glyph-name="thorn" unicode="&#xfe;" horiz-adv-x="539" d="M67 722q0 10 3.5 14t14.5 4h31q11 0 14.5-4t3.5-14V496q19 7 56.5 17.5T282 524q107 0 157.5-51.5T490 324V184q0-95-50-147T284-15q-52 0-91.5 13.5T134 20v-222q0-11-3.5-14.5T116-220H85q-11 0-14.5 3.5T67-202v924zM422 322q0 140-149 140-51 0-86.5-11.5T134 432V81q18-8 57-21.5T280 46q75 0 108.5 35.5T422 186v136z" /><glyph glyph-name="ydieresis" unicode="&#xff;" horiz-adv-x="551" d="M179 687q20 0 26.5-7t6.5-25v-8q0-19-6.5-26t-26.5-7h-6q-19 0-26 7t-7 26v8q0 18 7 25t26 7h6zm194 0q19 0 26-7t7-25v-8q0-19-7-26t-26-7h-6q-19 0-26 7t-7 26v8q0 18 7 25t26 7h6zm94-173q10 0 14-3.5t4-14.5V-31q0-49-12-88.5t-37.5-68-66-44T272-247q-80 0-127 30t-72 77q-12 20 7 30l22 11q11 6 17 4t12-11q20-36 51.5-58t88.5-22q77 0 111.5 40T417-34v59q-26-8-63-17t-94-9Q157-1 109.5 50T62 194v302q0 11 3.5 14.5T80 514h31q11 0 14.5-3.5T129 496V197q0-68 33.5-102.5T269 60q51 0 88 9.5T417 87v409q0 11 4 14.5t14 3.5h32z" /><glyph glyph-name="dotlessi" unicode="&#x131;" horiz-adv-x="200" d="M116 514q10 0 14-3.5t4-14.5V18q0-11-4-14.5T116 0H84Q74 0 70 3.5T66 18v478q0 11 4 14.5t14 3.5h32v0z" /><glyph glyph-name="OE" unicode="&#x152;" horiz-adv-x="845" d="M787 68q20 0 20-20V20q0-20-20-20H443q-25-7-53-11t-58-4q-135 0-205 67T57 237v236q0 118 70 185t205 67q30 0 58.5-4t52.5-11h331q20 0 20-20v-28q0-20-20-20H495V393h234q20 0 20-20v-28q0-20-20-20H495V68h292zM129 237q0-88 51.5-136T332 53q29 0 53.5 4t37.5 9v578q-14 5-38 9t-53 4q-1e2.0-151.5-48T129 473V237z" /><glyph glyph-name="oe" unicode="&#x153;" horiz-adv-x="817" d="M415 441q20 42 60 65t103 23q53 0 90.5-15.5T730 471t35-65 11-83v-56q0-13-6.5-20.5T746 239H447v-59q0-64 29.5-1e2T575 44q28 0 48.5 6T659 66.5 685 92t22 34q7 9 13 10.5t16-3.5l21-12q20-9 7-28-13-24-29-43.5T697 16 645-6t-70-8q-63 0-102 22t-59 63q-20-41-63-63T249-14q-93 0-145 48.5T52 168v177q0 86 52 135t145 49q60 0 103-23t63-65zM709 327q0 67-30 105.5T578 471t-101-38.5T447 327v-36h262v36zM380 346q0 57-35.5 89.5T249 468t-95-32.5-35-89.5V168q0-57 35-89t95-32 95.5 32 35.5 89v178z" /><glyph glyph-name="Scaron" unicode="&#x160;" horiz-adv-x="626" d="M467 910q12 0 13-4.5t-4-10.5L354 788q-12-12-17.5-14t-16.5-2h-8q-13 0-18.5 2.5T276 788L154 895q-5 5-4.5 10t12.5 5h26q11 0 16-1.5t13-8.5l97-83 96 83q7 7 12.5 8.5T440 910h27zM52 519q0 46 17 84t50 65 81 41.5T310 724q103 0 164-37.5T573 570q5-10 2.5-15.5T562 544l-31-14q-10-5-15-3t-11 12q-29 58-74 87t-121 29q-89 0-136.5-34T126 523q0-39 17.5-62.5t46.5-37 66-20.5 77-11q45-5 90-14t80.5-29.5 58-56.5 22.5-96q0-99-69-154.5T312-14q-109 0-173 42.5T41 158q-4 11-1.5 16.5T53 185l31 11q11 4 16 1.5t10-13.5q28-66 77.5-98T312 54q199 0 199 140 0 38-16.5 61.5t-43.5 37-62 19.5-73 10q-47 5-94 14t-84.5 29T76 421.5 52 519z" /><glyph glyph-name="scaron" unicode="&#x161;" horiz-adv-x="496" d="M385 7e2q11 0 12-5t-4-10l-110-96q-11-11-16-13t-15-2h-7q-11 0-16 2t-16 13l-111 97q-5 5-4 9.5t11 4.5h25q10 0 14.5-1.5T159 690l88-75 87 75q6 6 11 8t16 2h24zM46 379q0 69 49 109.5T243 529q86 0 134-30t70-79q10-18-9-26l-25-11q-11-5-15.5-2.5T388 392q-8 17-19 31t-28 24-40.5 15.5T244 468q-131 0-131-87 0-30 11-47t31.5-26.5 48-13.5 60.5-7q41-4 76.5-11.5t62-23.5 41.5-43 15-70q0-70-50.5-111.5T254-14q-83 0-137 29.5T38 110q-8 18 11 24l26 9q9 3 14 1t10-12q18-48 56-67.5T252 45q72 0 106.5 23.5T393 136q0 27-10.5 43T353 205t-45.5 15-59.5 8q-38 4-74 10t-64.5 21.5-46 43.5T46 379z" /><glyph glyph-name="Ydieresis" unicode="&#x178;" horiz-adv-x="627" d="M221 864q20 0 26.5-7t6.5-25v-8q0-19-6.5-25.5T221 792h-6q-19 0-26 6.5t-7 25.5v8q0 18 7 25t26 7h6zm194 0q19 0 26-7t7-25v-8q0-19-7-25.5t-26-6.5h-6q-20 0-26.5 6.5T376 824v8q0 18 6.5 25t26.5 7h6zM601 710q11 0 13-6t-3-14L350 288V20q0-20-20-20h-33q-20 0-20 20v269L16 690q-5 8-3 14t13 6h41q17 0 24-2.5t14-15.5l209-329 211 329q7 13 14 15.5t24 2.5h38z" /><glyph glyph-name="Zcaron" unicode="&#x17d;" horiz-adv-x="566" d="M438 901q12 0 13-5t-4-10L325 779q-12-12-17.5-14.5T291 762h-8q-13 0-18.5 2.5T248 779L125 886q-5 5-4 10t13 5h26q11 0 16-1.5t12-8.5l98-83 95 83q7 7 13 8.5t17 1.5h27zm68-191q20 0 20-20v-27q0-8-1.5-12.5T519 641L123 68h393q20 0 20-19V20q0-20-20-20H52Q33 0 33 20v27q0 8 1 13t6 10l395 572H57q-20 0-20 20v28q0 20 20 20h449z" /><glyph glyph-name="zcaron" unicode="&#x17e;" horiz-adv-x="455" d="M364 699q11 0 12-4.5t-4-9.5l-110-97q-11-11-16-13t-15-2h-7q-11 0-16 2t-16 13L81 685q-5 5-4 9.5t11 4.5h25q10 0 14.5-1.5T138 689l88-75 86 75q6 6 11 8t16 2h25zM407 61q10 0 14-3.5t4-14.5V18q0-11-4-14.5T407 0H49Q38 0 34.5 3.5T31 18v25q0 8 .5 11t5.5 9l297 390H52q-17 0-17 18v25q0 11 3.5 14.5T52 514h350q11 0 14.5-3.5T420 496v-25q0-7-1-11t-6-10L116 61h291z" /><glyph glyph-name="florin" unicode="&#x192;" horiz-adv-x="445" d="M2e2 536q5 46 19 84t39.5 64.5 64 41T416 740q11 0 14.5-3.5T434 722v-26q0-11-3.5-15t-14.5-4q-39 0-65.5-10t-44-29-26.5-45.5-12-59.5l-16-144h137q11 0 14.5-3.5T407 371v-27q0-10-3.5-14t-14.5-4H246L209-14q-5-47-18.5-85T151-164t-65-41.5T-7-220q-11 0-14.5 3.5T-25-202v26q0 11 3.5 15t14.5 4q39 0 65.5 10.5t44 29T129-72t13 60l36 338H49q-11 0-14.5 4T31 344v27q0 11 3.5 14.5T49 389h136l15 147v0z" /><glyph glyph-name="uni0237" unicode="&#x237;" horiz-adv-x="201" d="M116 514q11 0 14.5-3.5T134 496V-9q0-53-11-94t-36-69-64.5-43-96.5-15q-11 0-14.5 3.5T-92-212v26q0 11 3.5 15t14.5 4q41 0 68 11t43.5 31 23 49.5T67-8v504q0 11 3.5 14.5T85 514h31v0z" /><glyph glyph-name="circumflex" unicode="&#x2c6;" horiz-adv-x="378" d="M192 724q11 0 16.5-2t17.5-14l123-107q5-6 4-10.5t-13-4.5h-28q-11 0-17 1.5t-12 8.5l-96 83-97-83q-8-7-13-8.5T61 586H35q-12 0-13 4.5t4 10.5l123 107q11 12 16.5 14t19.5 2h7v0z" /><glyph glyph-name="tilde" unicode="&#x2dc;" horiz-adv-x="305" d="M295 711q12 0 12-12 0-99-78-99-26 0-44.5 10.5t-34.5 23-32 23T82 667t-30-14.5T42 612q0-12-12-12H10q-12 0-12 12 0 51 20 75t58 24q27 0 46-10.5t35-23 31.5-23T224 644t30 15 10 40q0 12 11 12h20v0z" /><glyph glyph-name="endash" unicode="&#x2013;" horiz-adv-x="575" d="M494 3e2q20 0 20-20v-25q0-20-20-20H81q-19 0-19 20v25q0 20 19 20h413v0z" /><glyph glyph-name="emdash" unicode="&#x2014;" horiz-adv-x="774" d="M693 3e2q20 0 20-20v-26q0-20-20-20H81q-20 0-20 20v26q0 20 20 20h612v0z" /><glyph glyph-name="quoteleft" unicode="&#x2018;" horiz-adv-x="198" d="M107 692q4 10 8 14t15 4h12q9 0 11.5-3t1.5-11l-34-166q-2-14-7.5-18T96 508H69q-27 0-18 22l56 162v0z" /><glyph glyph-name="quoteright" unicode="&#x2019;" horiz-adv-x="193" d="M102 526q-4-10-8-14t-15-4H67q-9 0-11.5 3T54 522l34 166q2 14 7.5 18t17.5 4h27q27 0 18-22l-56-162v0z" /><glyph glyph-name="quotesinglbase" unicode="&#x201a;" horiz-adv-x="171" d="M107-108q-2-10-5.5-14T87-126H72q-18 0-18 18V92q0 11 4 14.5t14 3.5h29q10 0 14.5-3.5T119 92l-12-2e2v0z" /><glyph glyph-name="quotedblleft" unicode="&#x201c;" horiz-adv-x="319" d="M107 692q4 10 8 14t15 4h12q9 0 11.5-3t1.5-11l-34-166q-2-14-7.5-18T96 508H69q-27 0-18 22zm121 0q4 10 8 14t15 4h12q9 0 11.5-3t1.5-11l-34-166q-2-14-7.5-18t-18.5-4h-26q-26 0-19 22z" /><glyph glyph-name="quotedblright" unicode="&#x201d;" horiz-adv-x="314" d="M102 526q-4-10-8-14t-15-4H67q-9 0-11.5 3T54 522l34 166q2 14 7.5 18t17.5 4h27q27 0 18-22zm121 0q-4-10-8-14t-15-4h-12q-16 0-13 14l34 166q2 14 7.5 18t17.5 4h26q28 0 19-22z" /><glyph glyph-name="quotedblbase" unicode="&#x201e;" horiz-adv-x="302" d="M71-103q-3-11-7.5-14.5T49-121H36q-15 0-12 14L58 59q2 13 7 17.5T83 81h26q28 0 19-22zm121 0q-3-11-7.5-14.5T170-121h-13q-9 0-11.5 3t-.5 11l33 166q2 13 7.5 17.5T204 81h26q28 0 19-22z" /><glyph glyph-name="dagger" unicode="&#x2020;" horiz-adv-x="532" d="M481 478q20 0 20-20v-28q0-20-20-20H301V-80q0-20-20-20h-29q-19 0-19 20v490H51q-19 0-19 20v28q0 20 19 20h182v212q0 20 19 20h29q20 0 20-20V478h180v0z" /><glyph glyph-name="daggerdbl" unicode="&#x2021;" horiz-adv-x="578" d="M304 710q19 0 19-20V478h180q20 0 20-20v-28q0-20-20-20H323V198h181q11 0 15.5-4t4.5-15v-28q0-20-20-20H323V-80q0-20-19-20h-29q-20 0-20 20v211H74q-11 0-15 4.5T55 151v28q0 11 4 15t15 4h181v212H74q-20 0-20 20v28q0 20 20 20h181v212q0 20 20 20h29v0z" /><glyph glyph-name="bullet" unicode="&#x2022;" horiz-adv-x="304" d="M152 192q-31 0-51 20.5T81 263q0 31 20 51.5t51 20.5 51-20.5 20-51.5q0-30-20-50.5T152 192z" /><glyph glyph-name="ellipsis" unicode="&#x2026;" horiz-adv-x="607" d="M96 80q23 0 31-8.5t8-31.5v-6q0-23-8-31.5T96-6h-6Q67-6 58.5 2.5T50 34v6q0 23 8.5 31.5T90 80h6zm210 0q23 0 31.5-8.5T346 40v-6q0-23-8.5-31.5T306-6h-6q-23 0-31 8.5T261 34v6q0 23 8 31.5t31 8.5h6zm211 0q23 0 31-8.5t8-31.5v-6q0-23-8-31.5T517-6h-6q-23 0-31.5 8.5T471 34v6q0 23 8.5 31.5T511 80h6z" /><glyph glyph-name="perthousand" unicode="&#x2030;" horiz-adv-x="1181" d="M36 578q0 69 40 108t118 39 118.5-39T353 578v-73q0-69-40.5-107.5T194 359 76 397.5 36 505v73zM681 710q11 0 13-5.5t-4-13.5L195 18q-8-12-14.5-15T156 0h-23q-11 0-13.5 6t2.5 14l496 673q8 11 14 14t22 3h27zM296 576q0 45-26 69.5T194 670q-49 0-75-24.5T93 576v-68q0-45 26-69.5t75-24.5q50 0 76 24.5t26 69.5v68zM459 204q0 69 40 108t118 39 118.5-39T776 204v-74q0-68-40.5-106.5T617-15 499 23.5 459 130v74zm372 0q0 69 40 108t118 39 118.5-39 40.5-108v-74q0-68-40.5-106.5T989-15 871 23.5 831 130v74zm-113-3q0 45-25.5 70T617 296q-49 0-75-25t-26-70v-67q0-45 26-70t75-25q50 0 75.5 25t25.5 70v67zm372 0q0 45-25.5 70T989 296q-49 0-75-25t-26-70v-67q0-45 26-70t75-25q50 0 75.5 25t25.5 70v67z" /><glyph glyph-name="guilsinglleft" unicode="&#x2039;" horiz-adv-x="336" d="M282 97q11-11 0-23l-21-21q-12-11-24 0L39 251q-6 7-6 11.5t6 11.5l201 201q11 13 23 0l20-20q6-7 6.5-11.5T283 432L115 264 282 97v0z" /><glyph glyph-name="guilsinglright" unicode="&#x203a;" horiz-adv-x="336" d="M52 432q-7 7-6.5 11.5T52 455l20 20q11 13 23 0l201-201q6-7 6-11.5t-6-11.5L98 53q-12-11-24 0L53 74q-11 12 0 23l167 167L52 432v0z" /><glyph glyph-name="Euro" unicode="&#x20ac;" horiz-adv-x="727" d="M147 484q0 55 18.5 1e2t53.5 76 86 48 117 17q99 0 157-31t88-87q14-22-8-34l-23-11q-12-7-19-4.5T602 571q-8 16-21.5 31.5t-35 27.5-52 19.5T422 657q-97 0-149-45t-52-126v-34h310q18 0 13-17l-6-20q-5-17-24-17H219v-96h267q19 0 14-17l-6-20q-5-17-24-17H221v-26q2-81 54-125t147-44q43 0 74 8t53 21 35.5 29.5T606 146q7 11 13.5 13t18.5-4l24-12q22-11 9-34-30-59-88-91.5T422-15q-130 0-200.5 61T148 222v26H45q-11 0-13.5 4t-.5 14l6 19q5 17 24 17h87v96H84q-11 0-13.5 4t-.5 14l6 19q5 17 24 17h47v32 0z" /><glyph glyph-name="trademark" unicode="&#x2122;" horiz-adv-x="626" d="M259 695q8 0 10.5-2.5T272 681v-12q0-8-2.5-10.5T259 656h-80V456q0-8-3.5-10.5T163 443h-11q-8 0-11.5 2.5T137 456v2e2H55q-9 0-10.5 2.5T43 669v12q0 9 1.5 11.5T55 695h204zm282 0q8 0 11-2.5t3-10.5V456q0-8-2.5-10.5T542 443h-13q-9 0-11.5 2.5T515 456v113q0 11 .5 24.5T517 621l-10-16-10-16-52-78q-4-5-6.5-7t-9.5-2h-6q-6 0-8.5 1t-6.5 6l-52 77q-5 8-10.5 15.5T335 617q1-13 1.5-25t.5-23V456q0-8-2-10.5t-11-2.5h-13q-9 0-11.5 2.5T297 456v225q0 9 3 11.5t12 2.5h7q8 0 10.5-2t6.5-7l90-138 90 137q3 5 6.5 7.5t9.5 2.5h9z" /></font>
</defs>
</svg>
