<?xml version="1.0" encoding="UTF-8" standalone="no"?>
<svg width="69" height="69" 
	xmlns='http://www.w3.org/2000/svg' 
	xmlns:xlink='http://www.w3.org/1999/xlink'> 
	<defs>
		<!--<circle id="d" cx="4.5" cy="4.5" r="4" fill="blue"/>
		<circle id="k" cx="4.5" cy="4.5" r="4" fill="black"/>-->
		<rect id="k" x="0" y="0" width="9" height="9" fill="black"/>
		<rect id="d" x="0" y="0" width="9" height="9" fill="blue"/>
	</defs>
	<g>
		<use xlink:href="#k" x="0" y="0"/>
		<use xlink:href="#k" x="10" y="0"/>
		<use xlink:href="#k" x="20" y="0"/>
		<use xlink:href="#k" x="30" y="0"/>
		<use xlink:href="#k" x="40" y="0"/>
		<use xlink:href="#k" x="50" y="0"/>

		<use xlink:href="#k" x="0" y="10"/>
		<use xlink:href="#k" x="50" y="10"/>

		<use xlink:href="#k" x="0" y="20"/>
		<use xlink:href="#k" x="20" y="20"/>
		<use xlink:href="#d" x="30" y="20"/>
		<use xlink:href="#k" x="40" y="20"/>
		<use xlink:href="#k" x="50" y="20"/>

		<use xlink:href="#k" x="0" y="30"/>
		<use xlink:href="#d" x="40" y="30"/>
		<use xlink:href="#k" x="50" y="30"/>

		<use xlink:href="#k" x="0" y="40"/>
		<use xlink:href="#d" x="20" y="40"/>
		<use xlink:href="#d" x="30" y="40"/>
		<use xlink:href="#d" x="40" y="40"/>
		<use xlink:href="#k" x="50" y="40"/>

		<use xlink:href="#k" x="0" y="50"/>
		<use xlink:href="#k" x="50" y="50"/>

		<use xlink:href="#k" x="0" y="60"/>
		<use xlink:href="#k" x="10" y="60"/>
		<use xlink:href="#k" x="20" y="60"/>
		<use xlink:href="#k" x="30" y="60"/>
		<use xlink:href="#k" x="40" y="60"/>
		<use xlink:href="#k" x="50" y="60"/>
	</g>
</svg>

