<svg width="69" height="69" xmlns="http://www.w3.org/2000/svg" xmlns:xlink="http://www.w3.org/1999/xlink"><defs><path id="k" d="M0 0h9v9H0z" fill="#000"/><path id="d" d="M0 0h9v9H0z" fill="blue"/></defs><g><use xlink:href="#k" x="0" y="0"/><use xlink:href="#k" x="10" y="0"/><use xlink:href="#k" x="20" y="0"/><use xlink:href="#k" x="30" y="0"/><use xlink:href="#k" x="40" y="0"/><use xlink:href="#k" x="50" y="0"/><use xlink:href="#k" x="0" y="10"/><use xlink:href="#k" x="50" y="10"/><use xlink:href="#k" x="0" y="20"/><use xlink:href="#k" x="20" y="20"/><use xlink:href="#d" x="30" y="20"/><use xlink:href="#k" x="40" y="20"/><use xlink:href="#k" x="50" y="20"/><use xlink:href="#k" x="0" y="30"/><use xlink:href="#d" x="40" y="30"/><use xlink:href="#k" x="50" y="30"/><use xlink:href="#k" x="0" y="40"/><use xlink:href="#d" x="20" y="40"/><use xlink:href="#d" x="30" y="40"/><use xlink:href="#d" x="40" y="40"/><use xlink:href="#k" x="50" y="40"/><use xlink:href="#k" x="0" y="50"/><use xlink:href="#k" x="50" y="50"/><use xlink:href="#k" x="0" y="60"/><use xlink:href="#k" x="10" y="60"/><use xlink:href="#k" x="20" y="60"/><use xlink:href="#k" x="30" y="60"/><use xlink:href="#k" x="40" y="60"/><use xlink:href="#k" x="50" y="60"/></g></svg>