<?xml version="1.0" standalone="no"?>
<!DOCTYPE svg PUBLIC "-//W3C//DTD SVG 20010904//EN"
 "http://www.w3.org/TR/2001/REC-SVG-20010904/DTD/svg10.dtd">
<svg version="1.0" xmlns="http://www.w3.org/2000/svg"
 width="700.000000pt" height="700.000000pt" viewBox="0 0 700.000000 700.000000"
 preserveAspectRatio="xMidYMid meet">
<metadata>
Created by potrace 1.11, written by Peter Selinger 2001-2013
</metadata>
<g transform="translate(0.000000,700.000000) scale(0.100000,-0.100000)"
fill="#000000" stroke="none">
<path d="M509 6963 c-3 -218 0 -865 4 -870 5 -4 827 -8 895 -4 9 1 12 99 12
456 l0 455 -455 0 -455 0 -1 -37z"/>
<path d="M1525 6988 c-2 -7 -3 -213 -2 -457 l2 -444 425 1 c234 0 439 1 455 1
l30 1 0 455 0 455 -453 0 c-353 0 -454 -3 -457 -12z"/>
<path d="M2538 6993 c-7 -15 -2 -892 5 -899 5 -5 734 -9 880 -5 l27 1 0 455 0
455 -454 0 c-250 0 -456 -3 -458 -7z"/>
<path d="M3550 6545 c0 -426 1 -455 18 -456 107 -4 884 0 889 5 4 4 8 209 8
457 l0 449 -457 0 -458 0 0 -455z"/>
<path d="M4568 6993 c-3 -7 -2 -871 1 -898 1 -7 153 -9 438 -8 241 1 445 2
454 2 15 1 17 43 17 456 l0 455 -454 0 c-249 0 -454 -3 -456 -7z"/>
<path d="M5580 6545 c0 -426 1 -455 18 -456 90 -4 884 0 888 4 5 4 8 763 5
890 -1 16 -30 17 -456 17 l-455 0 0 -455z"/>
<path d="M509 5935 c0 -64 0 -825 0 -846 1 -15 45 -16 456 -17 l455 0 0 457 0
456 -455 0 -455 0 -1 -50z"/>
<path d="M5580 5528 l0 -457 455 0 455 0 1 37 c0 46 0 806 0 847 l-1 31 -455
-1 -455 0 0 -457z"/>
<path d="M509 4953 c-1 -25 -1 -787 0 -848 l1 -50 432 2 c238 1 443 2 456 3
l22 0 0 455 0 455 -455 0 c-426 0 -455 -1 -456 -17z"/>
<path d="M2539 4963 c-6 -37 -2 -896 3 -900 6 -3 678 -6 876 -3 l32 0 0 455 0
455 -455 0 c-250 0 -456 -3 -456 -7z"/>
<path d="M3550 4515 c0 -427 1 -455 18 -455 26 -1 748 -1 827 0 l70 0 -1 447
c-1 247 -2 451 -3 456 -1 4 -206 7 -456 7 l-455 0 0 -455z"/>
<path d="M4568 4958 c-6 -20 -3 -886 4 -893 4 -5 556 -8 849 -6 l56 1 1 455 0
455 -453 0 c-353 0 -454 -3 -457 -12z"/>
<path d="M5580 4515 l0 -455 48 0 c26 -1 230 -2 454 -3 l408 -2 1 55 c0 66 0
794 -1 833 l0 27 -455 0 -455 0 0 -455z"/>
<path d="M509 3903 c0 -29 0 -228 0 -443 0 -214 0 -396 0 -403 1 -11 88 -13
456 -13 l455 0 0 456 0 456 -455 0 -455 0 -1 -53z"/>
<path d="M4567 3946 c-1 -6 -3 -211 -2 -456 l1 -445 456 0 456 -1 0 456 0 456
-454 0 c-310 0 -454 -3 -457 -10z"/>
<path d="M5582 3500 l3 -455 453 0 c401 -1 452 1 452 15 7 211 3 890 -5 892
-5 0 -211 2 -458 2 l-447 2 2 -456z"/>
<path d="M540 2942 l-35 -3 1 -452 2 -452 456 -3 456 -2 0 455 0 455 -182 1
c-101 0 -291 1 -423 2 -132 1 -256 1 -275 -1z"/>
<path d="M2541 2925 c-5 -15 -7 -853 -2 -887 0 -5 206 -8 456 -8 l455 0 0 455
0 455 -451 2 c-444 3 -452 3 -458 -17z"/>
<path d="M3703 2942 l-153 -3 0 -454 0 -455 457 2 457 3 1 449 c0 290 -4 450
-10 452 -13 5 -561 10 -752 6z"/>
<path d="M4635 2940 l-70 -5 1 -440 c1 -242 2 -446 3 -452 1 -10 99 -13 455
-13 l454 0 0 455 0 455 -47 0 c-25 0 -199 2 -386 3 -187 1 -371 0 -410 -3z"/>
<path d="M5678 2942 l-98 -3 0 -454 0 -455 455 0 455 0 1 38 c2 174 0 865 -4
868 -5 5 -669 10 -809 6z"/>
<path d="M509 1872 c0 -75 0 -834 0 -847 1 -7 150 -11 456 -10 l455 0 0 456 0
457 -455 0 -455 0 -1 -56z"/>
<path d="M5580 1471 l0 -457 449 1 c247 0 452 3 456 7 5 5 9 670 5 880 l0 26
-455 0 -455 0 0 -457z"/>
<path d="M517 910 c-9 -4 -12 -112 -12 -457 l0 -453 458 0 457 0 0 458 0 457
-445 0 c-245 0 -451 -2 -458 -5z"/>
<path d="M1553 912 l-31 -3 0 -455 0 -454 456 2 456 3 1 453 c0 296 -3 452
-10 453 -32 2 -845 3 -872 1z"/>
<path d="M2537 905 c-1 -5 -2 -210 -2 -455 l1 -445 457 -3 457 -2 0 455 c0
250 -3 455 -7 456 -5 0 -209 1 -455 2 -291 1 -449 -1 -451 -8z"/>
<path d="M3560 912 c-6 -2 -10 -164 -10 -458 l0 -454 458 0 457 0 0 455 c0
397 -2 455 -15 456 -44 3 -882 3 -890 1z"/>
<path d="M4595 910 l-30 -5 0 -450 1 -450 456 -3 456 -2 -1 457 -2 457 -425 0
c-234 1 -438 -1 -455 -4z"/>
<path d="M5603 912 l-23 -3 0 -455 0 -454 458 0 457 0 0 455 c0 250 -2 455 -5
456 -15 3 -869 3 -887 1z"/>
</g>
</svg>
