<svg xmlns="http://www.w3.org/2000/svg"><defs><font id="sinkin_sans700_bold" horiz-adv-x="770" ><font-face units-per-em="1e3" ascent="810" descent="-190" /><missing-glyph horiz-adv-x="310" /><glyph horiz-adv-x="1e3" /><glyph horiz-adv-x="1e3" /><glyph horiz-adv-x="333" /><glyph unicode="&#x9;" horiz-adv-x="1e3" /><glyph unicode="&#xa;" horiz-adv-x="1e3" /><glyph unicode="&#xd;" horiz-adv-x="1e3" /><glyph horiz-adv-x="1e3" /><glyph horiz-adv-x="1e3" /><glyph horiz-adv-x="1e3" /><glyph horiz-adv-x="1e3" /><glyph horiz-adv-x="1e3" /><glyph horiz-adv-x="1e3" /><glyph horiz-adv-x="1e3" /><glyph horiz-adv-x="310" /><glyph unicode="&#x09;" horiz-adv-x="310" /><glyph unicode="&#xa0;" horiz-adv-x="310" /><glyph unicode="!" horiz-adv-x="337" d="M71 810h195l-33-579H103zM76 89q0 45 24.5 72t68.5 27 68.5-27T262 89t-24.5-72T169-10q-45 0-69 27T76 89z" /><glyph unicode='"' horiz-adv-x="487" d="M55 840h155l-25-324H80zm222 0h155l-25-324H302z" /><glyph unicode="#" horiz-adv-x="799" d="M30 194v131h137l-5 15 35 130 12 16-102-1v131h137l-5 15 48 179h139l-47-180-12-14h177l-4 16 47 178h140l-48-179-12-15h102V485l-138 1 6-16-34-129-13-16h102V194l-137 1 4-16L512 0H372l47 180 13 15H254l5-16L212 0H72l47 179 13 16zM290 325h177l-4 15 34 130 12 16H331l5-16-34-130z" /><glyph unicode="$" horiz-adv-x="801" d="M55 123l116 110q87-78 168-93l-8 18v140l9 15q-3 1-12 3t-12 3q-54 14-92 29t-73 39-53 58.5T80 525q0 83 68.5 144T339 743l-8 15v81h151v-82l-8-17q72-11 129.5-41.5T720 607L603 494q-63 70-131 91l10-20V448l-9-13q6-2 18-5t13-3q113-27 170-83.5T731 210q0-86-66.5-149.5T473-14l9-15v-81H331v82l9 15Q174 8 55 123zM252 531q0-39 87-61l-8 17v88l9 18q-41-4-64.5-24T252 531zM474 136q47 8 68 26.5t21 38.5q0 21-21 42t-68 35l8-19V153z" /><glyph unicode="%" horiz-adv-x="1001" d="M30 589q0 98 52 165t148 67q97 0 148.5-66.5T430 589t-51-163.5T230 361 81 425.5 30 589zm133 0q0-107 67-107t67 107q0 59-16.5 85T230 7e2q-67 0-67-111zM288-10l296 830h129L418-10H288zM571 217q0 99 52 165.5T771 449q97 0 148.5-66.5T971 217 920 54 771-10 622 54.5 571 217zm133 0q0-106 67-106t67 106q0 112-67 112t-67-112z" /><glyph unicode="&#x26;" horiz-adv-x="858" d="M55 225q0 134 184 231-19 6-38 34-3 5-9 14t-7 11q-26 50-26 92 0 88 68 149.5T390 818t163.5-61T622 608q0-70-38.5-117T472 405l17-7 105-113 10-23q3 8 2.5 26.5T605 316h169v-41q0-34-14-73t-38-68l16-4L858-1H650l-28 31v17l-2-1q-90-58-229-58-92 0-166.5 25.5t-122 80T55 225zm173 0q0-39 40.5-62.5T391 138q82 0 123 25l-21 7-148 160-3 17-32-20q-24-14-39-25.5t-29-32-14-44.5zm94 380q0-5 1.5-10.5t3-10 5-10.5 6-9.5 7.5-9.5 7.5-8.5 8-9 6.5-7.5l3-17q33 15 52 28.5t28 29 9 35.5q0 25-19.5 43T391 667q-30 0-49.5-18T322 605z" /><glyph unicode="'" horiz-adv-x="265" d="M55 840h155l-25-324H80z" /><glyph unicode="(" horiz-adv-x="354" d="M40 358q0 275 153 549h150Q208 636 208 371q0-3e2 136-562H194Q113-46 76.5 85T40 358z" /><glyph unicode=")" horiz-adv-x="354" d="M10-191Q145 69 145 371q0 267-135 536h150q154-273 154-549 0-142-36.5-273T160-191H10z" /><glyph unicode="*" horiz-adv-x="583" d="M55 614l137 24-113 80 64 81 104-92-7 138h103l-7-139 103 93 65-81-114-81 138-24-23-1e2-134 38 67-122-94-45-53 128-54-128-93 45 67 121-133-37z" /><glyph unicode="+" horiz-adv-x="710" d="M90 333v144h203l-9 16v197h142V493l-9-16h203V333H417l9-16V120H284v197l9 16H90z" /><glyph unicode="," horiz-adv-x="316" d="M60 90q0 46 24 73.5t69 27.5 69-27.5T246 90q0-29-15-63l-91-217-80 34 54 128 25 20q-38 3-58.5 30T60 90z" /><glyph unicode="-" horiz-adv-x="425" d="M30 264v143h365V264H30z" /><glyph unicode="." horiz-adv-x="316" d="M60 91q0 46 24 73.5t69 27.5 69-27.5T246 91q0-45-24.5-73T153-10q-45 0-69 27.5T60 91z" /><glyph unicode="/" horiz-adv-x="308" d="M-70-50l298 910h150L80-50H-70z" /><glyph unicode="0" horiz-adv-x="830" d="M55 4e2q0 184 95 302t265 118q172 0 266-117.5T775 4e2q0-184-92.5-297T415-10 147.5 103 55 4e2zm172 0q0-258 187-258 190 0 190 258 0 268-189 268-94 0-141-70.5T227 4e2z" /><glyph unicode="1" horiz-adv-x="479" d="M20 594l218 216h141V0H209l1 512 8 82h-2l-47-65-44-44z" /><glyph unicode="2" horiz-adv-x="755" d="M55 163q-1 96 55.5 169T283 442l110 35q77 24 106.5 49t29.5 57q0 36-33.5 61T391 669q-121 0-215-110L57 675q72 76 152 110.5T386 820q152 0 233-69t81-169q0-172-232-247l-129-41q-109-34-114-127l-16-16h490V0H57z" /><glyph unicode="3" horiz-adv-x="788" d="M55 132l116 114q101-105 223-105 78 0 122.5 31t44.5 72q0 44-38 71.5T406 347l-147 4v143q115 2 142 4 143 11 143 91 0 34-36 57t-114 23q-126 0-216-97L60 687q134 133 334 133 158 0 240.5-64T717 595q0-53-34.5-99.5T595 426v-2q58-15 98-66.5T733 240q0-103-86.5-176.5T394-10q-103 0-183 33.5T55 132z" /><glyph unicode="4" horiz-adv-x="795" d="M40 174v113l477 523h133V342l-8-17h113V174H642l8-17V0H480v158l9 16H40zM270 325h219l-9 17v150l3 70h-2l-45-63-104-118-62-54v-2z" /><glyph unicode="5" horiz-adv-x="792" d="M55 142l117 114q53-64 102.5-90T387 140q91 0 134 40t43 95-41.5 96T397 412q-67 0-117.5-22.5T180 315L76 417l50 393h553V659H259l13-16-10-71-15-44 1-1q58 36 149 36 162 0 251-83.5T737 275q0-120-89.5-203T387-11q-109 0-185.5 35T55 142z" /><glyph unicode="6" horiz-adv-x="822" d="M55 401q4 192 109 305.5T433 820q184 0 298-115L614 588q-74 81-181 81-77 0-128.5-44T234 5e2h2q80 63 190 63 161 0 252-83.5T767 275q-2-75-39-138T610 31.5 416-11q-178 0-271 113.5T55 401zM246 274q-1-51 43-92.5T418 140q81 0 129 42.5t49 93.5-43 93.5T424 412q-82 0-129.5-43.5T246 274z" /><glyph unicode="7" horiz-adv-x="735" d="M30 658v152h675V691L477 418q-81-97-81-255V0H226v168q0 106 27 184.5T340 506l74 90 63 60v2H30z" /><glyph unicode="8" horiz-adv-x="827" d="M55 244q0 61 40.5 112T196 432v2q-46 19-79 60t-33 95q0 99 83.5 165T411 820t246.5-66T744 589q0-51-34.5-92.5T627 434v-2q58-19 101.5-71T772 244q0-102-96-178T414-10q-167 0-263 75.5T55 244zm173 2q0-35 46-70t139-35 139.5 35 46.5 70q0 41-48.5 75T413 355t-137-34-48-75zm29 337q0-29 38-58.5T413 495t118.5 29.5T570 583q0 31-34.5 58T414 668t-122-27-35-58z" /><glyph unicode="9" horiz-adv-x="822" d="M55 534q2 75 39 138t118 105.5T405 820q179 0 272-113.5T767 408q-4-191-108-305T391-11Q203-11 88 105l118 117q74-82 184-82 77 0 128.5 44T589 309h-2q-84-62-191-62-162 0-252.5 83T55 534zm171-1q-1-51 43-93t129-42q82 0 129.5 43.5T576 535q1 51-43 92.5T404 669q-81 0-129-42.5T226 533z" /><glyph unicode=":" horiz-adv-x="326" d="M70 91q0 46 24 73.5t69 27.5 69-27.5T256 91q0-45-24.5-73T163-10q-45 0-69 27.5T70 91zm0 425q0 46 24 73.5t69 27.5 69-27.5 24-73.5q0-45-24.5-73T163 415q-45 0-69 27.5T70 516z" /><glyph unicode=";" horiz-adv-x="326" d="M70 90q0 46 24 73.5t69 27.5 69-27.5T256 90q0-29-15-63l-91-217-80 34 54 128 25 20q-38 3-58.5 30T70 90zm0 426q0 46 24 73.5t69 27.5 69-27.5 24-73.5q0-45-24.5-73T163 415q-45 0-69 27.5T70 516z" /><glyph unicode="&#x3c;" horiz-adv-x="561" d="M55 402l312 323 104-104-162-168-60-48 32-26q30-26 61.5-57t69.5-69.5 59-59.5L367 89z" /><glyph unicode="=" horiz-adv-x="705" d="M90 213v142h525V213H90zm0 242v143h525V455H90z" /><glyph unicode="&#x3e;" horiz-adv-x="561" d="M90 193l162 164 59 47q-25 21-77 68L90 621l104 104 312-323L193 89z" /><glyph unicode="?" horiz-adv-x="719" d="M55 683q131 137 316 137 121 0 207-61t86-159q0-75-46.5-122.5T490 397q-2-2-16.5-6.5T458 384q-40-16-53.5-38.5T391 272v-41H227v52q0 99 41 152.5T397 523q1 2 11 4.5t11 3.5q38 14 55 29.5t17 39.5q0 30-37 51.5T371 673q-114 0-193-101zM217 89q0 45 24 72t68 27q45 0 69-27t24-72-24.5-72T309-10t-68 27-24 72z" /><glyph unicode="@" horiz-adv-x="990" d="M70 418q0 116 60.5 215t161 155.5T507 845q168 0 290.5-117T920 443q0-67-26.5-131t-83-110.5T680 155q-70 0-111 58h-2q-64-59-151-59-89 0-136.5 61T232 360q0 107 74.5 193.5T493 640q29 0 57-11t42-28h1l8 29h122l-69-261q-10-40-10-69 0-18 12.5-29.5T689 259q60 0 91.5 55.5T812 441q0 125-89.5 216.5T509 749q-136 0-234-98.5T177 415q0-145 96-244.5T511 71q93 0 187 64l73-70Q649-26 516-26q-191 0-318.5 126T70 418zm288-45q0-110 76-110 55 0 88.5 54T556 440q0 96-70 96-53 0-90.5-52.5T358 373z" /><glyph unicode="A" horiz-adv-x="959" d="M15 0l390 810h150L944 0H758l-85 178 10 15H276l10-15L202 0H15zM353 335h254l-17 16-84 176-25 74-2-1-25-73-84-176z" /><glyph unicode="B" horiz-adv-x="862" d="M90 0v810h409q134 0 208.5-67.5T782 576q0-103-76-154v-1q50-18 80.5-64.5T817 245q0-115-82.5-180T507 0H90zM244 152h263q77 0 107 24.5t30 70.5q0 98-137 98H244l16-16V168zm0 335h245q120 0 120 87 0 84-120 84H244l16-16V502z" /><glyph unicode="C" horiz-adv-x="860" d="M55 4e2q0 187 115 303t320 116q213 0 339-142L712 560q-79 108-222 108-132 0-197-73t-65-195q0-119 63.5-189T489 141q144 0 226 107l115-114Q696-11 489-11q-209 0-321.5 112T55 4e2z" /><glyph unicode="D" horiz-adv-x="898" d="M90 0v810h344q409 0 409-405T438 0H90zM244 152h184q76 0 126 18t74.5 55 33 78 8.5 102q0 60-9 101.5t-34 78-75.5 55T424 658H244l16-16V168z" /><glyph unicode="E" horiz-adv-x="830" d="M90 0v810h670V658H244l16-16V497l-16-16h468V329H244l16-16V168l-16-16h516V0H90z" /><glyph unicode="F" d="M90 0v810h650V658H244l16-15V479l-16-16 447-1V311H244l16-16V0H90z" /><glyph unicode="G" horiz-adv-x="960" d="M55 398q0 192 116.5 307T493 820q214 0 335-125L711 577q-79 92-218 92-133 0-199-70t-66-201q0-257 259-257 93 0 154 48.5T710 314l17 16H446v151h424V-1H723v77q-36-38-101-62T487-10q-203 0-317.5 110T55 398z" /><glyph unicode="H" horiz-adv-x="920" d="M90 0v810h170V497l-16-16h432l-16 16v313h170V0H660v313l16 16H244l16-16V0H90z" /><glyph unicode="I" horiz-adv-x="360" d="M95 0v810h170V0H95z" /><glyph unicode="J" horiz-adv-x="688" d="M0 124l115 115q32-45 76-71t86-26q67 0 111.5 36.5T433 301v509h170V306q0-68-18-122.5t-48-90T464.5 34t-89-34T276-10Q110-10 0 124z" /><glyph unicode="K" horiz-adv-x="894" d="M90 0v810h170V0H90zM269 409l375 4e2h237L489 408q0-1 1-2 13-11 114-112.5T8e2 96l94-96H656z" /><glyph unicode="L" horiz-adv-x="728" d="M90 0v810h170V167l-15-15h468V0H90z" /><glyph unicode="M" horiz-adv-x="1050" d="M90-1v811h140l259-449 35-85h2l34 85 260 449h140V-1H790v466h-2l-36-86L527-11h-4L298 379l-36 85h-2V-1H90z" /><glyph unicode="N" horiz-adv-x="920" d="M90 0v810h143l369-446 56-92h2v538h170V0H687L322 446l-60 95h-2V0H90z" /><glyph unicode="O" horiz-adv-x="944" d="M55 4e2q0 187 109 303.5T472 820q2e2.0 308.5-116.5T889 4e2q0-185-109.5-297.5T472-10q-2e2.0-308.5 112T55 4e2zm173 0q0-119 60-188.5T472 142q125 0 184.5 69T716 4e2q0 122-60 195t-184 73-184-72.5T228 4e2z" /><glyph unicode="P" horiz-adv-x="847" d="M90 0v810h407q142 0 223.5-72.5T802 547q0-114-82.5-189T497 283H244l16-15V0H90zM244 435h253q68 0 1e2 30t32 82q0 111-132 111H244l16-15V451z" /><glyph unicode="Q" horiz-adv-x="945" d="M55 399q0 187 109 304t308 117q2e2.0 308.5-116.5T889 399q0-177-96-283L901 7 799-96 673 30q-88-40-201-40-2e2.0-308.5 111.5T55 399zm173 0q0-120 60-189.5T472 140q52 0 71 6l15-1-92 93 102 102 114-113v21q34 59 34 151 0 122-60 195.5T472 668t-184-73-60-196z" /><glyph unicode="R" horiz-adv-x="885" d="M90 0v810h392q130 0 220-65t90-188q0-62-40.5-116.5T654 360v-2q50-22 82-84L880 0H689L578 214q-25 48-64.5 69.5T405 305H244l16-15V0H90zM244 450h228q73 0 110 29.5t37 73.5q0 105-137 105H244l16-15V466z" /><glyph unicode="S" horiz-adv-x="845" d="M50 133l118 118q122-110 273-110 93 0 137 25t44 62q0 60-129 92-60 13-150 37-61 16-104.5 33T154 433t-62.5 64.5T70 585q0 101 93.5 168T425 820q217 0 353-139L659 563q-43 49-105 77.5T423 669q-91 0-135.5-23.5T243 589q0-26 35.5-45T411 501q81-22 131-33 124-30 188.5-92T795 231q0-102-91.5-171.5T435-10Q199-10 50 133z" /><glyph unicode="T" d="M20 658v152h730V658H461l9-16V0H3e2v642l9 16H20z" /><glyph unicode="U" horiz-adv-x="932" d="M85 373v437h170V374q0-118 49-175t162-57q112 0 161.5 57T677 374v436h170V373q0-185-95-284T467-10q-191 0-286.5 98.5T85 373z" /><glyph unicode="V" horiz-adv-x="915" d="M15 810h189l228-520 25-81h2l26 81 228 520h187L533 0H382z" /><glyph unicode="W" horiz-adv-x="1139" d="M25 810h180l132-474 17-86h2l16 86 134 474h128l134-474 17-84h2l16 84 133 474h178L878 0H696L585 394l-17 90h-2l-17-90L438 0H261z" /><glyph unicode="X" horiz-adv-x="896" d="M20 0l322 405L20 810h214l170-215 44-70h2l42 70 170 215h212L554 406 876 0H661L492 216l-44 72h-2l-43-72L233 0H20z" /><glyph unicode="Y" horiz-adv-x="928" d="M15 810h213l188-255 47-80h2l47 80 189 255h212L550 334V0H379v334z" /><glyph unicode="Z" horiz-adv-x="860" d="M60 0v120l422 468 79 68v2H70v152h725V691L373 221l-73-67v-2h5e2V0H60z" /><glyph unicode="[" horiz-adv-x="334" d="M60-190V907h254V772H203V-55h111v-135H60z" /><glyph unicode="\" horiz-adv-x="388" d="M-30 860h150L418-50H268z" /><glyph unicode="]" horiz-adv-x="335" d="M20-55h112v827H20v135h255V-190H20v135z" /><glyph unicode="^" horiz-adv-x="762" d="M75 415l248 395h116l248-395H506L405 582l-23 52h-2l-23-52-101-167H75z" /><glyph unicode="_" horiz-adv-x="688" d="M-10-65h708v-130H-10v130z" /><glyph unicode="`" horiz-adv-x="745" d="M222 881l96 96 186-216-66-66z" /><glyph unicode="a" horiz-adv-x="758" d="M50 196q0 210 421 210 50 0 56-1l-17 16q-3 39-36.5 59.5T383 501q-105 0-185-53L95 552q123 87 290 87 134 0 214.5-62T680 391V-1H513v36h-2q-70-46-176-46-51 0-97.5 10T147 31 76.5 95.5 50 196zm166-2q0-33 36-49.5t89-16.5q172 0 172 69v60l16 16q-6 1-38 1t-53.5-.5T379 271t-61.5-7.5-50-13.5-38.5-22.5-13-33.5z" /><glyph unicode="b" horiz-adv-x="791" d="M83-1v841h167V581h2q27 27 74 43t101 16q153 0 233.5-90T741 314 660 79 427-10q-114 0-175 55h-2V-1H83zM241 314q0-180 167-180 166 0 166 180 0 182-167 182-166 0-166-182z" /><glyph unicode="c" horiz-adv-x="679" d="M50 311q0 142 90.5 235.5T389 640q161 0 260-99L539 431q-62 65-149 65-83 0-128-51.5T217 310q0-80 42-128.5T388 133q86 0 155 68L652 92Q544-10 387-10q-164 0-250.5 90T50 311z" /><glyph unicode="d" horiz-adv-x="791" d="M50 314q0 147 80 236.5T364 640q53 0 100.5-16t74.5-43h2v259h167V-1H541v46h-2q-61-55-176-55-152 0-232.5 89T50 314zm167 0q0-180 166-180t166 180q0 182-166 182T217 314z" /><glyph unicode="e" d="M50 310q0 146 90 238t247 92q161 0 247-92.5T720 310q0-33-4-60H213l15-16q18-49 61.5-77.5T396 128q91 0 164 60L661 86Q550-10 396-10q-168 0-257 89.5T50 310zm165 74h342l-16 16q-36 103-154 103-115 0-157-103z" /><glyph unicode="f" horiz-adv-x="488" d="M28 496v133h98l-8 16q0 92 64 146.5T351 846q73 0 119-17V695q-46 17-95 17-89 0-89-67l-10-16h194V496H277l8-16V0H118v481l8 15H28z" /><glyph unicode="g" horiz-adv-x="791" d="M50 336q0 131 85.5 217.5T374 640q46 0 93-15t72-38h2v43h167V68q0-136-82.5-209.5T385-215q-166 0-3e2 91L197-12q88-60 188-60 76 0 116 35.5T541 62v18h-2q-65-48-164-48-157 0-241 83T50 336zm167-2q0-74 42.5-116T383 176q166 0 166 158 0 75-42 119t-124 44-124-44.5T217 334z" /><glyph unicode="h" horiz-adv-x="788" d="M83 0v840h167V583h2q29 26 77.5 41t97.5 15q136 0 210-69t74-184L710 0H544v368q0 61-28 93.5T405 494q-70 0-112.5-35T250 361V0H83z" /><glyph unicode="i" horiz-adv-x="332" d="M77 764q0 40 25 66t65 26q39 0 64.5-26.5T257 764t-25.5-65.5T167 672q-40 0-65 26t-25 66zM83 0v630h167V0H83z" /><glyph unicode="j" horiz-adv-x="337" d="M-58-190l1 142q47-25 94-25 24 0 37.5 13.5T88-21v651h167V-26q0-95-51-142T57-215q-51 0-115 25zM81 764q0 39 25.5 65.5T171 856q40 0 65-26t25-66q0-39-25.5-65.5T171 672q-40 0-65 26t-25 66z" /><glyph unicode="k" horiz-adv-x="774" d="M83 0v840h167V0H83zM260 320l295 310h208L459 322v-2L774 0H560z" /><glyph unicode="l" horiz-adv-x="332" d="M83 0v840h167V0H83z" /><glyph unicode="m" horiz-adv-x="1065" d="M83 0v631h167v-45h2q59 54 145 54 53 0 97-24.5t67-64.5h2q31 40 79.5 64.5T744 640q121 0 182-71t61-201V0H819v347q0 84-18.5 116.5T727 496q-51 0-80-34t-29-89l1-373H451v369q0 70-19.5 98.5T359 496q-48 0-78.5-34T250 372V0H83z" /><glyph unicode="n" horiz-adv-x="788" d="M83 0v631h167v-55h2q71 64 182 64 127 0 202-66t75-183L710 0H544v375q0 63-27.5 92T405 496q-71 0-113-33.5T250 368V0H83z" /><glyph unicode="o" d="M50 315q0 144 86.5 234.5T384 640q163 0 249.5-90.5T720 315q0-143-87-234T385-10q-162 0-248.5 90.5T50 315zm167 0q0-84 42-133t126-49q85 0 126.5 48.5T553 315q0 84-41.5 132.5T385 496t-126.5-48T217 315z" /><glyph unicode="p" horiz-adv-x="791" d="M83-211v841h167v-46h2q61 55 175 55 152 0 233-89t81-235-80.5-236T427-11q-54 0-101 16t-74 43h-2v-259H83zM241 314q0-180 166-180 167 0 167 180 0 182-166 182-167 0-167-182z" /><glyph unicode="q" horiz-adv-x="791" d="M50 316q0 145 80.5 234T363 639q115 0 176-55h2v46h167v-841H541V48h-2q-27-27-74.5-43T364-11q-154 0-234 90T50 316zm167-2q0-180 166-180t166 180q0 182-166 182T217 314z" /><glyph unicode="r" horiz-adv-x="490" d="M83 0v630h167v-84h2q57 91 183 91h37V485h-50q-88 0-130-42t-42-131V0H83z" /><glyph unicode="s" horiz-adv-x="701" d="M50 108l107 108q39-42 93-65t109-23q65 0 94.5 16t29.5 37q0 17-16 29.5T401 235q-7 1-56.5 14T288 264q-46 12-80.5 25T139 323.5 87 377t-18 73q0 84 76 136.5T352 639q175 0 283-105L531 431q-73 71-178 71-43 0-71-9t-36.5-19.5T237 452q0-18 23.5-28.5T348 397q34-8 101-27 102-25 152-68.5T651 188q0-85-75-142T362-11Q188-11 50 108z" /><glyph unicode="t" horiz-adv-x="542" d="M28 496v134h92l-8 15v75l167 89V645l-9-15h195V496H270l9-15V212q0-38 17-58.5t46-20.5q47 0 93 50l98-98q-96-95-206-95-215 0-215 222v269l8 15H28z" /><glyph unicode="u" horiz-adv-x="780" d="M78 246v384h167V255q0-60 30.5-90.5T379 134q70 0 111 33.5t41 94.5v368h167V-1H531v55h-2q-64-64-175-64-139 0-208 68T78 246z" /><glyph unicode="v" horiz-adv-x="730" d="M9 630h185l138-338 31-95h2l31 95 140 338h185L440 0H289z" /><glyph unicode="w" horiz-adv-x="967" d="M13 630h176l87-312 18-106h2l20 106 98 312h139l99-312 20-107h2l18 107 87 312h175L758 0H588l-84 285-19 104h-2l-21-104L378 0H207z" /><glyph unicode="x" horiz-adv-x="738" d="M18 0l249 316L20 630h209l102-134 37-66h2l37 66 104 134h206L471 316 720 0H512L4e2 144l-31 56h-2l-30-56L225 0H18z" /><glyph unicode="y" horiz-adv-x="771" d="M14 630h184l165-351 32-94h2l28 94 149 351h184L452-59q-32-71-88.5-113.5T235-215q-80 0-155 37v151q86-45 139-45 58 0 94 86z" /><glyph unicode="z" horiz-adv-x="712" d="M55 0v112l295 314 74 56v2H62v145h592V521L356 208l-77-61v-2h378V0H55z" /><glyph unicode="{" horiz-adv-x="392" d="M40 302v114q40 7 56.5 27.5T113 501v231q0 163 126 179l143 3V785h-42q-57 0-71.5-13.5T254 707V503q0-55-13.5-87T189 359q44-27 54.5-55t10.5-90V11q0-51 14.5-64.5T340-67h42v-129q-122 0-143 3-126 16-126 179v221q0 42-15 65t-58 30z" /><glyph unicode="|" horiz-adv-x="379" d="M115-50v910h149V-50H115z" /><glyph unicode="}" horiz-adv-x="392" d="M10-67h43q56 0 70.5 13.5T138 11v203q0 62 10.5 90t54.5 55q-38 25-51.5 57T138 503v204q0 51-14 64.5T53 785H10v129q123 0 144-3 125-16 125-179V501q0-37 16.5-57.5T352 416V302q-43-7-58-30t-15-65V-14q0-163-125-179l-144-3v129z" /><glyph unicode="~" horiz-adv-x="635" d="M30 298q19 62 67.5 99.5T212 435q28 0 58-11.5t66.5-33T385 363q25-11 44-11 63 0 89 90l87-89q-20-62-68.5-98.5T423 218q-29 0-58.5 11.5t-66 32.5-48.5 27q-25 11-45 11-62 0-88-90z" /><glyph horiz-adv-x="1e3" /><glyph unicode="&#xa1;" horiz-adv-x="339" d="M72 0l32 579h130L266 0H72zm4 721q0 44 24.5 71.5T169 820q45 0 69.5-27.5T263 721t-25-72-69-28q-45 0-69 27.5T76 721z" /><glyph unicode="&#xa2;" horiz-adv-x="679" d="M50 4e2q0 143 90 236t227 97l-5 16 15 71h138l-17-81-11-16q95-26 162-90L539 524q-36 37-83 52l6-17-63-317-11-15q47 0 81.5 14.5T543 292l108-109Q538 80 387 80q-19 0-30 1l7-14-15-77H211l19 98 14 13q-94 34-144 113T50 4e2zm165 0q0-93 59-139l-4 20 55 283 13 16q-62-16-92.5-65T215 4e2z" /><glyph unicode="&#xa3;" horiz-adv-x="783" d="M55 0v134q72 33 98.5 68.5T169 313l6 17H72v150h64l-11 16q-11 55-11 82 0 123 80.5 182.5T416 820q180 0 297-136L598 569q-80 101-186 101-125 0-125-87 0-36 12-87l-6-16h247V330H327l11-17q11-105-43-159v-2h405V0H55z" /><glyph unicode="&#xa4;" horiz-adv-x="650" d="M55 583l92 89 70-69q49 27 108 27 57 0 107-27l71 69 92-89-70-73q27-51 27-107 0-59-27-109l68-70-90-90-71 69q-50-26-107-26-58 0-109 27l-70-69-90 90 69 71q-27 50-27 107t28 107zM231 403q0-39 27.5-66.5T325 309q40 0 67.5 27t27.5 67-27.5 68-67.5 28-67-28-27-68z" /><glyph unicode="&#xa5;" horiz-adv-x="948" d="M25 810h213l189-258 46-82h2l45 82 191 258h212L669 478l-19-16 137 2V335l-232-1 5-11v-45l-5-10h232V139H552l8-16V0H389v123l8 16H163v129h232l-6 11v46l7 10H163v129h134l-18 15z" /><glyph unicode="&#xa6;" horiz-adv-x="356" d="M104-50v409h148V-50H104zm0 5e2v410h148V450H104z" /><glyph unicode="&#xa7;" horiz-adv-x="713" d="M49 361q0 96 106 178-36 47-36 96 0 37 14.5 68t39 52 57.5 36 68.5 21.5T371 819q154 0 286-134L547 578q-82 96-176 96-39 0-57.5-12T295 634q0-12 10-24t28.5-25 30.5-19.5 31-16.5q11-6 34-17.5t34-17.5q35-19 56-30.5t53.5-35T623 404t32-51 14-63q0-98-95-178 43-51 43-116 0-51-21.5-90T538-155.5t-78.5-34T371-201q-84 0-156 29.5T72-76L186 36q84-90 185-90 69 0 69 48 0 15-14 32-22 23-57 45t-84.5 47-69.5 37q-75 42-120.5 89.5T49 361zm169 9q0-37 74-79l160-87q47 39 47 72 0 10-4.5 19.5t-10 16T468 326t-17 12-18.5 11-15.5 9l-149 84q-50-43-50-72z" /><glyph unicode="&#xa8;" horiz-adv-x="745" d="M156 789q0 37 19.5 59.5T231 871q37 0 56.5-22.5T307 789q0-36-20-59t-56-23-55.5 22.5T156 789zm253 0q0 37 19.5 59.5T484 871q37 0 56.5-22.5T560 789q0-36-20-59t-56-23-55.5 22.5T409 789z" /><glyph unicode="&#xa9;" horiz-adv-x="970" d="M53 401q0 179 126.5 305.5T485 833t305.5-126.5T917 401 790.5 94.5 485-33 179.5 94.5 53 401zm103 0q0-137 97-237.5T485 63t232 100.5T814 401q0 136-97.5 236.5T485 738 253.5 637.5 156 401zm76-5q0 120 67 198.5T483 673q122 0 198-82l-75-78q-51 55-123 55-69-1-106-48.5T340 396q0-74 35-118.5T482 233t129 61l76-76q-84-91-205-91-122 0-186 75t-64 194z" /><glyph unicode="&#xaa;" horiz-adv-x="492" d="M30 525q0 147 285 144h25q-10 12-10 13-3 44-89 44-74 0-124-42l-72 69q87 67 197 67 37 0 69.5-8t62-25 46.5-49.5 17-76.5V393H330v23q-44-29-110-29-34 0-65 7t-60.5 21.5-47 43T30 525zm107 0q0-20 23-31t61-11q109 0 109 42v40l11 12h-22q-23 0-36-.5t-38.5-1.5-41-4.5-32.5-9-25.5-14.5-8.5-22z" /><glyph unicode="&#xab;" horiz-adv-x="773" d="M55 255l233 229 103-104-93-94-44-32 44-30 93-94L288 26zm327 0 233 229 103-104-93-94-44-32 44-30 93-94L615 26z" /><glyph unicode="&#xac;" horiz-adv-x="583" d="M30 235v135h523V50H406v185H30z" /><glyph unicode="&#xad;" horiz-adv-x="425" d="M30 264v143h365V264H30z" /><glyph unicode="&#xae;" horiz-adv-x="970" d="M53 401q0 179 126.5 305.5T485 833t305.5-126.5T917 401 790.5 94.5 485-33 179.5 94.5 53 401zm103-1q0-136 97-236.5T485 63t232 100.5T814 4e2t-97.5 237T485 738 253.5 637 156 4e2zM292 162v476h208q69 0 117.5-39T666 486q0-35-24-68.5T588 372q27-14 43-48l72-162H587l-55 127q-11 26-25.5 36T460 335h-71l6-14V162H292zm97 276h115q57 0 57 48 0 50-61 50H389l6-14v-70z" /><glyph unicode="&#xaf;" horiz-adv-x="752" d="M194 737v105h406V737H194z" /><glyph unicode="&#xb0;" horiz-adv-x="446" d="M30 622q0 87 46.5 142T210 819q88 0 134.5-54.5T391 622q0-86-47-141.5T210 425 76.5 480 30 622zm101 0q0-44 20-69t59-25q79 0 79 94 0 95-79 95t-79-95z" /><glyph unicode="&#xb1;" horiz-adv-x="710" d="M90 16v144h530V16H90zm0 413v144h203l-9 16v197h142V589l-9-16h203V429H417l9-16V216H284v197l9 16H90z" /><glyph unicode="&#xb2;" horiz-adv-x="466" d="M55 725q80 90 185 90 82 0 126.5-39.5T411 679q0-99-126-139l-64-22q-38-12-45-44 0-1-1.5-3l-3-4t-1.5-3h240V361H61v93q0 54 30.5 99t92.5 66l54 18q58 18 58 42 0 32-57 32-63 0-108-61z" /><glyph unicode="&#xb3;" horiz-adv-x="501" d="M55 443l78 74q30-33 56-46t63-13q31 0 50.5 8.5t25 17T333 499q0 43-71 49l-85 2v94q68 2 82 3 27 3 42.5 12t19 16 3.5 14q0 28-71 28-38 0-64.5-11T135 664l-76 71q47 47 91.5 66T254 820q88 0 136-36.5t48-94.5q0-22-15-47.5T387 602l1-1q58-36 58-1e2.0-63-55.5-104.5T252 355q-118 0-197 88z" /><glyph unicode="&#xb4;" horiz-adv-x="755" d="M249 761l185 216 97-96-217-186z" /><glyph unicode="&#xb5;" horiz-adv-x="748" d="M83-210v840h167V259q0-61 32-93t85-32q64 0 97 33t33 95v368h169V-6H497v36l-1-1q-59-45-137-45-66 0-120 40l-1-1v-233H83z" /><glyph unicode="&#xb6;" d="M0 543q0 110 84.5 188.5T287 810h413V663h-76l8-16v-828H472v827l8 17h-78l9-16v-828H250v452q-1 0-1.5 4t-1.5 4q-107 14-177 88T0 543z" /><glyph unicode="&#xb7;" horiz-adv-x="316" d="M60 406q0 45 24 72.5t69 27.5 69-27.5 24-72.5-24.5-73-68.5-28q-45 0-69 27.5T60 406z" /><glyph unicode="&#xb8;" horiz-adv-x="765" d="M296-164l74 73q28 27 4 51L330 4h104l32-31q25-25 25.5-53T465-136l-98-98z" /><glyph unicode="&#xb9;" horiz-adv-x="331" d="M30 691l128 119h98V355H143v274l9 49q-14-17-35-46l-13-13z" /><glyph unicode="&#xba;" horiz-adv-x="519" d="M30 604q0 95 56 155.5T247 820t161-60 56-156-56.5-156.5T247 387q-105 0-161 60.5T30 604zm107 0q0-57 27.5-89t82.5-32 82.5 32 27.5 89q0 56-27.5 88T247 724q-110 0-110-120z" /><glyph unicode="&#xbb;" horiz-adv-x="773" d="M55 130l92 94q29 20 45 30l-45 32-92 94 103 104 233-229L158 26zm327 0 92 94q29 20 45 30l-45 32-92 94 103 104 233-229L485 26z" /><glyph unicode="&#xbc;" horiz-adv-x="872" d="M30 691l128 119h98V355H143v274l9 49q-14-17-35-46l-13-13zM176-10l297 830h119L295-10H176zM423 92v78l249 284h96V206l-3-10h52V92h-53l3-11 1-82H654v81l3 12H423zM570 195h87l-4 9 1 89-16-25-45-52z" /><glyph unicode="&#xbd;" horiz-adv-x="897" d="M30 691l128 119h98V355H143v274l9 49q-14-17-35-46l-13-13zM177-10l297 830h120L297-10H177zM487 363q79 91 184 91 82 0 126.5-39.5T842 318q0-99-125-140l-64-21q-39-13-45-45 0-3-6-9h240V-1H493v94q0 53 30.5 98t92.5 66l54 18q35 12 46.5 21.5T728 318q0 32-57 32-63 0-108-62z" /><glyph unicode="&#xbe;" horiz-adv-x="1025" d="M55 443l78 74q30-33 56-46t63-13q31 0 50.5 8.5t25 17T333 499q0 43-71 49l-85 2v94q68 2 82 3 27 3 42.5 12t19 16 3.5 14q0 28-71 28-38 0-64.5-11T135 664l-76 71q47 47 91.5 66T254 820q88 0 136-36.5t48-94.5q0-22-15-47.5T387 602l1-1q58-36 58-1e2.0-63-55.5-104.5T252 355q-118 0-197 88zM328-10l297 830h120L448-10H328zM575 92v78l250 284h96V206l-3-10h52V92h-53l3-11 1-82H807v81l3 12H575zM723 195h87l-4 9 1 89-16-25-45-52z" /><glyph unicode="&#xbf;" horiz-adv-x="719" d="M55 209q0 76 46.5 123T229 412q2 2 16.5 7t15.5 6q40 16 53.5 39t13.5 74v41h164v-52q0-99-41-153t-129-87q-1-2-11-4.5t-11-3.5q-38-15-55-30.5T228 210q0-30 37-51.5t83-21.5q113 0 193 1e2l123-111Q534-10 348-10q-121 0-207 60.5T55 209zM317 721q0 45 24 72t68 27q45 0 69-27t24-72-24-72.5-68-27.5q-45 0-69 27t-24 73z" /><glyph unicode="&#xc0;" horiz-adv-x="959" d="M15 0l390 810h150L944 0H758l-85 178 10 15H276l10-15L202 0H15zM348 1059l96 96 186-217-65-65zm5-724h254l-17 16-84 176-25 74-2-1-25-73-84-176z" /><glyph unicode="&#xc1;" horiz-adv-x="959" d="M15 0l390 810h150L944 0H758l-85 178 10 15H276l10-15L202 0H15zM336 939l186 217 96-97-217-186zm17-604h254l-17 16-84 176-25 74-2-1-25-73-84-176z" /><glyph unicode="&#xc2;" horiz-adv-x="959" d="M15 0l390 810h150L944 0H758l-85 178 10 15H276l10-15L202 0H15zM278 935l202 2e2h2l2e2-2e2-63-63-139 114-139-114zm75-6e2h254l-17 16-84 176-25 74-2-1-25-73-84-176z" /><glyph unicode="&#xc3;" horiz-adv-x="959" d="M15 0l390 810h150L944 0H758l-85 178 10 15H276l10-15L202 0H15zM236 937q15 51 57 87.5t95 36.5q27 0 53-10t58-29 43-24q23-10 39-10 60 0 81 78l68-68q-18-56-60.5-89.5T575 875q-46 0-108 38-57 34-85 34-56 0-79-77zM353 335h254l-17 16-84 176-25 74-2-1-25-73-84-176z" /><glyph unicode="&#xc4;" horiz-adv-x="959" d="M15 0l390 810h150L944 0H758l-85 178 10 15H276l10-15L202 0H15zM278 982q0 36 19.5 59t55.5 23q37 0 56.5-22.5T429 982t-20-59.5-56-22.5-55.5 22.5T278 982zm75-647h254l-17 16-84 176-25 74-2-1-25-73-84-176zM531 982q0 36 19.5 59t55.5 23q37 0 56.5-22.5T682 982t-20-59.5-56-22.5-55.5 22.5T531 982z" /><glyph unicode="&#xc5;" horiz-adv-x="959" d="M15 0l390 810h150L944 0H758l-85 178 10 15H276l10-15L202 0H15zM353 335h254l-17 16-84 176-25 74-2-1-25-73-84-176zm5 665q0 56 31.5 91t90.5 35 90.5-35 31.5-91q0-55-31.5-90T480 875t-90.5 35-31.5 90zm81 0q0-45 41-45 42 0 42 45 0 46-42 46-41 0-41-46z" /><glyph unicode="&#xc6;" horiz-adv-x="1160" d="M15 0l390 810h685V658H702l8-16V497l-11-16h343V329H699l11-16V168l-11-16h391V0H540l-1 171 10 16H277l5-17L201 0H15zM352 339h198l-10 16v287l9 16h-52l7-16-136-289z" /><glyph unicode="&#xc7;" horiz-adv-x="860" d="M55 4e2q0 187 115 303t320 116q213 0 339-142L712 560q-79 108-222 108-132 0-197-73t-65-195q0-119 63.5-189T489 141q144 0 226 107l115-114Q708 1 522-9l17-16q26-24 26.5-54T539-136l-98-99-71 71 73 73q26 26 5 47L410-6Q238 15 146.5 123.5T55 4e2z" /><glyph unicode="&#xc8;" horiz-adv-x="830" d="M90 0v810h670V658H244l16-16V497l-16-16h468V329H244l16-16V168l-16-16h516V0H90zM272 1061l96 96 186-217-65-65z" /><glyph unicode="&#xc9;" horiz-adv-x="830" d="M90 0v810h670V658H244l16-16V497l-16-16h468V329H244l16-16V168l-16-16h516V0H90zM315 939l186 217 96-96-217-186z" /><glyph unicode="&#xca;" horiz-adv-x="830" d="M90 0v810h670V658H244l16-16V497l-16-16h468V329H244l16-16V168l-16-16h516V0H90zM231 935l202 2e2h2l2e2-2e2-63-63-139 114-139-114z" /><glyph unicode="&#xcb;" horiz-adv-x="830" d="M90 0v810h670V658H244l16-16V497l-16-16h468V329H244l16-16V168l-16-16h516V0H90zM230 982q0 37 19.5 59.5T305 1064q37 0 56.5-22.5T381 982q0-36-20-58.5T305 901t-55.5 22-19.5 59zm253 0q0 37 19.5 59.5T558 1064q37 0 56.5-22.5T634 982q0-36-20-58.5T558 901t-55.5 22-19.5 59z" /><glyph unicode="&#xcc;" horiz-adv-x="360" d="M19 1061l96 96 186-217-65-65zM95 0v810h170V0H95z" /><glyph unicode="&#xcd;" horiz-adv-x="360" d="M50 939l186 217 97-97-217-186zM95 0v810h170V0H95z" /><glyph unicode="&#xce;" horiz-adv-x="360" d="M-23 935l202 2e2h2l2e2-2e2-62-63-140 114L40 872zM95 0v810h170V0H95z" /><glyph unicode="&#xcf;" horiz-adv-x="360" d="M-21 981q0 37 19.5 59.5T54 1063q37 0 56.5-22.5T130 981q0-36-20-58.5T55 9e2q-36 0-56 22.5T-21 981zM95 0v810h170V0H95zM232 981q0 37 19.5 59.5T307 1063q37 0 56.5-22.5T383 981q0-36-20-58.5T308 9e2q-36 0-56 22.5T232 981z" /><glyph unicode="&#xd0;" horiz-adv-x="898" d="M25 329v152h74l-9 16v313h344q409 0 409-405T438 0H90v313l9 16H25zM251 152h177q76 0 126 18t74.5 55 33 78 8.5 102q0 60-9 101.5T627 585t-75.5 55.5T424 659H251l9-27V497l-9-16h204V329H251l9-16V179z" /><glyph unicode="&#xd1;" horiz-adv-x="920" d="M90 0v810h143l369-446 56-92h2v538h170V0H687L322 446l-60 95h-2V0H90zM211 938q14 51 56.5 87.5T363 1062q26 0 53-10.5t57.5-28.5 43.5-24q23-10 38-10 62 0 82 77l67-68q-17-56-59.5-89T550 876q-26 0-51.5 10T441 914.5 398 938q-25 10-41 10-56 0-80-77z" /><glyph unicode="&#xd2;" horiz-adv-x="944" d="M55 4e2q0 187 109 303.5T472 820q2e2.0 308.5-116.5T889 4e2q0-185-109.5-297.5T472-10q-2e2.0-308.5 112T55 4e2zm173 0q0-119 60-188.5T472 142q125 0 184.5 69T716 4e2q0 122-60 195t-184 73-184-72.5T228 4e2zm86 661 97 96 185-217-65-65z" /><glyph unicode="&#xd3;" horiz-adv-x="944" d="M55 4e2q0 187 109 303.5T472 820q2e2.0 308.5-116.5T889 4e2q0-185-109.5-297.5T472-10q-2e2.0-308.5 112T55 4e2zm173 0q0-119 60-188.5T472 142q125 0 184.5 69T716 4e2q0 122-60 195t-184 73-184-72.5T228 4e2zM347 939l186 217 96-96-217-186z" /><glyph unicode="&#xd4;" horiz-adv-x="944" d="M55 4e2q0 187 109 303.5T472 820q2e2.0 308.5-116.5T889 4e2q0-185-109.5-297.5T472-10q-2e2.0-308.5 112T55 4e2zm173 0q0-119 60-188.5T472 142q125 0 184.5 69T716 4e2q0 122-60 195t-184 73-184-72.5T228 4e2zm42 535 202 2e2h2l2e2-2e2-62-63-140 114-139-114z" /><glyph unicode="&#xd5;" horiz-adv-x="944" d="M55 4e2q0 187 109 303.5T472 820q2e2.0 308.5-116.5T889 4e2q0-185-109.5-297.5T472-10q-2e2.0-308.5 112T55 4e2zM219 937q14 51 56.5 87.5T371 1061q27 0 53.5-10.5t57-28.5 43.5-24q23-10 38-10 61 0 82 78l67-68q-17-56-59.5-89.5T558 875q-46 0-108 38-57 34-85 34-56 0-80-77zm9-537q0-119 60-188.5T472 142q125 0 184.5 69T716 4e2q0 122-60 195t-184 73-184-72.5T228 4e2z" /><glyph unicode="&#xd6;" horiz-adv-x="944" d="M55 4e2q0 187 109 303.5T472 820q2e2.0 308.5-116.5T889 4e2q0-185-109.5-297.5T472-10q-2e2.0-308.5 112T55 4e2zm173 0q0-119 60-188.5T472 142q125 0 184.5 69T716 4e2q0 122-60 195t-184 73-184-72.5T228 4e2zm42 582q0 36 19.5 59t55.5 23q37 0 56.5-22.5T421 982t-20-59.5-56-22.5-55.5 22.5T270 982zm253 0q0 36 19.5 59t55.5 23q37 0 56.5-22.5T674 982t-20-59.5-56-22.5-55.5 22.5T523 982z" /><glyph unicode="&#xd7;" horiz-adv-x="665" d="M75 246l163 159L75 564l99 98 158-162 159 162 99-98-163-159 163-159-99-98-158 162-159-162z" /><glyph unicode="&#xd8;" horiz-adv-x="944" d="M55 4e2q0 187 109 304t308 117q81 0 155-23v17l31 51 99-59-26-44-13-8q171-115 171-355 0-186-110-299T472-12q-110 0-187 33l2-18-49-85-1e2 59 48 82 16 7q-72 56-109.5 142.5T55 4e2zm173 0q0-116 59-187l1 21 243 416 15 9q-29 10-74 10-124 0-184-73t-60-196zM369 159q40-18 103-18 125 0 184.5 69.5T716 4e2q0 151-81 216v-17L384 169z" /><glyph unicode="&#xd9;" horiz-adv-x="932" d="M85 373v437h170V374q0-118 49-175t162-57q112 0 161.5 57T677 374v436h170V373q0-185-95-284T467-10q-191 0-286.5 98.5T85 373zm223 688 97 96 185-217-65-65z" /><glyph unicode="&#xda;" horiz-adv-x="932" d="M85 373v437h170V374q0-118 49-175t162-57q112 0 161.5 57T677 374v436h170V373q0-185-95-284T467-10q-191 0-286.5 98.5T85 373zM331 939l186 217 96-97-217-186z" /><glyph unicode="&#xdb;" horiz-adv-x="932" d="M85 373v437h170V374q0-118 49-175t162-57q112 0 161.5 57T677 374v436h170V373q0-185-95-284T467-10q-191 0-286.5 98.5T85 373zM262 935l2e2 2e2h2l202-2e2-63-63-139 114-139-114z" /><glyph unicode="&#xdc;" horiz-adv-x="932" d="M85 373v437h170V374q0-118 49-175t162-57q112 0 161.5 57T677 374v436h170V373q0-185-95-284T467-10q-191 0-286.5 98.5T85 373zM264 982q0 36 19.5 59t55.5 23q37 0 56.5-22.5T415 982t-20-59.5-55-22.5q-37 0-56.5 22.5T264 982zm253 0q0 36 19.5 59t55.5 23q37 0 56.5-22.5T668 982t-20-59.5-55-22.5q-37 0-56.5 22.5T517 982z" /><glyph unicode="&#xdd;" horiz-adv-x="938" d="M15 810h213l195-259 45-77h2l44 77 197 259h212L555 334V0H384v334zM345 938l186 217 96-96-216-186z" /><glyph unicode="&#xde;" horiz-adv-x="847" d="M90 0v810h169V683l-16-16h254q142 0 223.5-72.5T802 404q0-114-82.5-188.5T497 141H244l16-16V0H90zM244 292h253q68 0 1e2 30t32 82q0 112-132 112H244l16-17V309z" /><glyph unicode="&#xdf;" horiz-adv-x="732" d="M72-1l1 625q0 115 73.5 168T337 845q133 0 213-63.5T630 610q0-44-23-84.5T546 463v-2q61-18 102.5-74.5T690 254q0-115-80-190T407-11q-80 0-139 22v158q66-30 130-30 58 0 91.5 30t33.5 84-36 87-95 33H270v148l85-1q107-1 107 85 0 41-35 66t-91 25q-55 0-75.5-21.5T240 6e2V-1H72z" /><glyph unicode="&#xe0;" horiz-adv-x="758" d="M50 196q0 210 421 210 50 0 56-1l-17 16q-3 39-36.5 59.5T383 501q-105 0-185-53L95 552q123 87 290 87 134 0 214.5-62T680 391V-1H513v36h-2q-70-46-176-46-51 0-97.5 10T147 31 76.5 95.5 50 196zm166-2q0-33 36-49.5t89-16.5q172 0 172 69v60l16 16q-6 1-38 1t-53.5-.5T379 271t-61.5-7.5-50-13.5-38.5-22.5-13-33.5zm13 687 96 96 186-216-66-66z" /><glyph unicode="&#xe1;" horiz-adv-x="758" d="M50 196q0 210 421 210 50 0 56-1l-17 16q-3 39-36.5 59.5T383 501q-105 0-185-53L95 552q123 87 290 87 134 0 214.5-62T680 391V-1H513v36h-2q-70-46-176-46-51 0-97.5 10T147 31 76.5 95.5 50 196zm166-2q0-33 36-49.5t89-16.5q172 0 172 69v60l16 16q-6 1-38 1t-53.5-.5T379 271t-61.5-7.5-50-13.5-38.5-22.5-13-33.5zm41 567 186 216 96-96-217-186z" /><glyph unicode="&#xe2;" horiz-adv-x="758" d="M50 196q0 210 421 210 50 0 56-1l-17 16q-3 39-36.5 59.5T383 501q-105 0-185-53L95 552q123 87 290 87 134 0 214.5-62T680 391V-1H513v36h-2q-70-46-176-46-51 0-97.5 10T147 31 76.5 95.5 50 196zM163 759l202 2e2h2l201-2e2-63-63-140 114-139-114zm53-565q0-33 36-49.5t89-16.5q172 0 172 69v60l16 16q-6 1-38 1t-53.5-.5T379 271t-61.5-7.5-50-13.5-38.5-22.5-13-33.5z" /><glyph unicode="&#xe3;" horiz-adv-x="758" d="M50 196q0 210 421 210 50 0 56-1l-17 16q-3 39-36.5 59.5T383 501q-105 0-185-53L95 552q123 87 290 87 134 0 214.5-62T680 391V-1H513v36h-2q-70-46-176-46-51 0-97.5 10T147 31 76.5 95.5 50 196zm71 578q14 51 56.5 87.5T273 898q45 0 110-38 52-35 83-35 60 0 81 78l68-68q-18-56-60.5-89.5T460 712q-46 0-108 38-57 34-85 34-56 0-79-77zm95-580q0-17 10.5-30t28-20.5T294 132t47-4 49 2 55 8.5 49.5 21.5 18.5 37v60l16 16q-6 1-38 1h-39t-42.5-1-47-3.5-43.5-6-41-9.5-32-14-22.5-20-7.5-26z" /><glyph unicode="&#xe4;" horiz-adv-x="758" d="M50 196q0 210 421 210 50 0 56-1l-17 16q-3 39-36.5 59.5T383 501q-105 0-185-53L95 552q123 87 290 87 134 0 214.5-62T680 391V-1H513v36h-2q-70-46-176-46-51 0-97.5 10T147 31 76.5 95.5 50 196zM164 789q0 37 19.5 59.5T239 871q37 0 56.5-22.5T315 789q0-36-20-59t-56-23-55.5 22.5T164 789zm52-595q0-33 36-49.5t89-16.5q172 0 172 69v60l16 16q-6 1-38 1t-53.5-.5T379 271t-61.5-7.5-50-13.5-38.5-22.5-13-33.5zM417 789q0 37 19.5 59.5T492 871q37 0 56.5-22.5T568 789q0-36-20-59t-56-23-55.5 22.5T417 789z" /><glyph unicode="&#xe5;" horiz-adv-x="758" d="M50 196q0 210 421 210 50 0 56-1l-17 16q-3 39-36.5 59.5T383 501q-105 0-185-53L95 552q123 87 290 87 134 0 214.5-62T680 391V-1H513v36h-2q-70-46-176-46-51 0-97.5 10T147 31 76.5 95.5 50 196zm166-2q0-33 36-49.5t89-16.5q172 0 172 69v60l16 16q-6 1-38 1t-53.5-.5T379 271t-61.5-7.5-50-13.5-38.5-22.5-13-33.5zm45 626q0 56 31 90.5t90 34.5 90.5-34.5T504 820q0-55-31.5-90T383 695q-59 0-90.5 34.5T261 820zm80 0q0-45 42-45 41 0 41 45 0 46-41 46-42 0-42-46z" /><glyph unicode="&#xe6;" horiz-adv-x="1189" d="M50 198q0 210 411 210l55-1-16 17q-4 80-124 80-109 0-183-60L91 546q121 93 282 93 153 0 228-103l2 1q35 46 93 74.5T822 640q148 0 232.5-95.5T1139 310q0-8-4-65H659l15-16q37-1e2 152-1e2 87 0 162 66l102-99Q976-9 826-9 696-9 596 85l-1-1q-80-95-253-95-55 0-104 11t-92.5 34T76 99.5 50 198zm168-2q0-64 124-64 163 0 163 70v55l14 18h-32q-35 0-53-.5t-56.5-2-61-7-48-13.5-38-22.5T218 196zM659 385h323l-14 16q-39 101-146 101-108 0-148-101z" /><glyph unicode="&#xe7;" horiz-adv-x="679" d="M50 311q0 142 90.5 235.5T389 640q161 0 260-99L539 431q-62 65-149 65-83 0-128-51.5T217 310q0-80 42-128.5T388 133q86 0 155 68L652 92Q557 2 422-9l17-16q26-24 26.5-54T439-136l-98-99-71 71 73 73q28 28 6 48L311-4Q183 16 116.5 102T50 311z" /><glyph unicode="&#xe8;" d="M50 310q0 146 90 238t247 92q161 0 247-92.5T720 310q0-33-4-60H213l15-16q18-49 61.5-77.5T396 128q91 0 164 60L661 86Q550-10 396-10q-168 0-257 89.5T50 310zm165 74h342l-16 16q-36 103-154 103-115 0-157-103zm10 497 96 96 186-216-66-66z" /><glyph unicode="&#xe9;" d="M50 310q0 146 90 238t247 92q161 0 247-92.5T720 310q0-33-4-60H213l15-16q18-49 61.5-77.5T396 128q91 0 164 60L661 86Q550-10 396-10q-168 0-257 89.5T50 310zm165 74h342l-16 16q-36 103-154 103-115 0-157-103zm41 377 186 216 96-96-217-186z" /><glyph unicode="&#xea;" d="M50 310q0 146 90 238t247 92q161 0 247-92.5T720 310q0-33-4-60H213l15-16q18-49 61.5-77.5T396 128q91 0 164 60L661 86Q550-10 396-10q-168 0-257 89.5T50 310zM183 759l202 2e2h2l201-2e2-63-63-140 114-139-114zm32-375h342l-16 16q-36 103-154 103-115 0-157-103z" /><glyph unicode="&#xeb;" d="M50 310q0 146 90 238t247 92q161 0 247-92.5T720 310q0-33-4-60H213l15-16q18-49 61.5-77.5T396 128q91 0 164 60L661 86Q550-10 396-10q-168 0-257 89.5T50 310zM180 789q0 37 19.5 59.5T256 871q36 0 55.5-22.5T331 789q0-36-20-59t-55-23q-36 0-56 22.5T180 789zm35-405h342l-16 16q-36 103-154 103-115 0-157-103zM433 789q0 37 19.5 59.5T509 871q36 0 55.5-22.5T584 789q0-36-20-59t-55-23q-36 0-56 22.5T433 789z" /><glyph unicode="&#xec;" horiz-adv-x="332" d="M10 881l96 96 186-216-66-66zM83 0v630h167V0H83z" /><glyph unicode="&#xed;" horiz-adv-x="332" d="M29 761l186 216 96-96L94 695zM83 0v630h167V0H83z" /><glyph unicode="&#xee;" horiz-adv-x="332" d="M-36 759l202 2e2h2l201-2e2-63-63-140 114L27 696zM83 0v630h167V0H83z" /><glyph unicode="&#xef;" horiz-adv-x="332" d="M-36 789q0 37 19.5 59.5T39 871q37 0 56.5-22.5T115 789q0-36-20-59t-56-23-55.5 22.5T-36 789zM83 0v630h167V0H83zM217 789q0 37 19.5 59.5T292 871q37 0 56.5-22.5T368 789q0-36-20-59t-56-23-55.5 22.5T217 789z" /><glyph unicode="&#xf0;" horiz-adv-x="693" d="M43 296q0 126 71 208.5T312 594q27 0 45-3l-41 60-3 10-84-40-59 95 79 40-8 8-53 82h178l14-20 4-10 73 36 61-94-73-38 9-7 127-192q62-95 62-225 0-134-79-220T342-10 121 75.5 43 296zm152-6q0-75 37.5-116T343 133t110 40.5T490 290q0 38-9.5 69T453 412.5t-46.5 35T342 460q-72 0-109.5-46T195 290z" /><glyph unicode="&#xf1;" horiz-adv-x="788" d="M83 0v631h167v-55h2q71 64 182 64 127 0 202-66t75-183L710 0H544v375q0 63-27.5 92T405 496q-71 0-113-33.5T250 368V0H83zm64 774q15 51 57.5 87.5T3e2 898q46 0 109-38 53-35 83-35 61 0 82 78l67-68q-18-57-60-90t-95-33q-44 0-108 38-53 34-84 34-56 0-80-77z" /><glyph unicode="&#xf2;" d="M50 315q0 144 86.5 234.5T384 640q163 0 249.5-90.5T720 315q0-143-87-234T385-10q-162 0-248.5 90.5T50 315zm167 0q0-84 42-133t126-49q85 0 126.5 48.5T553 315q0 84-41.5 132.5T385 496t-126.5-48T217 315zm0 566 96 96 186-216-65-66z" /><glyph unicode="&#xf3;" d="M50 315q0 144 86.5 234.5T384 640q163 0 249.5-90.5T720 315q0-143-87-234T385-10q-162 0-248.5 90.5T50 315zm167 0q0-84 42-133t126-49q85 0 126.5 48.5T553 315q0 84-41.5 132.5T385 496t-126.5-48T217 315zm41 446 185 216 97-96-217-186z" /><glyph unicode="&#xf4;" d="M50 315q0 144 86.5 234.5T384 640q163 0 249.5-90.5T720 315q0-143-87-234T385-10q-162 0-248.5 90.5T50 315zM181 759l202 2e2h2l2e2-2e2-63-63-139 114-139-114zm36-444q0-84 42-133t126-49q85 0 126.5 48.5T553 315q0 84-41.5 132.5T385 496t-126.5-48T217 315z" /><glyph unicode="&#xf5;" d="M50 315q0 144 86.5 234.5T384 640q163 0 249.5-90.5T720 315q0-143-87-234T385-10q-162 0-248.5 90.5T50 315zm80 459q15 51 57.5 87.5T283 898q46 0 109-38 53-35 83-35 61 0 82 78l67-68q-9-28-24.5-51T564 745t-44.5-24.5T469 712q-44 0-108 38-53 34-84 34-56 0-80-77zm87-459q0-84 42-133t126-49q85 0 126.5 48.5T553 315q0 84-41.5 132.5T385 496t-126.5-48T217 315z" /><glyph unicode="&#xf6;" d="M50 315q0 144 86.5 234.5T384 640q163 0 249.5-90.5T720 315q0-143-87-234T385-10q-162 0-248.5 90.5T50 315zM183 789q0 36 19.5 59t55.5 23 56-22.5 20-59.5-20-59.5-56-22.5-55.5 22.5T183 789zm34-474q0-84 42-133t126-49q85 0 126.5 48.5T553 315q0 84-41.5 132.5T385 496t-126.5-48T217 315zM436 789q0 36 19.5 59t55.5 23 56-22.5 20-59.5-20-59.5-56-22.5-55.5 22.5T436 789z" /><glyph unicode="&#xf7;" horiz-adv-x="700" d="M85 333v145h530V333H85zM262 163q0 43 22.5 68.5T348 257q42 0 64.5-25.5T435 163q0-44-22.5-69.5T348 68t-64 25.5-22 69.5zm0 484q0 44 22.5 69.5T348 742q42 0 64.5-25.5T435 647q0-43-22.5-68.5T348 553t-64 25.5-22 68.5z" /><glyph unicode="&#xf8;" horiz-adv-x="720" d="M50 315q0 144 79.5 234.5T359 640q76 0 130-24l2 20 36 63 94-53-38-63-15-9q102-94 102-259 0-144-79.5-235T362-11q-76 0-130 22v-21l-38-63-92 55 37 62 16 11q-51 43-78 112T50 315zm156 0q0-78 33-120l4 24 151 257 18 12q-21 8-52 8-78 0-116-47.5T206 315zM311 142q16-8 49-8 78 0 116 47.5T514 315q0 74-30 120l-4-26-149-251z" /><glyph unicode="&#xf9;" horiz-adv-x="780" d="M78 246v384h167V255q0-60 30.5-90.5T379 134q70 0 111 33.5t41 94.5v368h167V-1H531v55h-2q-64-64-175-64-139 0-208 68T78 246zM222 881l96 96 186-216-65-66z" /><glyph unicode="&#xfa;" horiz-adv-x="780" d="M78 246v384h167V255q0-60 30.5-90.5T379 134q70 0 111 33.5t41 94.5v368h167V-1H531v55h-2q-64-64-175-64-139 0-208 68T78 246zM264 761l186 216 96-96-217-186z" /><glyph unicode="&#xfb;" horiz-adv-x="780" d="M78 246v384h167V255q0-60 30.5-90.5T379 134q70 0 111 33.5t41 94.5v368h167V-1H531v55h-2q-64-64-175-64-139 0-208 68T78 246zM182 759l202 2e2h2l201-2e2-63-63-140 114-139-114z" /><glyph unicode="&#xfc;" horiz-adv-x="780" d="M78 246v384h167V255q0-60 30.5-90.5T379 134q70 0 111 33.5t41 94.5v368h167V-1H531v55h-2q-64-64-175-64-139 0-208 68T78 246zM185 789q0 37 19.5 59.5T261 871q36 0 55.5-22.5T336 789q0-36-20-59t-55-23q-36 0-56 22.5T185 789zm253 0q0 37 19.5 59.5T514 871q36 0 55.5-22.5T589 789q0-36-20-59t-55-23q-36 0-56 22.5T438 789z" /><glyph unicode="&#xfd;" horiz-adv-x="771" d="M14 630h184l168-362 29-85h2l27 85 150 362h184L453-59q-32-71-88.5-113.5T236-215q-81 0-156 37v151q86-45 139-45 29 0 51.5 16T313 8zM256 761l185 216 97-96-217-186z" /><glyph unicode="&#xfe;" horiz-adv-x="791" d="M83-210V840h167V594h1q57 45 160 45 162 0 246-88.5T741 314q0-149-83.5-236.5T411-10q-55 0-94 9.5T244 36v-1q3-12 4.5-73.5T250-155v-55H83zM241 314q0-88 39-132t127-44 127.5 44.5T574 314t-39.5 132T408 491q-167 0-167-177z" /><glyph unicode="&#xff;" horiz-adv-x="771" d="M14 630h184l165-351 32-94h2l28 94 149 351h184L452-59q-32-71-88.5-113.5T235-215q-80 0-155 37v151q86-45 139-45 58 0 94 86zM178 789q0 37 19.5 59.5T254 871q36 0 55.5-22.5T329 789q0-36-20-59t-55-23q-36 0-56 22.5T178 789zm253 0q0 37 19.5 59.5T507 871q36 0 55.5-22.5T582 789q0-36-20-59t-55-23q-36 0-56 22.5T431 789z" /><glyph unicode="&#x152;" horiz-adv-x="1167" d="M55 4e2q0 89 21.5 164.5t63 133 108.5 90T4e2 820q104 0 162-55v46h535V659H725l8-17-1-146-8-15h335V329H724l8-17V169l-8-18h373V-1H562v47q-62-56-162-56-168 0-256.5 113.5T55 4e2zm173 0q0-122 44.5-190T4e2 142t127.5 68T572 4e2q0 124-45 196t-127 72-127-71-45-197z" /><glyph unicode="&#x153;" horiz-adv-x="1214" d="M50 315q0 145 82 235t242 90q142 0 229-87 96 87 228 87 161 0 247-92t86-237q0-34-4-61H656l16-16q18-49 61.5-77.5T840 128q90 0 164 61l101-102Q995-10 839-10q-147 0-239 85-82-85-225-85-161 0-243 90T50 315zm164 0q0-182 161-182 158 0 158 182 0 181-158 181-161 0-161-181zm443 69h342l-16 16q-36 103-154 103-115 0-157-103z" /><glyph unicode="&#x178;" horiz-adv-x="928" d="M15 810h213l188-255 47-80h2l47 80 189 255h212L550 334V0H379v334zM258 982q0 36 19.5 59t55.5 23q37 0 56.5-22.5T409 982t-20-59.5-55-22.5q-37 0-56.5 22.5T258 982zm253 0q0 36 19.5 59t55.5 23q37 0 56.5-22.5T662 982t-20-59.5-55-22.5q-37 0-56.5 22.5T511 982z" /><glyph unicode="&#x2c6;" horiz-adv-x="764" d="M178 759l202 2e2h2l201-2e2-63-63-140 114-139-114z" /><glyph unicode="&#x2dc;" horiz-adv-x="764" d="M122 774q15 51 57.5 87.5T275 898q46 0 109-38 53-35 83-35 61 0 82 78l67-68q-18-57-60-90t-95-33q-44 0-108 38-53 34-84 34-56 0-80-77z" /><glyph unicode="&#x2000;" horiz-adv-x="578" /><glyph unicode="&#x2001;" horiz-adv-x="1157" /><glyph unicode="&#x2002;" horiz-adv-x="578" /><glyph unicode="&#x2003;" horiz-adv-x="1157" /><glyph unicode="&#x2004;" horiz-adv-x="385" /><glyph unicode="&#x2005;" horiz-adv-x="289" /><glyph unicode="&#x2006;" horiz-adv-x="192" /><glyph unicode="&#x2007;" horiz-adv-x="192" /><glyph unicode="&#x2008;" horiz-adv-x="144" /><glyph unicode="&#x2009;" horiz-adv-x="231" /><glyph unicode="&#x200a;" horiz-adv-x="64" /><glyph unicode="&#x2010;" horiz-adv-x="425" d="M30 264v143h365V264H30z" /><glyph unicode="&#x2011;" horiz-adv-x="425" d="M30 264v143h365V264H30z" /><glyph unicode="&#x2012;" horiz-adv-x="425" d="M30 264v143h365V264H30z" /><glyph unicode="&#x2013;" horiz-adv-x="664" d="M30 264v143h604V264H30z" /><glyph unicode="&#x2014;" horiz-adv-x="939" d="M30 264v143h879V264H30z" /><glyph unicode="&#x2018;" horiz-adv-x="257" d="M45 574q0 28 13 58l82 195 72-31-48-115-23-18q34-3 52.5-27.5T212 574q0-41-21.5-66T129 483t-62 25-22 66z" /><glyph unicode="&#x2019;" horiz-adv-x="257" d="M45 507l49 116 22 18q-34 2-52.5 26.5T45 729q0 41 22 66t62 25 61.5-25 21.5-66q0-27-13-57l-82-196z" /><glyph unicode="&#x201a;" horiz-adv-x="257" d="M45 78q0 41 22 65.5t62 24.5 61.5-24.5T212 78q0-28-13-58l-82-195-72 31L94-29l22 18Q82-8 63.5 16.5T45 78z" /><glyph unicode="&#x201c;" horiz-adv-x="464" d="M45 574q0 28 13 58l82 195 72-31-48-115-23-18q34-3 52.5-27.5T212 574q0-41-21.5-66T129 483t-62 25-22 66zm207 0q0 23 13 58l82 195 72-31-48-115-23-18q34-3 52.5-27.5T419 574q0-41-21.5-66T336 483t-62 25-22 66z" /><glyph unicode="&#x201d;" horiz-adv-x="464" d="M45 507l49 116 22 18q-34 2-52.5 26.5T45 729q0 41 22 66t62 25 61.5-25 21.5-66q0-27-13-57l-82-196zm207 0 49 116 22 18q-34 2-52.5 26.5T252 729q0 41 22 66t62 25 61.5-25 21.5-66q0-27-13-57l-82-196z" /><glyph unicode="&#x201e;" horiz-adv-x="464" d="M45 78q0 41 22 65.5t62 24.5 61.5-24.5T212 78q0-28-13-58l-82-195-72 31L94-29l22 18Q82-8 63.5 16.5T45 78zm207 0q0 41 22 65.5t62 24.5 61.5-24.5T419 78q0-28-13-58l-82-195-72 31 49 115 22 18q-34 3-52.5 27.5T252 78z" /><glyph unicode="&#x2022;" horiz-adv-x="439" d="M0 405q0 72 51 123t124 51q72 0 123-51t51-123q0-73-51-124t-123-51q-73 0-124 51T0 405z" /><glyph unicode="&#x2026;" horiz-adv-x="876" d="M60 85q0 43 23 69.5t65 26.5 65-26 23-70q0-42-23-68.5T148-10 83 16 60 85zm285 0q0 43 23 69.5t65 26.5 65-26 23-70q0-42-23-68.5T433-10t-65 26-23 69zm285 0q0 43 23 69.5t65 26.5 65-26 23-70q0-42-23-68.5T718-10t-65 26-23 69z" /><glyph unicode="&#x202f;" horiz-adv-x="231" /><glyph unicode="&#x2039;" horiz-adv-x="446" d="M55 255l233 229 103-104-93-94-44-32 44-30 93-94L288 26z" /><glyph unicode="&#x203a;" horiz-adv-x="446" d="M55 130l92 94q29 20 45 30l-45 32-92 94 103 104 233-229L158 26z" /><glyph unicode="&#x205f;" horiz-adv-x="289" /><glyph unicode="&#x20ac;" horiz-adv-x="755" d="M40 257v119h68l-10 10v14 7.5V418v7l11 9H40v119h90l-8 14q37 118 119 185.5T438 820q174 0 267-134L598 577q-51 94-156 94-98 0-149-103l-20-15h249V434H247l9-9v-39l-10-10h276V257H269l20-15q50-103 149-103 103 0 157 96l107-109Q606-10 438-10q-119 0-202 68T120 242l8 15H40z" /><glyph unicode="&#x2122;" horiz-adv-x="877" d="M23 735v74h372v-74H244l6-12V404h-82v318l6 13H23zM433 404v405h73q24-46 69.5-130.5T633 572l16-42 16 42 129 237h71V404h-83v228l-11-27-119-206h-7L524 606l-9 26V404h-82z" /><glyph unicode="&#x25fc;" horiz-adv-x="630" d="M0 0v630h630V0H0z" /><glyph unicode="&#xfb01;" horiz-adv-x="815" d="M28 496v133h98l-8 16q0 93 64.5 147T351 846q69 0 119-17V695q-46 17-95 17-41 0-65.5-16T286 645l-10-16 456 1V0H565v496H277l8-16V0H118v481l8 15H28zM559 764q0 39 25.5 65.5T649 856q40 0 65-26t25-66q0-39-25.5-65.5T649 672q-40 0-65 26t-25 66z" /><glyph unicode="&#xfb02;" horiz-adv-x="805" d="M28 496v133h98l-8 16q0 92 63.5 143T351 839l371 1V0H555v709q-14 0-64.5 1.5T415 712t-40-2q-89 0-89-65l-10-16h189V496H277l8-16V0H118v481l8 15H28z" /></font>
</defs>
</svg>
